<?xml version="1.0" encoding="utf-8"?>
<!-- Generator: Adobe Illustrator 21.0.0, SVG Export Plug-In . SVG Version: 6.00 Build 0)  -->
<svg version="1.1" id="Layer_1" xmlns="http://www.w3.org/2000/svg" xmlns:xlink="http://www.w3.org/1999/xlink" x="0px" y="0px"
	 viewBox="0 0 24 24" style="enable-background:new 0 0 24 24;" xml:space="preserve">
<g>
	<path d="M19.9,16.4l0.8,1.6c0.4,0.8,0.3,1.8-0.4,2.4c-0.2,0.2-0.3,0.3-0.5,0.4c0,0,0,0,0,0c-0.3,0.1-0.6,0.2-0.9,0.2
		c-0.1,0-0.2,0-0.3,0c0,0-0.1,0-0.1,0c-0.2,0-0.4-0.1-0.6-0.2l-1.6-0.8c0.1,0.8,0.4,1.5,0.9,2.1c1.2,1.2,3.4,1.2,4.6,0
		c1.3-1.3,1.3-3.4,0-4.6C21.4,16.8,20.7,16.4,19.9,16.4z"/>
	<path d="M4.1,7.7L3.3,6.1C2.9,5.3,3,4.3,3.6,3.7C4.3,3,5.3,2.9,6.1,3.3l1.6,0.8C7.6,3.4,7.3,2.6,6.7,2.1c-0.6-0.6-1.4-1-2.3-1
		c-0.9,0-1.7,0.3-2.3,1c-1.3,1.3-1.3,3.4,0,4.6C2.6,7.3,3.3,7.6,4.1,7.7z"/>
	<path d="M5.3,4.1C5.3,4.1,5.3,4.1,5.3,4.1c-0.1,0-0.2,0-0.3,0c-0.1,0-0.1,0-0.2,0c-0.1,0-0.1,0-0.2,0.1C4.5,4.2,4.4,4.3,4.3,4.4
		C4,4.7,3.9,5.2,4.2,5.6l1.2,2.3c0,0,0,0,0,0l0.5,0.8l0.5-0.9c0.2-0.4,0.7-0.6,1.2-0.5l0.9,0.3c0.2-0.2,0.5-0.4,0.7-0.5
		C9.4,7,9.7,6.8,10,6.7l0-0.2L5.6,4.2C5.5,4.1,5.4,4.1,5.3,4.1z"/>
	<path d="M18.5,3.1c0,0,0.1,0,0.1,0c0.1,0,0.2,0,0.3,0c0.3,0,0.6,0.1,0.9,0.2c0,0,0,0,0,0c0.2,0.1,0.4,0.2,0.5,0.4
		c0.6,0.6,0.8,1.6,0.4,2.4l-0.8,1.6c0.8-0.1,1.5-0.4,2.1-0.9c0.6-0.6,1-1.4,1-2.3c0-0.9-0.3-1.7-1-2.3c-1.2-1.2-3.4-1.2-4.6,0
		c-0.6,0.6-0.9,1.3-0.9,2.1l1.6-0.8C18.1,3.2,18.3,3.1,18.5,3.1z"/>
	<path d="M15.6,7.6l0.9-0.3c0.1,0,0.2,0,0.3,0c0,0,0,0,0,0c0,0,0,0,0.1,0c0.1,0,0.2,0,0.3,0.1c0,0,0,0,0.1,0c0.1,0,0.2,0.1,0.2,0.1
		c0,0,0,0,0.1,0c0.1,0.1,0.2,0.2,0.2,0.2l0.5,0.9l0.5-0.8c0,0,0,0,0,0l1.2-2.3c0.2-0.4,0.1-0.9-0.2-1.2C19.3,4,18.8,4,18.4,4.2
		L14,6.6l0,0.2C14.6,6.9,15.1,7.2,15.6,7.6z"/>
	<path d="M5.5,20.9c0,0-0.1,0-0.1,0c-0.1,0-0.2,0-0.3,0c-0.3,0-0.6-0.1-0.9-0.2c0,0,0,0,0,0c-0.2-0.1-0.4-0.2-0.5-0.4
		c-0.6-0.6-0.8-1.6-0.4-2.4l0.8-1.6c-0.8,0.1-1.5,0.4-2.1,0.9c-1.3,1.3-1.3,3.4,0,4.6c1.2,1.2,3.4,1.2,4.6,0
		c0.6-0.6,0.9-1.3,0.9-2.1l-1.6,0.8C5.9,20.8,5.7,20.9,5.5,20.9z"/>
	<path d="M15.1,15.5c0.1-0.1,0.3-0.2,0.5-0.1l1.1,0.3l0.9-1.4l-0.9-0.9c-0.1-0.1-0.2-0.3-0.1-0.5v0c0.1-0.4,0.1-0.8,0.1-1.3l0,0
		c0,0,0,0,0,0c0-0.2,0-0.4-0.1-0.6v0c0-0.2,0-0.3,0.1-0.5l0.9-0.8l-0.8-1.5l-1.2,0.3c-0.2,0-0.3,0-0.5-0.1c-0.5-0.4-1.1-0.8-1.7-1
		c-0.2-0.1-0.3-0.2-0.3-0.4l-0.2-0.8v0l-0.1-0.3l-1.7,0l-0.3,1.2c0,0.2-0.2,0.3-0.3,0.4C10.2,7.7,9.9,7.8,9.7,8
		C9.4,8.1,9.1,8.3,8.9,8.5C8.8,8.7,8.6,8.7,8.4,8.6L7.3,8.3L6.4,9.7l0.9,0.9c0.1,0.1,0.2,0.3,0.1,0.5c-0.1,0.4-0.1,0.8-0.1,1.3
		c0,0,0,0,0,0l0,0.1c0,0.2,0,0.4,0.1,0.6c0,0.2,0,0.3-0.1,0.5l-0.9,0.8l0.8,1.4l1.2-0.3c0,0,0.1,0,0.1,0c0,0,0.1,0,0.1,0
		c0,0,0,0,0.1,0c0.1,0,0.1,0.1,0.2,0.1c0.5,0.4,1,0.8,1.7,1c0.2,0.1,0.3,0.2,0.3,0.4l0.2,0.8l0.1,0.3l1.7,0c0,0,0,0,0,0l0.3-1.2
		c0-0.2,0.2-0.3,0.3-0.4c0.3-0.1,0.6-0.2,0.9-0.4C14.6,15.9,14.9,15.7,15.1,15.5z M13,14.7C13,14.7,13,14.7,13,14.7l-2.1,0
		c-0.3,0-0.6-0.2-0.8-0.5l-1-1.8c-0.2-0.3-0.2-0.7,0-0.9l1-1.8c0.2-0.3,0.5-0.5,0.8-0.5h2c0.3,0,0.6,0.2,0.8,0.5l1,1.8
		c0.2,0.3,0.2,0.6,0,0.9l-1,1.8C13.7,14.5,13.4,14.7,13,14.7z"/>
	<path d="M18.6,19.9c0.2,0.1,0.3,0.1,0.5,0.1c0.2,0,0.4-0.1,0.6-0.3c0.3-0.3,0.4-0.8,0.2-1.3l-1.2-2.3c0,0,0,0,0,0l-0.5-0.8
		l-0.5,0.9c-0.2,0.4-0.7,0.6-1.2,0.5l-0.9-0.3c-0.2,0.2-0.5,0.4-0.7,0.5c-0.1,0.1-0.3,0.1-0.4,0.2c-0.1,0.1-0.3,0.1-0.4,0.2l0,0.2
		l4.4,2.4C18.5,19.9,18.5,19.9,18.6,19.9z"/>
	<path d="M8.4,16.4l-0.9,0.3c-0.5,0.1-1-0.1-1.2-0.5l-0.5-0.9l-0.5,0.8v0l-1.2,2.3c-0.2,0.4-0.1,0.9,0.2,1.3
		c0.1,0.1,0.2,0.2,0.3,0.2c0.1,0,0.1,0,0.2,0c0.1,0,0.1,0,0.2,0c0.1,0,0.2,0,0.2,0c0,0,0,0,0.1,0c0.1,0,0.2,0,0.3-0.1l4.4-2.4l0-0.2
		C9.4,17.1,8.9,16.8,8.4,16.4z"/>
</g>
</svg>
