<?xml version="1.0" encoding="utf-8"?>
<!-- Generator: Adobe Illustrator 21.0.0, SVG Export Plug-In . SVG Version: 6.00 Build 0)  -->
<svg version="1.1" id="Layer_1" xmlns="http://www.w3.org/2000/svg" xmlns:xlink="http://www.w3.org/1999/xlink" x="0px" y="0px"
	 viewBox="0 0 24 24" style="enable-background:new 0 0 24 24;" xml:space="preserve">
<g>
	<rect x="11.3" y="3.4" width="5.9" height="6.3"/>
	<path d="M18.3,3.4v6.8c0,0.3-0.2,0.5-0.5,0.5h-6.9c-0.3,0-0.5-0.2-0.5-0.5V3.4H5.1v18.3h18.3V3.4H18.3z M15.6,15.8v0.7
		c0,0.1,0,0.1,0,0.2l0.6,0.6c0.5-0.2,1-0.1,1.4,0.3c0.2,0.2,0.4,0.6,0.4,0.9s-0.1,0.7-0.4,0.9c-0.2,0.2-0.6,0.4-0.9,0.4
		c-0.3,0-0.7-0.1-0.9-0.4c-0.4-0.4-0.5-0.9-0.3-1.4l-0.6-0.6c-0.1,0-0.1,0-0.2,0h-0.7c-0.1,0-0.1,0-0.2,0l-0.6,0.6
		c0.1,0.2,0.1,0.3,0.1,0.5c0,0.3-0.1,0.7-0.4,0.9c-0.2,0.2-0.6,0.4-0.9,0.4c-0.3,0-0.7-0.1-0.9-0.4c-0.2-0.2-0.4-0.6-0.4-0.9
		s0.1-0.7,0.4-0.9c0.4-0.4,0.9-0.4,1.4-0.3l0.6-0.6c0-0.1,0-0.1,0-0.2v-0.7c0-0.1,0-0.1,0-0.2L12.5,15c-0.2,0.1-0.3,0.1-0.5,0.1
		c-0.3,0-0.7-0.1-0.9-0.4c-0.2-0.2-0.4-0.6-0.4-0.9c0-0.3,0.1-0.6,0.3-0.8c0,0,0-0.1,0.1-0.1c0.1-0.1,0.1-0.1,0.2-0.1
		c0.5-0.3,1.2-0.3,1.6,0.1c0.4,0.4,0.5,0.9,0.3,1.4l0.6,0.6c0.1,0,0.1,0,0.2,0h0.7c0.1,0,0.1,0,0.2,0l0.6-0.6
		c-0.2-0.5-0.1-1,0.3-1.4c0.4-0.4,1.1-0.5,1.6-0.1c0.1,0,0.1,0.1,0.2,0.1h0c0,0,0.1,0.1,0.1,0.1c0.2,0.2,0.3,0.5,0.3,0.8
		c0,0.3-0.1,0.7-0.4,0.9c-0.2,0.2-0.6,0.4-0.9,0.4c-0.2,0-0.3,0-0.5-0.1l-0.6,0.6C15.6,15.6,15.6,15.7,15.6,15.8z"/>
	<path d="M3.9,2.9c0-0.3-0.2-0.5-0.5-0.5H1.1c-0.3,0-0.5,0.2-0.5,0.5c0,0.3,0.2,0.5,0.5,0.5h2.3C3.6,3.4,3.9,3.1,3.9,2.9z"/>
	<path d="M3.9,5.2c0-0.3-0.2-0.5-0.5-0.5H2.2c-0.3,0-0.5,0.2-0.5,0.5c0,0.3,0.2,0.5,0.5,0.5h1.1C3.6,5.7,3.9,5.4,3.9,5.2z"/>
	<path d="M3,7.1C2.9,7.2,2.9,7.3,2.9,7.5c0,0.1,0,0.3,0.1,0.4C3.1,7.9,3.2,8,3.4,8c0.1,0,0.3-0.1,0.4-0.2c0.1-0.1,0.1-0.2,0.1-0.3
		c0-0.1,0-0.3-0.2-0.4C3.5,6.9,3.2,6.9,3,7.1z"/>
</g>
</svg>
