<?xml version="1.0" encoding="utf-8"?>
<!-- Generator: Adobe Illustrator 21.0.0, SVG Export Plug-In . SVG Version: 6.00 Build 0)  -->
<svg version="1.1" id="Layer_1" xmlns="http://www.w3.org/2000/svg" xmlns:xlink="http://www.w3.org/1999/xlink" x="0px" y="0px"
	 viewBox="0 0 24 24" style="enable-background:new 0 0 24 24;" xml:space="preserve">
<path d="M22.1,15.7l-1.5-1.4c-0.1-0.1-0.2-0.3-0.1-0.5c0.2-1.2,0.2-2.4,0-3.5c0-0.2,0-0.3,0.1-0.5l1.5-1.4c0.2-0.1,0.2-0.4,0.1-0.6
	l-1.4-2.5c-0.1-0.2-0.3-0.3-0.5-0.2l-2,0.6c-0.2,0-0.3,0-0.5-0.1c-0.9-0.8-1.9-1.4-3.1-1.8c-0.2-0.1-0.3-0.2-0.3-0.4l-0.5-2
	c0-0.2-0.2-0.3-0.4-0.3h-2.9c-0.2,0-0.4,0.1-0.4,0.4l-0.5,2c0,0.2-0.2,0.3-0.3,0.4C8.7,4,8.2,4.2,7.7,4.5c-0.5,0.3-1,0.7-1.4,1.1
	C6.1,5.7,5.9,5.7,5.8,5.7l-2-0.6C3.6,5,3.3,5.1,3.2,5.3L1.8,7.8C1.7,7.9,1.7,8.2,1.9,8.3l1.5,1.4c0.1,0.1,0.2,0.3,0.1,0.5
	c-0.2,1.2-0.2,2.4,0,3.6c0,0.2,0,0.3-0.1,0.5l-1.5,1.4c-0.2,0.1-0.2,0.4-0.1,0.6l1.4,2.5c0.1,0.2,0.3,0.3,0.5,0.2l2-0.6
	c0,0,0.1,0,0.1,0c0.1,0,0.2,0,0.3,0.1c0.9,0.8,1.9,1.4,3.1,1.8c0.2,0.1,0.3,0.2,0.3,0.4l0.5,2c0,0.2,0.2,0.3,0.4,0.3h2.9
	c0.2,0,0.4-0.1,0.4-0.3l0.5-2c0-0.2,0.2-0.3,0.3-0.4c0.6-0.2,1.1-0.4,1.6-0.7c0.5-0.3,1-0.6,1.4-1.1c0.1-0.1,0.3-0.2,0.5-0.1l2,0.6
	c0.2,0.1,0.4,0,0.5-0.2l1.4-2.5C22.3,16,22.3,15.8,22.1,15.7z M15.9,15.9c-0.3,0.3-0.6,0.4-1,0.4c-0.4,0-0.8-0.2-1-0.4
	c-0.4-0.4-0.5-1.1-0.3-1.6l-0.8-0.8c-0.1,0-0.2,0.1-0.3,0.1h-0.8c-0.1,0-0.2,0-0.3-0.1l-0.8,0.8c0.1,0.2,0.1,0.4,0.1,0.6
	c0,0.4-0.2,0.8-0.4,1c-0.3,0.3-0.6,0.4-1,0.4c-0.4,0-0.8-0.2-1-0.4c-0.3-0.3-0.4-0.6-0.4-1c0-0.4,0.2-0.8,0.4-1
	c0.4-0.4,1.1-0.5,1.6-0.3l0.8-0.8c0-0.1-0.1-0.2-0.1-0.3v-0.8c0-0.1,0-0.2,0.1-0.3l-0.8-0.8c-0.2,0.1-0.4,0.1-0.6,0.1
	c-0.4,0-0.8-0.2-1-0.4c-0.3-0.3-0.4-0.6-0.4-1c0-0.4,0.2-0.8,0.4-1c0,0,0,0,0,0C8.2,8.1,8.2,8,8.3,8c0.6-0.4,1.4-0.4,1.9,0.1
	c0.4,0.4,0.5,1.1,0.3,1.6l0.8,0.8c0.1,0,0.2-0.1,0.3-0.1h0.8c0.1,0,0.2,0,0.3,0.1l0.8-0.8c-0.2-0.5-0.2-1.2,0.3-1.6
	c0.5-0.5,1.3-0.5,1.9-0.1c0.1,0,0.1,0.1,0.2,0.1c0,0,0,0,0,0l0,0h0l0,0c0.3,0.3,0.4,0.6,0.4,1c0,0.4-0.2,0.8-0.4,1
	c-0.3,0.3-0.6,0.4-1,0.4c-0.2,0-0.4-0.1-0.6-0.1l-0.8,0.8c0,0.1,0.1,0.2,0.1,0.3v0.8c0,0.1,0,0.2-0.1,0.3l0.8,0.8
	c0.5-0.2,1.2-0.1,1.6,0.3c0.3,0.3,0.4,0.6,0.4,1C16.3,15.2,16.1,15.6,15.9,15.9z"/>
</svg>
