<?xml version="1.0" encoding="utf-8"?>
<!-- Generator: Adobe Illustrator 21.0.0, SVG Export Plug-In . SVG Version: 6.00 Build 0)  -->
<svg version="1.1" id="Layer_1" xmlns="http://www.w3.org/2000/svg" xmlns:xlink="http://www.w3.org/1999/xlink" x="0px" y="0px"
	 viewBox="0 0 24 24" style="enable-background:new 0 0 24 24;" xml:space="preserve">
<g>
	<path d="M12.5,9.9V9c1.4-0.1,2.6-0.8,3.1-1.7c0.8-0.2,2.2-0.5,3.3-1c0.3,0.5,0.8,0.8,1.4,0.8h1.2c1,0,1.7-0.8,1.7-1.7V4
		c0-0.9-0.7-1.7-1.7-1.7V1.5H23c0.3,0,0.5-0.2,0.5-0.5c0-0.3-0.2-0.5-0.5-0.5h-3.8c-0.3,0-0.5,0.2-0.5,0.5c0,0.3,0.2,0.5,0.5,0.5
		h1.4v0.8h-0.4c-0.6,0-1.1,0.3-1.4,0.8C17,2.2,14.1,1.7,13,1.7c-0.3,0-0.7,0.1-1,0.2c-0.3-0.1-0.7-0.2-1-0.2c-1,0-4,0.6-5.8,1.3
		C4.8,2.6,4.3,2.3,3.7,2.3H3.4V1.5h1.4c0.3,0,0.5-0.2,0.5-0.5c0-0.3-0.2-0.5-0.5-0.5H1C0.7,0.5,0.5,0.7,0.5,1c0,0.3,0.2,0.5,0.5,0.5
		h1.4v0.8C1.5,2.3,0.8,3.1,0.8,4v1.3c0,1,0.8,1.7,1.7,1.7h1.2c0.6,0,1.1-0.3,1.4-0.8c1.1,0.5,2.5,0.8,3.3,1c0.4,0.9,1.6,1.6,3.1,1.7
		v0.9c-5.1,0.3-9.1,4.4-9.1,9.5c0,0.3,0.2,0.5,0.5,0.5h3.6V23c0,0.3,0.2,0.5,0.5,0.5h10c0.3,0,0.5-0.2,0.5-0.5v-3.1h3.6
		c0.3,0,0.5-0.2,0.5-0.5C21.6,14.3,17.5,10.1,12.5,9.9z M9.9,4.9c0-0.3,0.2-0.5,0.5-0.5h3.3c0.3,0,0.5,0.2,0.5,0.5
		c0,0.3-0.2,0.5-0.5,0.5h-3.3C10.1,5.4,9.9,5.2,9.9,4.9z M12,21.9c-1.9,0-3.5-1.6-3.5-3.5c0-1.9,1.6-3.5,3.5-3.5h0h0c0,0,0,0,0,0
		c1.9,0,3.5,1.6,3.5,3.5C15.5,20.4,13.9,21.9,12,21.9z M17.5,18.9v-5c0-0.3-0.2-0.5-0.5-0.5H7c-0.3,0-0.5,0.2-0.5,0.5v5H3.4
		c0.3-4.5,4-8.1,8.6-8.1c0,0,0,0,0,0c0,0,0,0,0,0c4.6,0,8.3,3.6,8.6,8.1H17.5z"/>
	<path d="M2.9,9.4c0.3,0,0.5-0.2,0.5-0.5V8.4h1.4c0.3,0,0.5-0.2,0.5-0.5c0-0.3-0.2-0.5-0.5-0.5H1c-0.3,0-0.5,0.2-0.5,0.5
		c0,0.3,0.2,0.5,0.5,0.5h1.4v0.4C2.4,9.1,2.6,9.4,2.9,9.4z"/>
	<path d="M23,7.5h-3.8c-0.3,0-0.5,0.2-0.5,0.5c0,0.3,0.2,0.5,0.5,0.5h1.4v0.4c0,0.3,0.2,0.5,0.5,0.5c0.3,0,0.5-0.2,0.5-0.5V8.4H23
		c0.3,0,0.5-0.2,0.5-0.5C23.5,7.7,23.3,7.5,23,7.5z"/>
	<path d="M12,15.9C12,15.9,12,15.9,12,15.9c-0.3,0-0.8,0.7-0.9,2h1.8C12.8,16.7,12.3,15.9,12,15.9z"/>
	<path d="M12,21c0.3,0,0.8-0.7,0.9-2h-1.8C11.2,20.3,11.7,21,12,21z"/>
	<path d="M13.6,16.5c0.1,0.4,0.2,0.9,0.3,1.5h0.6C14.4,17.4,14,16.9,13.6,16.5z"/>
	<path d="M9.5,18h0.6c0-0.5,0.1-1,0.3-1.5C10,16.9,9.6,17.4,9.5,18z"/>
	<path d="M9.5,18.9c0.1,0.6,0.4,1.1,0.9,1.5c-0.1-0.4-0.2-0.9-0.3-1.5H9.5z"/>
	<path d="M13.6,20.4c0.5-0.4,0.8-0.9,0.9-1.5h-0.6C13.8,19.5,13.7,20,13.6,20.4z"/>
</g>
</svg>
