<?xml version="1.0" encoding="utf-8"?>
<!-- Generator: Adobe Illustrator 21.0.0, SVG Export Plug-In . SVG Version: 6.00 Build 0)  -->
<svg version="1.1" id="Layer_1" xmlns="http://www.w3.org/2000/svg" xmlns:xlink="http://www.w3.org/1999/xlink" x="0px" y="0px"
	 viewBox="0 0 24 24" style="enable-background:new 0 0 24 24;" xml:space="preserve">
<g>
	<path d="M12.5,10.3V9.4c1.4-0.1,2.6-0.8,3.1-1.7c0.8-0.2,2.2-0.5,3.3-1c0.3,0.5,0.8,0.8,1.4,0.8h1.2c1,0,1.7-0.8,1.7-1.7V4.4
		c0-0.9-0.7-1.7-1.7-1.7V1.9H23c0.3,0,0.5-0.2,0.5-0.5S23.3,0.9,23,0.9h-3.8c-0.3,0-0.5,0.2-0.5,0.5s0.2,0.5,0.5,0.5h1.4v0.8h-0.4
		c-0.6,0-1.1,0.3-1.4,0.8C17,2.7,14.1,2.1,13,2.1c-0.3,0-0.7,0.1-1,0.2c-0.3-0.1-0.7-0.2-1-0.2c-1,0-4,0.6-5.8,1.3
		C4.8,3,4.3,2.7,3.7,2.7H3.4V1.9h1.4c0.3,0,0.5-0.2,0.5-0.5S5.1,0.9,4.8,0.9H1c-0.3,0-0.5,0.2-0.5,0.5S0.7,1.9,1,1.9h1.4v0.8
		c-0.9,0-1.7,0.8-1.7,1.7v1.3c0,1,0.8,1.7,1.7,1.7h1.2c0.6,0,1.1-0.3,1.4-0.8c1.1,0.5,2.5,0.8,3.3,1c0.4,0.9,1.6,1.6,3.1,1.7v0.9
		c-5.1,0.3-9.1,4.4-9.1,9.5c0,0.3,0.2,0.5,0.5,0.5h3.7v-1H3.4c0.3-4.5,4-8.1,8.6-8.1c0,0,0,0,0,0c0,0,0,0,0,0c4.6,0,8.3,3.6,8.6,8.1
		h-3.3v1h3.7c0.3,0,0.5-0.2,0.5-0.5C21.6,14.7,17.5,10.5,12.5,10.3z M9.9,5.3c0-0.3,0.2-0.5,0.5-0.5h3.3c0.3,0,0.5,0.2,0.5,0.5
		c0,0.3-0.2,0.5-0.5,0.5h-3.3C10.1,5.8,9.9,5.6,9.9,5.3z"/>
	<path d="M2.9,9.8c0.3,0,0.5-0.2,0.5-0.5V8.9h1.4c0.3,0,0.5-0.2,0.5-0.5c0-0.3-0.2-0.5-0.5-0.5H1c-0.3,0-0.5,0.2-0.5,0.5
		c0,0.3,0.2,0.5,0.5,0.5h1.4v0.4C2.4,9.6,2.6,9.8,2.9,9.8z"/>
	<path d="M23,7.9h-3.8c-0.3,0-0.5,0.2-0.5,0.5c0,0.3,0.2,0.5,0.5,0.5h1.4v0.4c0,0.3,0.2,0.5,0.5,0.5c0.3,0,0.5-0.2,0.5-0.5V8.9H23
		c0.3,0,0.5-0.2,0.5-0.5C23.5,8.1,23.3,7.9,23,7.9z"/>
	<path d="M13.2,16h2.5c-0.7-1-1.8-1.7-3-1.9L11.6,16H13.2L13.2,16z"/>
	<polygon points="10.1,18.6 11.1,20.2 12.9,20.2 13.9,18.6 12.9,16.9 11.1,16.9 	"/>
	<path d="M9.2,18.8C9.2,18.8,9.2,18.8,9.2,18.8l-1.3-2.2c-0.3,0.6-0.4,1.2-0.4,1.9c0,0.6,0.1,1.1,0.3,1.6H10L9.2,18.8z"/>
	<path d="M8.5,15.8l1.1,1.9l0.8-1.4l0,0l1.2-2.1C10.3,14.2,9.3,14.8,8.5,15.8z"/>
	<path d="M14,16.9l0.8,1.4l1.3,2.2c0.3-0.6,0.4-1.2,0.4-1.9c0-0.6-0.1-1.1-0.3-1.6H14z"/>
	<path d="M10.8,21.1H8.3c0.7,1,1.8,1.7,3,1.9l1.1-1.9H10.8L10.8,21.1z"/>
	<path d="M13.6,20.9C13.6,20.9,13.6,20.9,13.6,20.9l-1.3,2.2c1.3-0.1,2.4-0.7,3.1-1.7l-1.1-1.9L13.6,20.9z"/>
</g>
</svg>
