<?xml version="1.0" encoding="utf-8"?>
<!-- Generator: Adobe Illustrator 21.0.0, SVG Export Plug-In . SVG Version: 6.00 Build 0)  -->
<svg version="1.1" id="Layer_1" xmlns="http://www.w3.org/2000/svg" xmlns:xlink="http://www.w3.org/1999/xlink" x="0px" y="0px"
	 viewBox="0 0 24 24" style="enable-background:new 0 0 24 24;" xml:space="preserve">
<g>
	<path d="M4.8,7.4H1c-0.3,0-0.5,0.2-0.5,0.5c0,0.3,0.2,0.5,0.5,0.5h1.4v0.4c0,0.3,0.2,0.5,0.5,0.5c0.3,0,0.5-0.2,0.5-0.5V8.4h1.4
		c0.3,0,0.5-0.2,0.5-0.5C5.3,7.7,5.1,7.4,4.8,7.4z"/>
	<path d="M1,1.5h1.4v0.8C1.5,2.3,0.8,3.1,0.8,4v1.3c0,1,0.8,1.7,1.7,1.7h1.2c0.6,0,1.1-0.3,1.4-0.7c1.1,0.5,2.5,0.8,3.3,1
		C8.9,8.3,10.3,9,12,9c1.7,0,3.1-0.7,3.5-1.7c0.8-0.2,2.2-0.5,3.3-1c0.3,0.5,0.8,0.7,1.4,0.7h1.2c1,0,1.7-0.8,1.7-1.7V4
		c0-0.9-0.7-1.7-1.7-1.7V1.5H23c0.3,0,0.5-0.2,0.5-0.5S23.3,0.5,23,0.5h-3.8c-0.3,0-0.5,0.2-0.5,0.5s0.2,0.5,0.5,0.5h1.4v0.8h-0.4
		c-0.6,0-1.1,0.3-1.4,0.8C17,2.2,14,1.7,13,1.7c-0.3,0-0.7,0.1-1,0.2c-0.3-0.1-0.7-0.2-1-0.2c-1,0-4,0.6-5.8,1.3
		C4.9,2.5,4.3,2.3,3.7,2.3H3.4V1.5h1.4c0.3,0,0.5-0.2,0.5-0.5S5.1,0.5,4.8,0.5H1C0.7,0.5,0.5,0.7,0.5,1S0.7,1.5,1,1.5z M10.4,4.4
		h3.3c0.3,0,0.5,0.2,0.5,0.5c0,0.3-0.2,0.5-0.5,0.5h-3.3c-0.3,0-0.5-0.2-0.5-0.5C9.9,4.6,10.1,4.4,10.4,4.4z"/>
	<path d="M23,7.4h-3.8c-0.3,0-0.5,0.2-0.5,0.5c0,0.3,0.2,0.5,0.5,0.5h1.4v0.4c0,0.3,0.2,0.5,0.5,0.5c0.3,0,0.5-0.2,0.5-0.5V8.4H23
		c0.3,0,0.5-0.2,0.5-0.5C23.5,7.7,23.3,7.4,23,7.4z"/>
	<path d="M12,21.6c-0.3,0-0.5,0.2-0.5,0.5v1c0,0.3,0.2,0.5,0.5,0.5c0.3,0,0.5-0.2,0.5-0.5v-1C12.5,21.8,12.3,21.6,12,21.6z"/>
	<path d="M12,20.7c0.1,0,0.2,0,0.3-0.1c0.1-0.1,0.1-0.2,0.1-0.3s0-0.3-0.1-0.3c-0.2-0.2-0.5-0.2-0.7,0c-0.1,0.1-0.1,0.2-0.1,0.3
		s0,0.3,0.1,0.3C11.7,20.6,11.9,20.7,12,20.7z"/>
	<path d="M12,17.6c-0.3,0-0.5,0.2-0.5,0.5v0.3c0,0.3,0.2,0.5,0.5,0.5c0.3,0,0.5-0.2,0.5-0.5v-0.3C12.5,17.9,12.3,17.6,12,17.6z"/>
	<path d="M15.9,13.6L12.3,10c-0.2-0.2-0.5-0.2-0.7,0l-3.6,3.6c-0.3,0.3-0.4,0.6-0.4,1c0,0.4,0.2,0.8,0.4,1c0.6,0.6,1.5,0.6,2.1,0
		l1.4-1.4v2.2c0,0.3,0.2,0.5,0.5,0.5c0.3,0,0.5-0.2,0.5-0.5v-2.2l1.4,1.4c0.3,0.3,0.6,0.4,1,0.4c0.4,0,0.8-0.2,1-0.4
		C16.5,15.1,16.5,14.2,15.9,13.6z"/>
	<path d="M16.8,20.1c-0.3,0-0.5,0.2-0.5,0.5v0.6c0,0.3,0.2,0.5,0.5,0.5c0.3,0,0.5-0.2,0.5-0.5v-0.6C17.2,20.3,17,20.1,16.8,20.1z"/>
	<path d="M17.1,16.2c-0.1-0.1-0.2-0.1-0.3-0.1c-0.1,0-0.3,0.1-0.3,0.1l-1,1c-0.2,0.2-0.2,0.5,0,0.7c0.2,0.2,0.5,0.2,0.7,0l0.2-0.2
		v0.9c0,0.3,0.2,0.5,0.5,0.5c0.3,0,0.5-0.2,0.5-0.5v-0.9l0.2,0.2c0.1,0.1,0.2,0.1,0.3,0.1c0.1,0,0.2,0,0.3-0.1
		c0.2-0.2,0.2-0.5,0-0.7L17.1,16.2z"/>
	<path d="M7.2,20.1c-0.3,0-0.5,0.2-0.5,0.5v0.6c0,0.3,0.2,0.5,0.5,0.5c0.3,0,0.5-0.2,0.5-0.5v-0.6C7.7,20.3,7.5,20.1,7.2,20.1z"/>
	<path d="M7.6,16.2c0,0-0.1-0.1-0.2-0.1c-0.1,0-0.1,0-0.2,0c-0.1,0-0.1,0-0.2,0c-0.1,0-0.1,0.1-0.2,0.1l-1,1c-0.2,0.2-0.2,0.5,0,0.7
		c0.2,0.2,0.5,0.2,0.7,0l0.2-0.2v0.9c0,0.3,0.2,0.5,0.5,0.5c0.3,0,0.5-0.2,0.5-0.5v-0.9l0.2,0.2C8,18,8.1,18,8.2,18
		c0.1,0,0.2,0,0.3-0.1c0.2-0.2,0.2-0.5,0-0.7L7.6,16.2z"/>
</g>
</svg>
