<?xml version="1.0" encoding="utf-8"?>
<!-- Generator: Adobe Illustrator 21.0.0, SVG Export Plug-In . SVG Version: 6.00 Build 0)  -->
<svg version="1.1" id="Layer_1" xmlns="http://www.w3.org/2000/svg" xmlns:xlink="http://www.w3.org/1999/xlink" x="0px" y="0px"
	 viewBox="0 0 24 24" style="enable-background:new 0 0 24 24;" xml:space="preserve">
<g>
	<path d="M10.1,5.9c0,0,0.1-0.1,0.1-0.1c0,0,0-0.1-0.1-0.1C10.1,5.6,10,5.6,10,5.6c0,0-0.1,0-0.1,0.1C9.8,5.7,9.8,5.8,9.8,5.8
		c0,0,0,0.1,0.1,0.1C9.9,6,9.9,6,10,6C10,6,10,5.9,10.1,5.9z"/>
	<path d="M10.1,9.8c0,0-0.1-0.1-0.1-0.1c0,0-0.1,0-0.1,0.1C9.8,9.8,9.8,9.9,9.8,9.9c0,0,0,0.1,0.1,0.1c0.1,0.1,0.2,0.1,0.3,0
		c0,0,0.1-0.1,0.1-0.1C10.1,9.9,10.1,9.8,10.1,9.8z"/>
	<path d="M13.9,5.9C14,5.9,14,6,14,6c0,0,0.1,0,0.1-0.1c0.1-0.1,0.1-0.1,0.1-0.1c0,0,0-0.1-0.1-0.1c-0.1-0.1-0.1-0.1-0.1-0.1
		s-0.1,0-0.1,0.1c-0.1,0-0.1,0.1-0.1,0.1C13.9,5.8,13.9,5.9,13.9,5.9z"/>
	<path d="M13.9,9.8c0,0-0.1,0.1-0.1,0.1c0,0.1,0,0.1,0.1,0.1c0.1,0.1,0.2,0.1,0.3,0c0.1-0.1,0.1-0.1,0.1-0.1c0,0,0-0.1-0.1-0.1
		c-0.1-0.1-0.1-0.1-0.1-0.1C14,9.7,14,9.8,13.9,9.8z"/>
	<path d="M12,0.5c-4,0-7.3,3.3-7.3,7.3c0,1,0.2,1.9,0.6,2.8c0.1,0.3,0.3,0.5,0.4,0.8l5.9,11.9c0.1,0.2,0.2,0.3,0.4,0.3
		c0.2,0,0.3-0.1,0.4-0.3l5.9-11.8c0.1-0.2,0.3-0.5,0.4-0.8c0-0.1,0.1-0.1,0.1-0.2c0.3-0.9,0.5-1.8,0.5-2.7C19.3,3.8,16,0.5,12,0.5z
		 M13.2,7.6v0.6c0,0.1,0,0.1,0,0.2l0.5,0.5c0.4-0.1,0.9-0.1,1.2,0.3c0.2,0.2,0.3,0.5,0.3,0.8s-0.1,0.6-0.3,0.8
		C14.6,10.9,14.3,11,14,11c-0.3,0-0.6-0.1-0.8-0.3c-0.3-0.3-0.4-0.8-0.3-1.2L12.5,9c-0.1,0-0.1,0-0.2,0h-0.6c-0.1,0-0.1,0-0.2,0
		l-0.5,0.5c0.2,0.4,0.1,0.9-0.3,1.2C10.6,10.9,10.3,11,10,11c-0.3,0-0.6-0.1-0.8-0.3c-0.2-0.2-0.3-0.5-0.3-0.8s0.1-0.6,0.3-0.8
		c0.3-0.3,0.8-0.4,1.2-0.3l0.5-0.5c0-0.1,0-0.1,0-0.2V7.6c0-0.1,0-0.1,0-0.2l-0.5-0.5C10.3,7,10.1,7,10,7C9.7,7,9.4,6.9,9.1,6.6
		C8.9,6.4,8.8,6.1,8.8,5.8c0-0.3,0.1-0.6,0.3-0.8c0.4-0.4,1.2-0.4,1.6,0c0.2,0.2,0.3,0.5,0.3,0.8c0,0.1,0,0.3-0.1,0.4l0.5,0.5
		c0.1,0,0.1,0,0.2,0h0.6c0.1,0,0.1,0,0.2,0l0.5-0.5c0-0.1-0.1-0.3-0.1-0.4c0-0.3,0.1-0.6,0.3-0.8c0.4-0.4,1.2-0.4,1.6,0
		c0.2,0.2,0.3,0.5,0.3,0.8c0,0.3-0.1,0.6-0.3,0.8C14.6,6.9,14.3,7,14,7c-0.1,0-0.3,0-0.4-0.1l-0.5,0.5C13.2,7.4,13.2,7.5,13.2,7.6z"
		/>
</g>
</svg>
