<?xml version="1.0" encoding="utf-8"?>
<!-- Generator: Adobe Illustrator 21.0.0, SVG Export Plug-In . SVG Version: 6.00 Build 0)  -->
<svg version="1.1" id="Layer_1" xmlns="http://www.w3.org/2000/svg" xmlns:xlink="http://www.w3.org/1999/xlink" x="0px" y="0px"
	 viewBox="0 0 24 24" style="enable-background:new 0 0 24 24;" xml:space="preserve">
<g>
	<rect x="10.4" y="11.1" width="3.2" height="1.6"/>
	<path d="M17.8,1.1H6.2v9h11.7V1.1z M13,5.4v0.4c0,0,0,0.1,0,0.1l0.2,0.2c0.3-0.1,0.7,0,1,0.2c0.4,0.4,0.4,1,0,1.4
		C14,8,13.8,8.1,13.5,8.1c-0.3,0-0.5-0.1-0.7-0.3c-0.3-0.3-0.3-0.6-0.2-1l-0.2-0.2c0,0-0.1,0-0.1,0h-0.4c0,0-0.1,0-0.1,0l-0.2,0.2
		c0.1,0.3,0,0.7-0.2,1C11,8,10.8,8.1,10.5,8.1C10.2,8.1,10,8,9.8,7.8c-0.4-0.4-0.4-1,0-1.4c0.3-0.3,0.6-0.3,1-0.2L11,5.9
		c0,0,0-0.1,0-0.1V5.4c0,0,0-0.1,0-0.1l-0.2-0.2c-0.1,0-0.2,0.1-0.3,0.1C10.2,5.1,10,5,9.8,4.8C9.6,4.6,9.5,4.4,9.5,4.1
		c0-0.3,0.1-0.5,0.3-0.7c0.4-0.4,1-0.4,1.4,0c0.2,0.2,0.3,0.4,0.3,0.7c0,0.1,0,0.2,0,0.3l0.2,0.2c0,0,0.1,0,0.1,0h0.4
		c0,0,0.1,0,0.1,0l0.2-0.2c0-0.1,0-0.2,0-0.3c0-0.3,0.1-0.5,0.3-0.7c0.4-0.4,1-0.4,1.4,0c0.2,0.2,0.3,0.4,0.3,0.7
		c0,0.3-0.1,0.5-0.3,0.7C14,5,13.8,5.1,13.5,5.1c-0.1,0-0.2,0-0.3-0.1L13,5.4C13,5.3,13,5.3,13,5.4z"/>
	<path d="M4.3,10.1h0.9v-9H4.3c-0.7,0-1.2,0.5-1.2,1.2v6.6C3.1,9.6,3.7,10.1,4.3,10.1z"/>
	<path d="M20.9,8.9V2.3c0-0.7-0.5-1.2-1.2-1.2h-0.9v9h0.9C20.3,10.1,20.9,9.6,20.9,8.9z"/>
	<path d="M22.3,18.4c-0.8-1.9-1.9-3.7-2.7-4.4c-1.3-1.3-3.6-1.5-5.1-0.4c-0.1,0.1-0.2,0.1-0.3,0.1h-0.1H9.9H9.8
		c-0.1,0-0.2,0-0.3-0.1C8,12.5,5.7,12.7,4.4,14c-0.8,0.8-1.9,2.5-2.7,4.4c-0.8,2-0.9,3.5-0.3,4.1c0.3,0.3,0.7,0.4,1.2,0.4
		c1.5,0,3.7-0.9,5.1-1.8c0.4-0.3,0.9-0.7,0.9-1c0-0.3,0.2-0.5,0.5-0.5c0.3,0,0.5,0.2,0.5,0.5c0,0.3-0.1,0.5-0.2,0.8h4.9
		c-0.1-0.2-0.2-0.5-0.2-0.8c0-0.3,0.2-0.5,0.5-0.5c0.3,0,0.5,0.2,0.5,0.5c0,0.3,0.5,0.8,0.9,1c1.5,0.9,3.6,1.8,5.2,1.8
		c0.6,0,1-0.1,1.2-0.4C23.1,21.9,23,20.4,22.3,18.4z M4.6,16.9c-0.3,0-0.5-0.3-0.5-0.5c0-0.3,0.3-0.5,0.5-0.5c0.3,0,0.5,0.3,0.5,0.5
		C5.2,16.6,4.9,16.9,4.6,16.9z M6.2,18.5c-0.3,0-0.5-0.3-0.5-0.5c0-0.3,0.3-0.5,0.5-0.5c0.3,0,0.5,0.3,0.5,0.5
		C6.7,18.2,6.5,18.5,6.2,18.5z M6.2,15.3c-0.3,0-0.5-0.3-0.5-0.5c0-0.3,0.3-0.5,0.5-0.5c0.3,0,0.5,0.3,0.5,0.5
		C6.7,15.1,6.5,15.3,6.2,15.3z M7.7,16.9c-0.3,0-0.5-0.3-0.5-0.5c0-0.3,0.3-0.5,0.5-0.5c0.3,0,0.5,0.3,0.5,0.5
		C8.3,16.6,8,16.9,7.7,16.9z M16.3,16.9c-0.3,0-0.5-0.3-0.5-0.5c0-0.3,0.3-0.5,0.5-0.5c0.3,0,0.5,0.3,0.5,0.5
		C16.8,16.6,16.5,16.9,16.3,16.9z M17.8,18.5c-0.3,0-0.5-0.3-0.5-0.5c0-0.3,0.3-0.5,0.5-0.5c0.3,0,0.5,0.3,0.5,0.5
		C18.4,18.2,18.1,18.5,17.8,18.5z M17.8,15.3c-0.3,0-0.5-0.3-0.5-0.5c0-0.3,0.3-0.5,0.5-0.5c0.3,0,0.5,0.3,0.5,0.5
		C18.4,15.1,18.1,15.3,17.8,15.3z M19.4,16.9c-0.3,0-0.5-0.3-0.5-0.5c0-0.3,0.3-0.5,0.5-0.5c0.3,0,0.5,0.3,0.5,0.5
		C19.9,16.6,19.7,16.9,19.4,16.9z"/>
</g>
</svg>
