<?xml version="1.0" encoding="utf-8"?>
<!-- Generator: Adobe Illustrator 21.0.0, SVG Export Plug-In . SVG Version: 6.00 Build 0)  -->
<svg version="1.1" id="Layer_1" xmlns="http://www.w3.org/2000/svg" xmlns:xlink="http://www.w3.org/1999/xlink" x="0px" y="0px"
	 viewBox="0 0 24 24" style="enable-background:new 0 0 24 24;" xml:space="preserve">
<g>
	<path d="M11.2,12.5c0.3,0,0.7,0.1,1,0.1c0.3,0,0.6,0,0.9,0.1c0,0,0,0,0.1,0c0.2,0,0.5-0.2,0.5-0.4c0-0.3-0.2-0.5-0.4-0.5
		c-0.3,0-0.7-0.1-1-0.1c-0.3,0-0.6,0-0.9-0.1c-0.3,0-0.5,0.1-0.5,0.4C10.8,12.2,11,12.5,11.2,12.5z"/>
	<path d="M6.2,9.6c0.1,0.1,0.2,0.2,0.4,0.2c0.1,0,0.2,0,0.3-0.1C7.1,9.5,7.1,9.2,6.9,9C6.6,8.5,6.3,8,6.1,7.5C6,7.2,5.7,7.1,5.4,7.2
		C5.2,7.3,5.1,7.6,5.2,7.9C5.4,8.5,5.8,9.1,6.2,9.6z"/>
	<path d="M9.3,12c0.1,0,0.1,0,0.2,0c0.2,0,0.4-0.1,0.5-0.3c0.1-0.2,0-0.5-0.3-0.6c-0.5-0.2-1-0.5-1.5-0.9c-0.2-0.2-0.5-0.1-0.7,0.1
		c-0.2,0.2-0.1,0.5,0.1,0.7C8.1,11.4,8.7,11.7,9.3,12z"/>
	<path d="M5.6,5.8c0-0.3-0.1-0.6-0.1-0.9c0-0.3-0.2-0.5-0.5-0.5c-0.3,0-0.5,0.2-0.5,0.5c0,0.3,0,0.7,0.1,1c0,0.2,0.2,0.4,0.5,0.4
		c0,0,0,0,0.1,0C5.4,6.3,5.6,6.1,5.6,5.8z"/>
	<path d="M15.2,12.2c-0.2-0.1-0.5,0-0.6,0.3c-0.1,0.2,0,0.5,0.3,0.6c0.5,0.2,1,0.5,1.5,0.9c0.1,0.1,0.2,0.1,0.3,0.1
		c0.1,0,0.3-0.1,0.4-0.2c0.2-0.2,0.1-0.5-0.1-0.7C16.4,12.8,15.9,12.5,15.2,12.2z"/>
	<path d="M18.9,17c0.1,0,0.1,0,0.2,0c0.2-0.1,0.4-0.4,0.3-0.6c-0.3-0.6-0.6-1.2-1-1.7c-0.2-0.2-0.5-0.3-0.7-0.1
		c-0.2,0.2-0.3,0.5-0.1,0.7c0.4,0.5,0.7,1,0.9,1.5C18.6,16.9,18.7,17,18.9,17z"/>
	<path d="M18.9,18.4c0,0.3,0.1,0.6,0.1,0.9c0,0.3,0.2,0.5,0.5,0.5c0.3,0,0.5-0.2,0.5-0.5c0-0.3,0-0.7-0.1-1c0-0.3-0.3-0.5-0.5-0.4
		C19.1,17.9,18.9,18.1,18.9,18.4z"/>
	<path d="M3.2,4.4c0.1,0.1,0.2,0.1,0.3,0.1s0.3,0,0.3-0.1l1.2-1.2l1.2,1.2c0.1,0.1,0.2,0.1,0.3,0.1s0.3,0,0.3-0.1
		c0.2-0.2,0.2-0.5,0-0.7L5.7,2.5l1.2-1.2c0.2-0.2,0.2-0.5,0-0.7c-0.2-0.2-0.5-0.2-0.7,0L5.1,1.8L3.9,0.6c-0.2-0.2-0.5-0.2-0.7,0
		C3,0.8,3,1.1,3.2,1.3l1.2,1.2L3.2,3.7C3,3.9,3,4.2,3.2,4.4z"/>
	<path d="M19.5,20.6c-0.8,0-1.5,0.7-1.5,1.5c0,0.8,0.7,1.5,1.5,1.5c0.8,0,1.5-0.7,1.5-1.5C21,21.2,20.3,20.6,19.5,20.6z M19.5,22.5
		c-0.3,0-0.5-0.2-0.5-0.5c0-0.3,0.2-0.5,0.5-0.5c0.3,0,0.5,0.2,0.5,0.5C20,22.3,19.8,22.5,19.5,22.5z"/>
	<path d="M18.9,6.4l-0.8-0.8c0-0.1,0.1-0.2,0.1-0.3V4.4c0-0.1,0-0.2-0.1-0.3l0.8-0.8c0.2,0.1,0.4,0.1,0.6,0.1c0.4,0,0.8-0.2,1-0.4
		C20.8,2.7,21,2.3,21,2c0-0.4-0.2-0.8-0.4-1c-0.5-0.5-1.5-0.6-2.1,0C18.2,1.2,18,1.6,18,2c0,0.2,0.1,0.4,0.1,0.6l-0.8,0.8
		c-0.1,0-0.2-0.1-0.3-0.1h-0.8c-0.1,0-0.2,0-0.3,0.1l-0.8-0.8c0.1-0.2,0.1-0.4,0.1-0.6c0-0.4-0.2-0.8-0.4-1c-0.6-0.5-1.5-0.5-2.1,0
		c-0.3,0.3-0.4,0.6-0.4,1c0,0.4,0.2,0.8,0.4,1c0.3,0.3,0.6,0.4,1,0.4c0.2,0,0.4-0.1,0.6-0.1l0.8,0.8c0,0.1-0.1,0.2-0.1,0.3v0.8
		c0,0.1,0,0.2,0.1,0.3l-0.8,0.8c-0.5-0.2-1.2-0.2-1.6,0.3c-0.3,0.3-0.4,0.6-0.4,1c0,0.4,0.2,0.8,0.4,1c0.3,0.3,0.6,0.4,1,0.4
		c0.4,0,0.8-0.2,1-0.4c0.4-0.4,0.5-1.1,0.3-1.6l0.8-0.8c0.1,0,0.2,0.1,0.3,0.1h0.8c0.1,0,0.2,0,0.3-0.1L18.2,7
		c-0.3,0.5-0.2,1.2,0.3,1.6c0.3,0.3,0.6,0.4,1,0.4c0.4,0,0.8-0.1,1-0.4c0.3-0.3,0.4-0.6,0.4-1c0-0.4-0.2-0.8-0.4-1
		C20.1,6.2,19.4,6.1,18.9,6.4z M19.2,1.6c0.1-0.1,0.2-0.1,0.3-0.1c0.1,0,0.2,0,0.3,0.1C19.9,1.7,20,1.8,20,2c0,0.1,0,0.2-0.1,0.3
		c-0.1,0.1-0.3,0.2-0.5,0.1c0-0.1-0.1-0.1-0.1-0.2c-0.1-0.1-0.1-0.1-0.2-0.1C19,2,19,2,19,2C19,1.8,19.1,1.7,19.2,1.6z M13.5,2.3
		c-0.1-0.1-0.1-0.2-0.1-0.3c0-0.1,0-0.2,0.1-0.3c0.1-0.1,0.2-0.1,0.3-0.1c0.1,0,0.2,0.1,0.3,0.1c0.1,0.1,0.1,0.2,0.1,0.3
		c0,0,0,0.1,0,0.1c-0.1,0-0.1,0.1-0.2,0.1c-0.1,0.1-0.1,0.1-0.1,0.2C13.8,2.4,13.6,2.4,13.5,2.3z M14.1,8c-0.2,0.2-0.5,0.2-0.7,0
		c-0.1-0.1-0.1-0.2-0.1-0.3c0-0.1,0-0.2,0.1-0.3c0.1-0.1,0.2-0.1,0.3-0.1c0,0,0.1,0,0.1,0c0,0.1,0.1,0.1,0.1,0.2
		c0.1,0.1,0.1,0.1,0.2,0.1C14.3,7.7,14.3,7.9,14.1,8z M19.8,8c-0.2,0.2-0.5,0.2-0.7,0C19,7.9,19,7.7,19,7.5c0.1,0,0.1-0.1,0.2-0.1
		c0.1-0.1,0.1-0.1,0.1-0.2c0,0,0.1,0,0.1,0c0.1,0,0.2,0.1,0.3,0.1C19.9,7.4,20,7.5,20,7.7C20,7.8,19.9,7.9,19.8,8z"/>
	<path d="M13.8,19.6h-2.7v-1.1c0-0.3-0.2-0.5-0.5-0.5H9.3v-4.1c0-0.3-0.2-0.5-0.5-0.5H5.3c-0.3,0-0.5,0.2-0.5,0.5v2.7H3.5
		c-0.3,0-0.5,0.2-0.5,0.5V23c0,0.3,0.2,0.5,0.5,0.5h10.2c0.3,0,0.5-0.2,0.5-0.5v-3C14.3,19.8,14,19.6,13.8,19.6z"/>
</g>
</svg>
