<?xml version="1.0" encoding="utf-8"?>
<!-- Generator: Adobe Illustrator 21.0.0, SVG Export Plug-In . SVG Version: 6.00 Build 0)  -->
<svg version="1.1" id="Layer_1" xmlns="http://www.w3.org/2000/svg" xmlns:xlink="http://www.w3.org/1999/xlink" x="0px" y="0px"
	 viewBox="0 0 24 24" style="enable-background:new 0 0 24 24;" xml:space="preserve">
<g>
	<path d="M9.3,3L10,3.7l3.2-3.2H12C5.7,0.5,0.5,5.7,0.5,12v0.5h1V12c0-5.4,4.1-9.9,9.3-10.5L9.3,3z"/>
	<path d="M22.5,11.5V12c0,5.4-4.1,9.9-9.3,10.5l1.5-1.5L14,20.3l-3.2,3.2H12c6.3,0,11.5-5.2,11.5-11.5v-0.5H22.5z"/>
	<path d="M11.3,13.4c0.1,0,0.2,0.1,0.3,0.1h0.8c0.1,0,0.2,0,0.3-0.1l0.8,0.8c-0.2,0.5-0.2,1.2,0.3,1.6c0.3,0.3,0.6,0.4,1,0.4
		c0.4,0,0.7-0.1,1-0.4c0.3-0.3,0.4-0.6,0.4-1c0-0.4-0.1-0.7-0.4-1c-0.4-0.4-1.1-0.5-1.6-0.3l-0.8-0.8c0-0.1,0.1-0.2,0.1-0.3v-0.8
		c0-0.1,0-0.2-0.1-0.3l0.8-0.7c0.2,0.1,0.4,0.1,0.6,0.1c0.4,0,0.7-0.1,1-0.4c0.3-0.3,0.4-0.6,0.4-1c0-0.4-0.1-0.7-0.4-1c0,0,0,0,0,0
		l0,0c0,0,0,0,0,0c0,0,0,0,0,0c0,0-0.1-0.1-0.1-0.1c-0.5-0.4-1.3-0.4-1.8,0.1c-0.4,0.4-0.5,1.1-0.3,1.6l-0.8,0.8
		c-0.1,0-0.2-0.1-0.3-0.1h-0.8c-0.1,0-0.2,0-0.3,0.1l-0.8-0.8c0.2-0.5,0.2-1.1-0.3-1.6C9.8,7.8,9,7.8,8.5,8.2
		c-0.1,0-0.1,0.1-0.2,0.1C8,8.5,7.9,8.9,7.9,9.3c0,0.4,0.1,0.7,0.4,1c0.3,0.3,0.6,0.4,1,0.4c0.2,0,0.4,0,0.6-0.1l0.8,0.7
		c0,0.1-0.1,0.2-0.1,0.3v0.8c0,0.1,0,0.2,0.1,0.3l-0.8,0.8c-0.5-0.2-1.2-0.1-1.6,0.3c-0.5,0.5-0.5,1.4,0,2c0.3,0.3,0.6,0.4,1,0.4
		c0.4,0,0.7-0.1,1-0.4c0.4-0.4,0.5-1.1,0.3-1.6L11.3,13.4z"/>
</g>
</svg>
