<?xml version="1.0" encoding="utf-8"?>
<!-- Generator: Adobe Illustrator 21.0.0, SVG Export Plug-In . SVG Version: 6.00 Build 0)  -->
<svg version="1.1" id="Layer_1" xmlns="http://www.w3.org/2000/svg" xmlns:xlink="http://www.w3.org/1999/xlink" x="0px" y="0px"
	 viewBox="0 0 24 24" style="enable-background:new 0 0 24 24;" xml:space="preserve">
<g>
	<g>
		<g>
			<g>
				<path d="M18.2,6.6H5.8c-0.1,0-0.3-0.1-0.4-0.2C5.3,6.3,5.3,6.1,5.3,6C6,2.8,8.8,0.5,12,0.5c3.2,0,6,2.3,6.7,5.5
					c0,0.1,0,0.3-0.1,0.4C18.5,6.5,18.3,6.6,18.2,6.6z M6.4,5.6h11.2c-0.7-2.4-3-4.1-5.6-4.1S7.2,3.2,6.4,5.6z"/>
			</g>
			<g>
				<path d="M14.8,6.6H9.2C9.1,6.6,9,6.5,8.9,6.4C8.8,6.3,8.8,6.2,8.8,6C9,2.8,10.4,0.5,12,0.5c1.6,0,3,2.3,3.2,5.5
					c0,0.1,0,0.3-0.1,0.4C15,6.5,14.9,6.6,14.8,6.6z M9.8,5.6h4.4C13.9,3,12.9,1.5,12,1.5C11.1,1.5,10.1,3,9.8,5.6z"/>
			</g>
		</g>
		<g>
			<g>
				<path d="M12,10.3c-0.1,0-0.2-0.1-0.3-0.1L8,6.5C7.8,6.3,7.8,6,8,5.8c0.2-0.2,0.5-0.2,0.7,0L12,9.2l3.3-3.3
					c0.2-0.2,0.5-0.2,0.7,0s0.2,0.5,0,0.7l-3.7,3.7C12.2,10.3,12.1,10.3,12,10.3z"/>
			</g>
			<g>
				<path d="M12,9.8c-0.3,0-0.5-0.2-0.5-0.5V6.1c0-0.3,0.2-0.5,0.5-0.5c0.3,0,0.5,0.2,0.5,0.5v3.3C12.5,9.6,12.3,9.8,12,9.8z"/>
			</g>
		</g>
	</g>
	<g>
		<path d="M13.8,16.6c0-0.5-0.2-0.9-0.5-1.3c-0.3-0.3-0.8-0.5-1.3-0.5c-0.5,0-0.9,0.2-1.3,0.5l0,0c-0.7,0.7-0.7,1.8,0,2.5l0,0
			c0.7,0.7,1.9,0.7,2.5,0C13.6,17.5,13.8,17.1,13.8,16.6z"/>
		<path d="M18.4,9.7H5.6c-0.3,0-0.5,0.2-0.5,0.5V23c0,0.3,0.2,0.5,0.5,0.5h12.9c0.3,0,0.5-0.2,0.5-0.5V10.2
			C18.9,9.9,18.7,9.7,18.4,9.7z M14.8,16.6c0,0.6-0.2,1.1-0.5,1.6l0.9,0.9l-0.7,0.7l-0.9-0.9c-0.5,0.3-1,0.5-1.6,0.5
			c-0.6,0-1.1-0.2-1.6-0.5l-0.9,0.9L8.9,19l0.9-0.9c-0.7-0.9-0.7-2.2,0-3.2l-0.9-0.9l0.7-0.7l0.9,0.9c0.9-0.6,2.2-0.6,3.1,0l0.9-0.9
			l0.7,0.7L14.3,15C14.6,15.5,14.8,16,14.8,16.6z"/>
	</g>
</g>
</svg>
