<?xml version="1.0" encoding="utf-8"?>
<!-- Generator: Adobe Illustrator 21.0.0, SVG Export Plug-In . SVG Version: 6.00 Build 0)  -->
<svg version="1.1" id="Layer_1" xmlns="http://www.w3.org/2000/svg" xmlns:xlink="http://www.w3.org/1999/xlink" x="0px" y="0px"
	 viewBox="0 0 24 24" style="enable-background:new 0 0 24 24;" xml:space="preserve">
<g>
	<rect x="11" y="13.8" width="2" height="0.7"/>
	<path d="M18.4,9.7h-5.6L16,6.6h2.2c0.1,0,0.3-0.1,0.4-0.2c0.1-0.1,0.1-0.3,0.1-0.4C18,2.8,15.2,0.5,12,0.5C8.8,0.5,6,2.8,5.3,6
		c0,0.1,0,0.3,0.1,0.4c0.1,0.1,0.2,0.2,0.4,0.2H8l3.1,3.1H5.6c-0.3,0-0.5,0.2-0.5,0.5V23c0,0.3,0.2,0.5,0.5,0.5h12.9
		c0.3,0,0.5-0.2,0.5-0.5V10.2C18.9,9.9,18.7,9.7,18.4,9.7z M12.5,8.7V6.6h2.1L12.5,8.7z M17.6,5.6h-2.4C15,4,14.5,2.7,13.9,1.8
		C15.7,2.4,17,3.8,17.6,5.6z M12,1.5c0.9,0,1.9,1.5,2.2,4.1H9.8C10.1,3,11.1,1.5,12,1.5z M6.4,5.6C7,3.8,8.3,2.4,10.1,1.8
		C9.5,2.7,9,4,8.8,5.6H6.4z M9.4,6.6h2.1v2.1L9.4,6.6z M16.7,19.8c0,0.3-0.2,0.5-0.5,0.5H7.8c-0.3,0-0.5-0.2-0.5-0.5V15
		c0-0.3,0.2-0.5,0.5-0.5H10v-1.2c0-0.3,0.2-0.5,0.5-0.5h2.9c0.3,0,0.5,0.2,0.5,0.5v1.2h2.2c0.3,0,0.5,0.2,0.5,0.5V19.8z"/>
</g>
</svg>
