<?xml version="1.0" encoding="utf-8"?>
<!-- Generator: Adobe Illustrator 21.0.0, SVG Export Plug-In . SVG Version: 6.00 Build 0)  -->
<svg version="1.1" id="Layer_1" xmlns="http://www.w3.org/2000/svg" xmlns:xlink="http://www.w3.org/1999/xlink" x="0px" y="0px"
	 viewBox="0 0 24 24" style="enable-background:new 0 0 24 24;" xml:space="preserve">
<g>
	<path d="M10,10.3c0,0-0.1-0.1-0.1-0.1c0,0-0.1,0-0.1,0.1c-0.1,0.1-0.1,0.1-0.1,0.2c0,0,0,0.1,0.1,0.2c0.1,0.1,0.2,0.1,0.3,0
		c0,0,0.1-0.1,0.1-0.2C10,10.4,10,10.4,10,10.3z"/>
	<path d="M10,6.2c0,0,0.1-0.1,0.1-0.1c0,0,0-0.1-0.1-0.2C10,6,9.9,5.9,9.9,5.9c0,0-0.1,0-0.2,0.1C9.7,6.1,9.7,6.1,9.7,6.2
		c0,0,0,0.1,0.1,0.1c0.1,0.1,0.1,0.1,0.1,0.1C9.9,6.3,9.9,6.3,10,6.2z"/>
	<path d="M14,6.2c0,0,0.1,0.1,0.1,0.1c0,0,0.1,0,0.1-0.1c0.1-0.1,0.1-0.1,0.1-0.2c0,0,0-0.1-0.1-0.2c-0.1-0.1-0.1-0.1-0.2-0.1
		c0,0-0.1,0-0.2,0.1c-0.1,0.1-0.1,0.1-0.1,0.1C14,6.2,14,6.2,14,6.2z"/>
	<path d="M17.9,2.4h-1.6V0.9c0-0.3-0.2-0.5-0.5-0.5H8.2c-0.3,0-0.5,0.2-0.5,0.5v1.5H6.1c-0.3,0-0.5,0.2-0.5,0.5v20.2
		c0,0.3,0.2,0.5,0.5,0.5h11.8c0.3,0,0.5-0.2,0.5-0.5V2.9C18.4,2.7,18.2,2.4,17.9,2.4z M13.4,17.5L11.5,21c-0.1,0.2-0.3,0.3-0.4,0.3
		c-0.1,0-0.2,0-0.2-0.1c-0.2-0.1-0.3-0.4-0.2-0.7l1.5-2.7H11c-0.3,0-0.5-0.2-0.5-0.5c0,0,0,0,0,0c0-0.1,0-0.2,0.1-0.3l1.9-3.5
		c0.1-0.2,0.4-0.3,0.7-0.2c0.2,0.1,0.3,0.4,0.2,0.7l-1.5,2.7H13c0.3,0,0.5,0.2,0.5,0.5c0,0,0,0,0,0C13.5,17.3,13.5,17.4,13.4,17.5z
		 M13.2,8v0.6c0,0.1,0,0.1,0,0.2l0.5,0.5c0.4-0.2,0.9-0.1,1.3,0.3c0.2,0.2,0.4,0.5,0.4,0.9c0,0.3-0.1,0.6-0.4,0.9
		c-0.2,0.2-0.5,0.4-0.9,0.4c-0.3,0-0.6-0.1-0.9-0.4c-0.4-0.4-0.4-0.9-0.3-1.3l-0.5-0.5c-0.1,0-0.1,0-0.2,0h-0.6c-0.1,0-0.1,0-0.2,0
		L11,10c0.2,0.4,0.1,0.9-0.3,1.3c-0.2,0.2-0.5,0.4-0.9,0.4c-0.3,0-0.6-0.1-0.9-0.4c-0.2-0.2-0.4-0.5-0.4-0.9c0-0.3,0.1-0.6,0.4-0.9
		c0.2-0.2,0.5-0.4,0.9-0.4c0.1,0,0.3,0,0.4,0.1l0.5-0.5c0-0.1,0-0.1,0-0.2V8c0-0.1,0-0.1,0-0.2l-0.5-0.5C10.2,7.3,10,7.4,9.9,7.4
		C9.5,7.4,9.2,7.3,9,7C8.8,6.8,8.7,6.5,8.7,6.2c0-0.3,0.1-0.6,0.4-0.9c0.5-0.5,1.3-0.5,1.7,0c0.2,0.2,0.4,0.5,0.4,0.9
		c0,0.1,0,0.3-0.1,0.4l0.5,0.5c0.1,0,0.1,0,0.2,0h0.6c0.1,0,0.1,0,0.2,0L13,6.6c-0.1-0.1-0.1-0.3-0.1-0.4c0-0.3,0.1-0.6,0.4-0.9
		c0.5-0.5,1.3-0.5,1.7,0c0.2,0.2,0.4,0.5,0.4,0.9c0,0.3-0.1,0.6-0.4,0.9c-0.2,0.2-0.5,0.4-0.9,0.4c-0.1,0-0.3,0-0.4-0.1l-0.5,0.5
		C13.2,7.8,13.2,7.9,13.2,8z"/>
	<path d="M14,10.3c0,0-0.1,0.1-0.1,0.1c0,0.1,0,0.1,0.1,0.2c0.1,0.1,0.2,0.1,0.3,0c0.1-0.1,0.1-0.1,0.1-0.2c0,0,0-0.1-0.1-0.2
		c-0.1-0.1-0.1-0.1-0.2-0.1C14.1,10.2,14.1,10.3,14,10.3z"/>
</g>
</svg>
