<?xml version="1.0" encoding="utf-8"?>
<!-- Generator: Adobe Illustrator 21.0.0, SVG Export Plug-In . SVG Version: 6.00 Build 0)  -->
<svg version="1.1" id="Layer_1" xmlns="http://www.w3.org/2000/svg" xmlns:xlink="http://www.w3.org/1999/xlink" x="0px" y="0px"
	 viewBox="0 0 24 24" style="enable-background:new 0 0 24 24;" xml:space="preserve">
<g>
	<path d="M4.5,4.5c2-2,4.7-3.1,7.5-3.1c2.4,0,4.7,0.8,6.6,2.3h-2.1v1H21l-0.8-0.8C18,1.7,15.1,0.5,12,0.5S6,1.7,3.8,3.8L3.5,4.2
		l0.7,0.7L4.5,4.5z"/>
	<path d="M19.5,19.5c-3.8,3.8-9.9,4.1-14,0.8h2.1v-1H3l0.8,0.8c2.2,2.2,5.2,3.4,8.2,3.4s5.9-1.1,8.2-3.4l0.3-0.3l-0.7-0.7L19.5,19.5
		z"/>
	<path d="M3.4,16.4V16h1.4c0.3,0,0.5-0.2,0.5-0.5c0-0.3-0.2-0.5-0.5-0.5H1c-0.3,0-0.5,0.2-0.5,0.5C0.5,15.7,0.7,16,1,16h1.4v0.4
		c0,0.3,0.2,0.5,0.5,0.5C3.2,16.9,3.4,16.7,3.4,16.4z"/>
	<path d="M1,9h1.4l0,0.8c-0.9,0-1.7,0.8-1.7,1.7l0,1.3c0,0.5,0.2,0.9,0.5,1.2c0.3,0.3,0.8,0.5,1.2,0.5l1.2,0c0.6,0,1.1-0.3,1.4-0.8
		c1.1,0.5,2.5,0.8,3.3,1c0.5,1,1.9,1.7,3.5,1.7c1.7,0,3.1-0.7,3.5-1.7c0.8-0.2,2.2-0.5,3.3-1c0.3,0.5,0.8,0.8,1.4,0.8l1.2,0
		c0.5,0,0.9-0.2,1.2-0.5c0.3-0.3,0.5-0.8,0.5-1.2l0-1.3c0-0.9-0.7-1.7-1.7-1.7V9H23c0.3,0,0.5-0.2,0.5-0.5S23.3,8,23,8l-3.8,0
		c-0.3,0-0.5,0.2-0.5,0.5c0,0.3,0.2,0.5,0.5,0.5l1.4,0v0.8h-0.4c-0.6,0-1.1,0.3-1.4,0.7C17,9.8,14.1,9.2,13,9.2
		c-0.3,0-0.7,0.1-1,0.2c-0.3-0.1-0.7-0.2-1-0.2c-1,0-4,0.6-5.8,1.3c-0.3-0.5-0.8-0.7-1.4-0.7H3.4l0-0.8h1.4c0.3,0,0.5-0.2,0.5-0.5
		S5.1,8,4.8,8H1C0.7,8,0.5,8.3,0.5,8.5S0.7,9,1,9z M10.4,12h3.3c0.3,0,0.5,0.2,0.5,0.5c0,0.3-0.2,0.5-0.5,0.5h-3.3
		c-0.3,0-0.5-0.2-0.5-0.5C9.9,12.2,10.1,12,10.4,12z"/>
	<path d="M23,15h-3.8c-0.3,0-0.5,0.2-0.5,0.5c0,0.3,0.2,0.5,0.5,0.5h1.4v0.4c0,0.3,0.2,0.5,0.5,0.5c0.3,0,0.5-0.2,0.5-0.5V16H23
		c0.3,0,0.5-0.2,0.5-0.5C23.5,15.2,23.3,15,23,15z"/>
</g>
</svg>
