<?xml version="1.0" encoding="utf-8"?>
<!-- Generator: Adobe Illustrator 21.0.0, SVG Export Plug-In . SVG Version: 6.00 Build 0)  -->
<svg version="1.1" id="Layer_1" xmlns="http://www.w3.org/2000/svg" xmlns:xlink="http://www.w3.org/1999/xlink" x="0px" y="0px"
	 viewBox="0 0 24 24" style="enable-background:new 0 0 24 24;" xml:space="preserve">
<g>
	<path d="M4.1,7.7L3.3,6.1C2.9,5.3,3,4.3,3.6,3.7C4.3,3,5.3,2.9,6.1,3.3l1.6,0.8C7.6,3.4,7.3,2.6,6.7,2.1c-0.6-0.6-1.4-1-2.3-1
		c-0.9,0-1.7,0.3-2.3,1c-1.3,1.3-1.3,3.4,0,4.6C2.6,7.3,3.3,7.6,4.1,7.7z"/>
	<path d="M6.1,20.7c-0.2,0.1-0.4,0.2-0.6,0.2c0,0-0.1,0-0.1,0c-0.1,0-0.2,0-0.3,0c-0.3,0-0.6-0.1-0.9-0.2c0,0,0,0,0,0
		c-0.2-0.1-0.4-0.2-0.5-0.4c-0.6-0.6-0.8-1.6-0.4-2.4l0.8-1.6c-0.8,0.1-1.5,0.4-2.1,0.9c-1.3,1.3-1.3,3.4,0,4.6
		c1.2,1.2,3.4,1.2,4.6,0c0.6-0.6,0.9-1.3,0.9-2.1l-0.8,0.4L6.1,20.7z"/>
	<path d="M17.9,3.3C17.9,3.3,17.9,3.3,17.9,3.3c0.2-0.1,0.4-0.2,0.6-0.2c0,0,0.1,0,0.1,0c0.1,0,0.2,0,0.3,0c0.3,0,0.6,0.1,0.9,0.2
		c0,0,0,0,0,0c0.2,0.1,0.4,0.2,0.5,0.4c0.6,0.6,0.8,1.6,0.4,2.4l-0.8,1.6c0.8-0.1,1.5-0.4,2.1-0.9c0.6-0.6,1-1.4,1-2.3
		c0-0.9-0.3-1.7-1-2.3c-1.2-1.2-3.4-1.2-4.6,0c-0.6,0.6-0.9,1.3-0.9,2.1l0.9-0.5L17.9,3.3z"/>
	<path d="M19.9,16.4l0.8,1.6c0.4,0.8,0.3,1.8-0.4,2.4c-0.2,0.2-0.3,0.3-0.5,0.4c0,0,0,0,0,0c-0.3,0.1-0.6,0.2-0.9,0.2
		c-0.1,0-0.2,0-0.3,0c0,0-0.1,0-0.1,0c-0.2,0-0.4-0.1-0.6-0.2l-1.6-0.8c0.1,0.8,0.4,1.5,0.9,2.1c1.2,1.2,3.4,1.2,4.6,0
		c0.6-0.6,1-1.4,1-2.3c0-0.9-0.3-1.7-1-2.3C21.4,16.8,20.7,16.4,19.9,16.4z"/>
	<path d="M18.7,20C18.7,20,18.7,20,18.7,20c0.1,0,0.2,0,0.3,0c0.1,0,0.1,0,0.2,0c0.1,0,0.1,0,0.2,0c0.1-0.1,0.2-0.1,0.3-0.2
		c0.3-0.3,0.4-0.8,0.2-1.3l-1.2-2.3l0,0l-2.1-3.9c-0.1-0.1-0.1-0.3,0-0.5l2.1-3.9c0,0,0,0,0,0l1.2-2.3c0.2-0.4,0.1-0.9-0.2-1.3
		C19.3,4,18.8,4,18.4,4.2l-6.2,3.3c-0.1,0.1-0.3,0.1-0.5,0L5.6,4.2c0,0,0,0,0,0c-0.1,0-0.2-0.1-0.3-0.1c0,0,0,0,0,0
		c-0.1,0-0.2,0-0.2,0c-0.1,0-0.1,0-0.2,0c-0.1,0-0.1,0-0.2,0.1C4.5,4.2,4.4,4.3,4.3,4.4C4,4.7,3.9,5.2,4.2,5.6l1.2,2.3l0,0l2.1,3.9
		c0.1,0.1,0.1,0.3,0,0.5l-2.1,3.9v0l-1.2,2.3c-0.2,0.4-0.1,0.9,0.2,1.3c0.3,0.3,0.8,0.4,1.3,0.2l6.2-3.3c0.1-0.1,0.3-0.1,0.5,0
		l6.2,3.3C18.5,19.9,18.6,19.9,18.7,20z M10,14.4H9.3c-0.3,0-0.5-0.2-0.5-0.5c0-0.3,0.2-0.5,0.5-0.5H10c0.3,0,0.5,0.2,0.5,0.5
		C10.5,14.2,10.3,14.4,10,14.4z M10,12.5H9.3c-0.3,0-0.5-0.2-0.5-0.5c0-0.3,0.2-0.5,0.5-0.5H10c0.3,0,0.5,0.2,0.5,0.5
		C10.5,12.3,10.3,12.5,10,12.5z M10,10.7H9.3c-0.3,0-0.5-0.2-0.5-0.5c0-0.3,0.2-0.5,0.5-0.5H10c0.3,0,0.5,0.2,0.5,0.5
		C10.5,10.4,10.3,10.7,10,10.7z M13.3,14c-1.1,0-1.9-0.9-1.9-1.9c0-1.1,0.9-1.9,1.9-1.9c1.1,0,1.9,0.9,1.9,1.9
		C15.2,13.1,14.4,14,13.3,14z"/>
</g>
</svg>
