<?xml version="1.0" encoding="utf-8"?>
<!-- Generator: Adobe Illustrator 21.0.0, SVG Export Plug-In . SVG Version: 6.00 Build 0)  -->
<svg version="1.1" id="Layer_1" xmlns="http://www.w3.org/2000/svg" xmlns:xlink="http://www.w3.org/1999/xlink" x="0px" y="0px"
	 viewBox="0 0 24 24" style="enable-background:new 0 0 24 24;" xml:space="preserve">
<g>
	<path d="M10.8,19.8v-5.2c0-0.2-0.1-0.3-0.2-0.4c-0.1-0.1-0.3-0.1-0.4-0.1l-0.9,0.4c-0.1,0-0.2,0.1-0.3,0.3l-0.7,1.6l-2.8-1.7
		l-0.8-3.1c0-0.1-0.1-0.2-0.1-0.2l-1.4-1.3C3,9.9,2.8,9.9,2.6,10c-0.2,0.1-0.3,0.2-0.3,0.4v5.8c0,0.1,0,0.2,0.1,0.3l3.9,4l-0.6,2.3
		c0,0.1,0,0.3,0.1,0.4c0.1,0.1,0.2,0.2,0.4,0.2h4.1c0,0,0,0,0,0c0.3,0,0.5-0.2,0.5-0.5c0-0.1,0-0.1,0-0.1L10.8,19.8z"/>
	<path d="M21.4,10c-0.2-0.1-0.4,0-0.5,0.1l-1.4,1.3c-0.1,0.1-0.1,0.1-0.1,0.2l-0.8,3.1l-2.8,1.7l-0.7-1.6c0-0.1-0.1-0.2-0.3-0.3
		l-0.9-0.4c-0.1-0.1-0.3,0-0.4,0.1c-0.1,0.1-0.2,0.2-0.2,0.4v4.3L13.1,23c0,0.1,0,0.3,0.1,0.3c0.1,0.1,0.2,0.1,0.3,0.1h4.1
		c0,0,0,0,0,0c0.3,0,0.5-0.2,0.5-0.5c0-0.1,0-0.2-0.1-0.2l-0.5-2.2l3.9-4c0.1-0.1,0.1-0.2,0.1-0.3v-5.8C21.7,10.2,21.6,10.1,21.4,10
		z"/>
	<path d="M2.5,8.8c0,0.3,0.2,0.5,0.5,0.5c0.3,0,0.5-0.2,0.5-0.5V8.4h1.4c0.3,0,0.5-0.2,0.5-0.5c0-0.3-0.2-0.5-0.5-0.5H1
		c-0.3,0-0.5,0.2-0.5,0.5c0,0.3,0.2,0.5,0.5,0.5h1.4V8.8z"/>
	<path d="M23,7.4h-3.8c-0.3,0-0.5,0.2-0.5,0.5c0,0.3,0.2,0.5,0.5,0.5h1.4v0.4c0,0.3,0.2,0.5,0.5,0.5c0.3,0,0.5-0.2,0.5-0.5V8.4H23
		c0.3,0,0.5-0.2,0.5-0.5C23.5,7.6,23.2,7.4,23,7.4z"/>
	<path d="M15.5,7.3c0.8-0.2,2.2-0.5,3.3-1C19.1,6.8,19.6,7,20.2,7h1.2c1,0,1.7-0.8,1.7-1.7V4c0-0.9-0.7-1.7-1.7-1.7V1.5H23
		c0.3,0,0.5-0.2,0.5-0.5c0-0.3-0.2-0.5-0.5-0.5h-3.8c-0.3,0-0.5,0.2-0.5,0.5c0,0.3,0.2,0.5,0.5,0.5h1.4v0.8h-0.4
		c-0.6,0-1.1,0.3-1.4,0.7C17,2.2,14,1.7,13,1.7c-0.3,0-0.7,0.1-1,0.2c-0.3-0.1-0.7-0.2-1-0.2c-1,0-4,0.5-5.8,1.3
		C4.9,2.5,4.3,2.2,3.8,2.2H3.4V1.5h1.4c0.3,0,0.5-0.2,0.5-0.5c0-0.3-0.2-0.5-0.5-0.5H1C0.8,0.5,0.5,0.7,0.5,1c0,0.3,0.2,0.5,0.5,0.5
		h1.4v0.8C1.5,2.3,0.8,3.1,0.8,4v1.3c0,1,0.8,1.7,1.7,1.7h1.2c0.6,0,1.1-0.3,1.4-0.7c1.1,0.5,2.5,0.8,3.3,1C8.9,8.3,10.4,9,12,9
		C13.6,9,15.1,8.3,15.5,7.3z M13.6,5.4h-3.2c-0.3,0-0.5-0.2-0.5-0.5c0-0.3,0.2-0.5,0.5-0.5h3.2c0.3,0,0.5,0.2,0.5,0.5
		C14.1,5.1,13.9,5.4,13.6,5.4z"/>
</g>
</svg>
