<?xml version="1.0" encoding="utf-8"?>
<!-- Generator: Adobe Illustrator 21.0.0, SVG Export Plug-In . SVG Version: 6.00 Build 0)  -->
<svg version="1.1" id="Layer_1" xmlns="http://www.w3.org/2000/svg" xmlns:xlink="http://www.w3.org/1999/xlink" x="0px" y="0px"
	 viewBox="0 0 24 24" style="enable-background:new 0 0 24 24;" xml:space="preserve">
<path d="M22,6.4c1.1-2.2,1.6-4.2,0.7-5.1c-0.2-0.2-0.5-0.2-0.7,0l-2.3,2.3c-2.1-2-4.9-3-7.8-3c-0.3,0-0.5,0.2-0.5,0.5
	c0,0.3,0.2,0.5,0.5,0.5c2.7,0,5.2,1,7.1,2.8l-0.5,0.5l-1.4,1.4c-1.5-1.3-3.3-2-5.3-2c-0.3,0-0.5,0.2-0.5,0.5C11.5,4.8,11.7,5,12,5
	c1.7,0,3.3,0.6,4.6,1.7l-1.2,1.2v0l-0.2,0.2c-0.2-0.2-0.3-0.4-0.5-0.6C13.1,5.9,5.8,0.8,2.6,0.8C2,0.8,1.6,1,1.3,1.3
	c-0.2,0.2-0.2,0.5,0,0.7l6.8,6.8C7.9,8.9,7.7,9.1,7.5,9.3C6.9,9.9,6,11,5,12.4c0-0.1,0-0.3,0-0.4c0-0.3-0.2-0.5-0.5-0.5
	c-0.3,0-0.5,0.2-0.5,0.5c0,0.5,0.1,1.1,0.2,1.6C4,14,3.8,14.4,3.6,14.7c0,0,0,0,0,0c0,0,0,0,0,0.1c-0.2,0.3-0.4,0.7-0.6,1
	c-0.2,0.3-0.3,0.5-0.4,0.8c-0.7-1.4-1.1-3-1.1-4.6c0-0.3-0.2-0.5-0.5-0.5c-0.3,0-0.5,0.2-0.5,0.5c0,2,0.5,3.9,1.5,5.6
	c-1.9,3.9-1,4.8-0.7,5.1c0.2,0.2,0.5,0.2,0.7,0l2.3-2.3c2.1,2,4.9,3,7.8,3c0.3,0,0.5-0.2,0.5-0.5c0-0.3-0.2-0.5-0.5-0.5
	c-2.7,0-5.2-1-7.1-2.8l1.2-1.2l0.7-0.7c1.5,1.3,3.3,2,5.3,2c0.3,0,0.5-0.2,0.5-0.5c0-0.3-0.2-0.5-0.5-0.5c-1.7,0-3.3-0.6-4.6-1.7
	l1.2-1.2l0.2-0.2c0.2,0.2,0.3,0.4,0.5,0.6c1.6,1.6,8.9,6.7,12.1,6.7c0.6,0,1-0.2,1.3-0.5c0.1-0.1,0.1-0.2,0.1-0.3
	c0-0.1-0.1-0.2-0.1-0.3l-6.8-6.8c0.2-0.2,0.4-0.3,0.6-0.5c0.4-0.4,1.4-1.6,2.4-3.2c0,0.2,0,0.3,0,0.5c0,0.3,0.2,0.5,0.5,0.5
	s0.5-0.2,0.5-0.5c0-0.5-0.1-1.1-0.2-1.6c0.2-0.4,0.5-0.7,0.7-1.1c0,0,0,0,0,0c0,0,0,0,0,0c0.4-0.6,0.7-1.2,1-1.8
	c0.7,1.4,1.1,3,1.1,4.6c0,0.3,0.2,0.5,0.5,0.5c0.3,0,0.5-0.2,0.5-0.5C23.5,10,23,8.1,22,6.4z M13.3,13.3c-0.3,0.3-0.8,0.5-1.3,0.5
	c-0.5,0-0.9-0.2-1.3-0.5c-0.7-0.7-0.7-1.8,0-2.5c0.7-0.7,1.9-0.7,2.5,0C14,11.4,14,12.6,13.3,13.3z"/>
</svg>
