<?xml version="1.0" encoding="utf-8"?>
<!-- Generator: Adobe Illustrator 21.0.0, SVG Export Plug-In . SVG Version: 6.00 Build 0)  -->
<svg version="1.1" id="Layer_1" xmlns="http://www.w3.org/2000/svg" xmlns:xlink="http://www.w3.org/1999/xlink" x="0px" y="0px"
	 viewBox="0 0 24 24" style="enable-background:new 0 0 24 24;" xml:space="preserve">
<g>
	<path d="M12,0.5c-0.3,0-0.5,0.2-0.5,0.5c0,0.3,0.2,0.5,0.5,0.5c2.7,0,5.2,1.1,7.1,2.8l-1.8,1.8c-1.5-1.3-3.3-2-5.3-2
		c-0.3,0-0.5,0.2-0.5,0.5C11.5,4.8,11.7,5,12,5c1.7,0,3.3,0.6,4.6,1.7l-1.2,1.2l-0.8,0.8L5.9,2.9C5.7,2.8,5.4,2.8,5.3,3L4.1,4.1
		C4.1,4.2,4,4.4,4,4.5c0,0.1,0.1,0.3,0.1,0.3l4.6,4.6l-3.3,4.9C5.2,13.6,5,12.8,5,12c0-0.3-0.2-0.5-0.5-0.5c-0.3,0-0.5,0.2-0.5,0.5
		c0,1.2,0.3,2.3,0.7,3.3l-1.6,2.4c-1.1-1.7-1.7-3.6-1.7-5.8c0-0.3-0.2-0.5-0.5-0.5c-0.3,0-0.5,0.2-0.5,0.5c0,6.3,5.2,11.5,11.5,11.5
		c0.3,0,0.5-0.2,0.5-0.5c0-0.3-0.2-0.5-0.5-0.5c-2.7,0-5.2-1.1-7.1-2.8l1.8-1.8c1.5,1.3,3.3,2,5.3,2c0.3,0,0.5-0.2,0.5-0.5
		c0-0.3-0.2-0.5-0.5-0.5c-1.7,0-3.3-0.6-4.6-1.7l1.2-1.2l0.8-0.8l8.7,5.8c0.1,0.1,0.2,0.1,0.3,0.1c0.1,0,0.2,0,0.3-0.1l1.1-1.1
		c0.1-0.1,0.1-0.2,0.1-0.3c0-0.1-0.1-0.3-0.1-0.3l-4.6-4.6l3.3-4.9c0.3,0.8,0.4,1.6,0.4,2.4c0,0.3,0.2,0.5,0.5,0.5
		c0.3,0,0.5-0.2,0.5-0.5c0-1.2-0.3-2.3-0.7-3.3l1.6-2.4c1.1,1.7,1.7,3.6,1.7,5.8c0,0.3,0.2,0.5,0.5,0.5c0.3,0,0.5-0.2,0.5-0.5
		C23.5,5.7,18.3,0.5,12,0.5z M12,13.5c-0.8,0-1.5-0.7-1.5-1.5c0-0.8,0.7-1.5,1.5-1.5c0.8,0,1.5,0.7,1.5,1.5
		C13.5,12.8,12.8,13.5,12,13.5z"/>
</g>
</svg>
