<?xml version="1.0" encoding="utf-8"?>
<!-- Generator: Adobe Illustrator 21.0.0, SVG Export Plug-In . SVG Version: 6.00 Build 0)  -->
<svg version="1.1" id="Layer_1" xmlns="http://www.w3.org/2000/svg" xmlns:xlink="http://www.w3.org/1999/xlink" x="0px" y="0px"
	 viewBox="0 0 24 24" style="enable-background:new 0 0 24 24;" xml:space="preserve">
<g>
	<path d="M22.8,17.4c-0.7-1.8-1.8-3.7-2.8-4.6c-0.9-0.9-2.1-1.4-3.4-1.4c-1,0-1.9,0.3-2.7,0.8H10c-0.8-0.5-1.7-0.8-2.7-0.8
		c-1.3,0-2.5,0.5-3.4,1.4c-0.9,0.9-2.1,2.8-2.8,4.6c-0.6,1.6-1.2,3.8,0,5C1.6,22.8,2.2,23,3,23c1.6,0,3.6-0.8,5.2-1.7c0,0,0,0,0,0
		c0,0,0.1-0.1,0.3-0.2c0.1,0,0.1-0.1,0.2-0.1h6.6c0.1,0,0.1,0.1,0.2,0.1c0.1,0.1,0.2,0.1,0.3,0.2c0,0,0,0,0,0
		c1.6,0.9,3.6,1.7,5.2,1.7c0.8,0,1.5-0.2,1.9-0.7C24,21.2,23.4,19,22.8,17.4z M4.9,16.2c-0.3,0-0.5-0.3-0.5-0.5
		c0-0.3,0.3-0.5,0.5-0.5s0.5,0.3,0.5,0.5C5.4,16,5.2,16.2,4.9,16.2z M6.4,17.8c-0.3,0-0.5-0.3-0.5-0.5c0-0.3,0.3-0.5,0.5-0.5
		c0.3,0,0.5,0.3,0.5,0.5C6.9,17.5,6.7,17.8,6.4,17.8z M6.4,14.7c-0.3,0-0.5-0.3-0.5-0.5c0-0.3,0.3-0.5,0.5-0.5
		c0.3,0,0.5,0.3,0.5,0.5C6.9,14.5,6.7,14.7,6.4,14.7z M7.9,16.2c-0.3,0-0.5-0.3-0.5-0.5c0-0.3,0.3-0.5,0.5-0.5
		c0.3,0,0.5,0.3,0.5,0.5C8.4,16,8.2,16.2,7.9,16.2z M13,15.8v0.4c0,0,0,0.1,0,0.1l0.2,0.2c0.3-0.1,0.7,0,0.9,0.2
		c0.4,0.4,0.4,1,0,1.4c-0.2,0.2-0.4,0.3-0.7,0.3c-0.3,0-0.5-0.1-0.7-0.3c-0.3-0.3-0.3-0.6-0.2-0.9L12.3,17c0,0-0.1,0-0.1,0h-0.4
		c0,0-0.1,0-0.1,0l-0.2,0.2c0.1,0.3,0,0.7-0.2,0.9c-0.2,0.2-0.4,0.3-0.7,0.3c-0.3,0-0.5-0.1-0.7-0.3c-0.4-0.4-0.4-1,0-1.4
		c0.2-0.2,0.6-0.3,0.9-0.2l0.2-0.2c0,0,0-0.1,0-0.1v-0.4c0,0,0-0.1,0-0.1l-0.2-0.2c-0.1,0-0.2,0-0.2,0c-0.3,0-0.5-0.1-0.7-0.3
		c-0.2-0.2-0.3-0.4-0.3-0.7c0-0.3,0.1-0.5,0.3-0.7c0.4-0.4,1-0.4,1.4,0c0.2,0.2,0.3,0.4,0.3,0.7c0,0.1,0,0.2,0,0.2l0.2,0.2
		c0,0,0.1,0,0.1,0h0.4c0,0,0.1,0,0.1,0l0.2-0.2c0-0.1,0-0.2,0-0.2c0-0.3,0.1-0.5,0.3-0.7c0.4-0.4,1-0.4,1.4,0
		c0.2,0.2,0.3,0.4,0.3,0.7c0,0.3-0.1,0.5-0.3,0.7c-0.2,0.2-0.4,0.3-0.7,0.3c-0.1,0-0.2,0-0.2,0L13,15.8C13,15.8,13,15.8,13,15.8z
		 M16.1,16.2c-0.3,0-0.5-0.3-0.5-0.5c0-0.3,0.3-0.5,0.5-0.5c0.3,0,0.5,0.3,0.5,0.5C16.6,16,16.4,16.2,16.1,16.2z M17.6,17.8
		c-0.3,0-0.5-0.3-0.5-0.5c0-0.3,0.3-0.5,0.5-0.5c0.3,0,0.5,0.3,0.5,0.5C18.1,17.5,17.9,17.8,17.6,17.8z M17.6,14.7
		c-0.3,0-0.5-0.3-0.5-0.5c0-0.3,0.3-0.5,0.5-0.5c0.3,0,0.5,0.3,0.5,0.5C18.1,14.5,17.9,14.7,17.6,14.7z M19.1,16.2
		c-0.3,0-0.5-0.3-0.5-0.5c0-0.3,0.3-0.5,0.5-0.5s0.5,0.3,0.5,0.5C19.6,16,19.4,16.2,19.1,16.2z"/>
	<path d="M12,2.5c2.2,0,4.3,0.8,5.9,2.2L19,3.7C17.1,2,14.6,1,12,1C9.4,1,6.9,2,5,3.7l1.1,1.1C7.7,3.3,9.8,2.5,12,2.5z"/>
	<path d="M15.9,6.9C14.8,6,13.5,5.5,12,5.5S9.2,6,8.1,6.9L9.2,8c1.6-1.3,4.1-1.3,5.7,0L15.9,6.9z"/>
	<path d="M12,10.7l0.9-0.9c-0.5-0.3-1.2-0.3-1.8,0L12,10.7z"/>
</g>
</svg>
