<?xml version="1.0" encoding="utf-8"?>
<!-- Generator: Adobe Illustrator 21.0.0, SVG Export Plug-In . SVG Version: 6.00 Build 0)  -->
<svg version="1.1" id="Layer_1" xmlns="http://www.w3.org/2000/svg" xmlns:xlink="http://www.w3.org/1999/xlink" x="0px" y="0px"
	 viewBox="0 0 24 24" style="enable-background:new 0 0 24 24;" xml:space="preserve">
<g>
	<path d="M8.9,16.1h1c0-0.8,0.2-1.6,0.5-2.2C9.6,14.4,9.1,15.2,8.9,16.1z"/>
	<path d="M12,13.5C12,13.5,12,13.5,12,13.5c-0.4,0-1.1,1-1.2,2.7h2.3C13.1,14.5,12.4,13.5,12,13.5z"/>
	<path d="M13.7,13.9c0.3,0.6,0.4,1.3,0.5,2.2h1C14.9,15.2,14.4,14.4,13.7,13.9z"/>
	<path d="M12,19.7c0.4,0,1.1-1,1.2-2.7h-2.3C10.9,18.7,11.6,19.7,12,19.7z"/>
	<path d="M13.7,19.2c0.8-0.5,1.3-1.3,1.4-2.2h-1C14.1,17.9,13.9,18.6,13.7,19.2z"/>
	<path d="M8.9,17.1c0.1,0.9,0.7,1.7,1.4,2.2c-0.3-0.6-0.4-1.3-0.5-2.2H8.9z"/>
	<path d="M18.4,9.7h-5.6L16,6.6h2.2c0.1,0,0.3-0.1,0.4-0.2c0.1-0.1,0.1-0.3,0.1-0.4C18,2.8,15.2,0.5,12,0.5C8.8,0.5,6,2.8,5.3,6
		c0,0.1,0,0.3,0.1,0.4c0.1,0.1,0.2,0.2,0.4,0.2H8l3.1,3.1H5.6c-0.3,0-0.5,0.2-0.5,0.5V23c0,0.3,0.2,0.5,0.5,0.5h12.9
		c0.3,0,0.5-0.2,0.5-0.5V10.2C18.9,9.9,18.7,9.7,18.4,9.7z M9.4,6.6h2.1v2.1L9.4,6.6z M12,1.5c0.9,0,1.9,1.5,2.2,4.1H9.8
		C10.1,3,11.1,1.5,12,1.5z M14.6,6.6l-2.1,2.1V6.6H14.6z M17.6,5.6h-2.4C15,4,14.5,2.7,13.9,1.8C15.7,2.4,17,3.8,17.6,5.6z
		 M10.1,1.8C9.5,2.7,9,4,8.8,5.6H6.4C7,3.8,8.3,2.4,10.1,1.8z M12,20.7c-2.3,0-4.1-1.8-4.1-4.1c0-2.3,1.8-4.1,4.1-4.1h0h0
		c0,0,0,0,0,0c2.3,0,4.1,1.8,4.1,4.1C16.1,18.8,14.3,20.7,12,20.7z"/>
</g>
</svg>
