<?xml version="1.0" encoding="utf-8"?>
<!-- Generator: Adobe Illustrator 21.0.0, SVG Export Plug-In . SVG Version: 6.00 Build 0)  -->
<svg version="1.1" id="Layer_1" xmlns="http://www.w3.org/2000/svg" xmlns:xlink="http://www.w3.org/1999/xlink" x="0px" y="0px"
	 viewBox="0 0 24 24" style="enable-background:new 0 0 24 24;" xml:space="preserve">
<g>
	<path d="M12,0.5c-3.4,0-6.3,2.4-7,5.7c0,0.1,0,0.3,0.1,0.4c0.1,0.1,0.2,0.2,0.4,0.2h2.3l3.8,3.8c0.1,0.1,0.2,0.1,0.4,0.1
		c0.1,0,0.3-0.1,0.4-0.1l3.8-3.8h2.3c0.1,0,0.3-0.1,0.4-0.2C18.9,6.5,19,6.4,19,6.2C18.3,2.9,15.4,0.5,12,0.5z M14.3,5.8H9.7
		C10,3.1,11.1,1.5,12,1.5C12.9,1.5,14,3.1,14.3,5.8z M11.5,9L9.3,6.8h2.2V9z M12.5,6.8h2.2L12.5,9V6.8z M10,1.9
		c-0.6,0.9-1.1,2.3-1.3,4H6.2C6.7,4,8.2,2.5,10,1.9z M15.3,5.8c-0.2-1.6-0.7-3-1.3-4c1.8,0.6,3.2,2.1,3.8,4H15.3z"/>
	<rect x="5.8" y="11.1" width="5.7" height="5.7"/>
	<rect x="5.8" y="17.8" width="5.7" height="5.7"/>
	<rect x="12.5" y="11.1" width="5.7" height="5.7"/>
	<rect x="12.5" y="17.8" width="5.7" height="5.7"/>
</g>
</svg>
