<?xml version="1.0" encoding="utf-8"?>
<!-- Generator: Adobe Illustrator 21.0.0, SVG Export Plug-In . SVG Version: 6.00 Build 0)  -->
<svg version="1.1" id="Layer_1" xmlns="http://www.w3.org/2000/svg" xmlns:xlink="http://www.w3.org/1999/xlink" x="0px" y="0px"
	 viewBox="0 0 24 24" style="enable-background:new 0 0 24 24;" xml:space="preserve">
<g>
	<path d="M13.5,13.7L13.2,14L13.5,13.7C13.5,13.7,13.5,13.7,13.5,13.7z"/>
	<path d="M13.6,13.6L13.6,13.6C13.6,13.6,13.6,13.6,13.6,13.6C13.6,13.6,13.6,13.6,13.6,13.6L13.6,13.6
		C13.6,13.7,13.6,13.7,13.6,13.6z"/>
	<path d="M15.2,11.5h5.2c-0.2-4.2-3.6-7.6-7.9-7.9v5.2c0,0.3-0.2,0.5-0.5,0.5s-0.5-0.2-0.5-0.5V3.6c-4.2,0.2-7.6,3.6-7.9,7.9h5.2
		c0.3,0,0.5,0.2,0.5,0.5c0,0.3-0.2,0.5-0.5,0.5H3.6c0.2,4.2,3.6,7.6,7.9,7.9v-5.2c0-0.3,0.2-0.5,0.5-0.5s0.5,0.2,0.5,0.5v5.2
		c4.2-0.2,7.6-3.6,7.9-7.9h-5.2c-0.3,0-0.5-0.2-0.5-0.5C14.7,11.7,14.9,11.5,15.2,11.5z M13.1,11.8v0.5c0,0,0,0.1,0,0.1l0.3,0.3
		c0.3-0.1,0.7,0,1,0.2c0.2,0.2,0.3,0.5,0.3,0.7c0,0.3-0.1,0.5-0.3,0.7c-0.2,0.2-0.5,0.3-0.7,0.3c-0.3,0-0.5-0.1-0.7-0.3
		c-0.3-0.3-0.3-0.7-0.2-1L12.3,13c0,0-0.1,0-0.1,0h-0.5c0,0-0.1,0-0.1,0l-0.3,0.3c0,0.1,0.1,0.2,0.1,0.3c0,0.3-0.1,0.5-0.3,0.7
		c-0.2,0.2-0.5,0.3-0.7,0.3c-0.3,0-0.5-0.1-0.7-0.3c-0.2-0.2-0.3-0.5-0.3-0.7c0-0.3,0.1-0.5,0.3-0.7c0.3-0.3,0.7-0.3,1-0.2l0.3-0.3
		c0,0,0-0.1,0-0.1v-0.5c0,0,0-0.1,0-0.1l-0.3-0.3c-0.1,0-0.2,0.1-0.3,0.1c-0.3,0-0.5-0.1-0.7-0.3c-0.2-0.2-0.3-0.4-0.3-0.7
		c0-0.3,0.1-0.5,0.3-0.7c0.4-0.4,1.1-0.4,1.5,0c0.2,0.2,0.3,0.5,0.3,0.7c0,0.1,0,0.2-0.1,0.3l0.3,0.3c0,0,0.1,0,0.1,0h0.5
		c0,0,0.1,0,0.1,0l0.3-0.3c-0.1-0.3,0-0.7,0.2-1c0.4-0.4,1.1-0.4,1.5,0c0.2,0.2,0.3,0.5,0.3,0.7c0,0.3-0.1,0.5-0.3,0.7
		c-0.2,0.2-0.5,0.3-0.7,0.3c-0.1,0-0.2,0-0.3-0.1L13,11.7C13,11.7,13.1,11.7,13.1,11.8z"/>
	<path d="M12,0.5C5.7,0.5,0.5,5.7,0.5,12S5.7,23.5,12,23.5S23.5,18.3,23.5,12S18.3,0.5,12,0.5z M12,21.4c-5.2,0-9.4-4.2-9.4-9.4
		S6.8,2.6,12,2.6c5.2,0,9.4,4.2,9.4,9.4l0,0c0,0,0,0,0,0C21.4,17.2,17.2,21.4,12,21.4z"/>
</g>
</svg>
