<?xml version="1.0" encoding="utf-8"?>
<!-- Generator: Adobe Illustrator 21.0.0, SVG Export Plug-In . SVG Version: 6.00 Build 0)  -->
<svg version="1.1" id="Layer_1" xmlns="http://www.w3.org/2000/svg" xmlns:xlink="http://www.w3.org/1999/xlink" x="0px" y="0px"
	 viewBox="0 0 24 24" style="enable-background:new 0 0 24 24;" xml:space="preserve">
<g>
	<path d="M22.1,6.7h-4.5V3.9c0-0.3-0.2-0.5-0.5-0.5h-1.3V2.6c0-0.3-0.2-0.5-0.5-0.5H8.8c-0.3,0-0.5,0.2-0.5,0.5v0.8H7
		c-0.3,0-0.5,0.2-0.5,0.5v2.8H1.9c-0.8,0-1.4,0.6-1.4,1.4v12.3c0,0.8,0.6,1.4,1.4,1.4h20.1c0.8,0,1.4-0.6,1.4-1.4V8.1
		C23.5,7.3,22.9,6.7,22.1,6.7z M7.4,4.3h0.9v0.5c0,0.3,0.2,0.5,0.5,0.5h6.4c0.3,0,0.5-0.2,0.5-0.5V4.3h0.9v2.3H7.4V4.3z M13.4,13.9
		v0.8c0,0.1,0,0.2-0.1,0.3l0.7,0.7c0.5-0.2,1.1-0.1,1.5,0.3c0.3,0.3,0.4,0.6,0.4,0.9c0,0.4-0.1,0.7-0.4,0.9
		c-0.3,0.3-0.6,0.4-0.9,0.4c-0.4,0-0.7-0.1-0.9-0.4c-0.4-0.4-0.5-1-0.3-1.5l-0.7-0.7c-0.1,0-0.2,0.1-0.3,0.1h-0.8
		c-0.1,0-0.2,0-0.3-0.1l-0.7,0.7c0.1,0.2,0.1,0.3,0.1,0.5c0,0.4-0.1,0.7-0.4,0.9c-0.3,0.3-0.6,0.4-0.9,0.4c-0.4,0-0.7-0.1-0.9-0.4
		c-0.3-0.3-0.4-0.6-0.4-0.9c0-0.4,0.1-0.7,0.4-0.9c0.4-0.4,1-0.5,1.5-0.3l0.7-0.7c0-0.1-0.1-0.2-0.1-0.3v-0.8c0-0.1,0-0.2,0.1-0.3
		L10,13c-0.2,0.1-0.4,0.1-0.5,0.1c-0.4,0-0.7-0.1-0.9-0.4c-0.3-0.2-0.4-0.6-0.4-0.9c0-0.4,0.1-0.7,0.4-1c0.5-0.5,1.4-0.5,1.9,0
		c0.3,0.3,0.4,0.6,0.4,0.9c0,0.2,0,0.4-0.1,0.5l0.7,0.7c0.1,0,0.2-0.1,0.3-0.1h0.8c0.1,0,0.2,0,0.3,0.1l0.7-0.7
		c-0.2-0.5-0.1-1.1,0.3-1.5c0.5-0.5,1.4-0.5,1.9,0c0.3,0.3,0.4,0.6,0.4,1c0,0.4-0.1,0.7-0.4,0.9c-0.2,0.3-0.6,0.4-0.9,0.4
		c-0.2,0-0.4,0-0.5-0.1l-0.7,0.7C13.3,13.7,13.4,13.8,13.4,13.9z"/>
	<path d="M9.5,11.4c-0.1,0-0.2,0-0.3,0.1c-0.1,0.1-0.1,0.2-0.1,0.3c0,0.1,0,0.2,0.1,0.3c0.1,0.1,0.2,0.1,0.3,0.1
		c0-0.1,0.1-0.1,0.1-0.2c0.1-0.1,0.1-0.1,0.2-0.1c0,0,0,0,0-0.1c0-0.1,0-0.2-0.1-0.3C9.7,11.4,9.6,11.4,9.5,11.4z"/>
	<path d="M14.5,12.1c0.1,0,0.3,0,0.3-0.1c0.1-0.1,0.1-0.2,0.1-0.3c0-0.1,0-0.2-0.1-0.3c-0.1-0.1-0.2-0.1-0.3-0.1
		c-0.1,0-0.2,0-0.3,0.1c-0.1,0.1-0.1,0.2-0.1,0.3c0.1,0,0.1,0.1,0.2,0.1C14.4,12,14.4,12,14.5,12.1z"/>
	<path d="M9.6,16.6c-0.1-0.1-0.1-0.1-0.1-0.2c0,0,0,0-0.1,0c-0.1,0-0.2,0-0.3,0.1c-0.1,0.1-0.1,0.2-0.1,0.3c0,0.1,0,0.2,0.1,0.3
		c0.1,0.1,0.4,0.1,0.5,0c0.1-0.1,0.1-0.2,0.1-0.3c0,0,0-0.1,0-0.1C9.8,16.7,9.7,16.7,9.6,16.6z"/>
	<path d="M14.8,17.1c0.1-0.1,0.1-0.2,0.1-0.3c0-0.1,0-0.2-0.1-0.3c-0.1-0.1-0.2-0.1-0.3-0.1c0,0,0,0-0.1,0c0,0.1-0.1,0.1-0.1,0.2
		c-0.1,0.1-0.1,0.1-0.2,0.1c0,0.1,0,0.3,0.1,0.3C14.4,17.2,14.7,17.2,14.8,17.1z"/>
</g>
</svg>
