<?xml version="1.0" encoding="utf-8"?>
<!-- Generator: Adobe Illustrator 21.0.0, SVG Export Plug-In . SVG Version: 6.00 Build 0)  -->
<svg version="1.1" id="Layer_1" xmlns="http://www.w3.org/2000/svg" xmlns:xlink="http://www.w3.org/1999/xlink" x="0px" y="0px"
	 viewBox="0 0 24 24" style="enable-background:new 0 0 24 24;" xml:space="preserve">
<g>
	<path d="M12,13.8c-0.3,0-0.5,0.2-0.5,0.5v2.1l-0.8,0.8c-0.2,0.2-0.2,0.5,0,0.7c0.1,0.1,0.2,0.1,0.3,0.1c0.1,0,0.2,0,0.3-0.1
		l0.9-0.9c0,0,0,0,0,0l0,0c0,0,0,0,0,0c0,0,0.1-0.1,0.1-0.1c0-0.1,0-0.1,0-0.2v-2.3C12.5,14,12.3,13.8,12,13.8z"/>
	<path d="M18.4,9.7h-5.6L16,6.6h2.2c0.1,0,0.3-0.1,0.4-0.2c0.1-0.1,0.1-0.3,0.1-0.4C18,2.8,15.2,0.5,12,0.5C8.8,0.5,6,2.8,5.3,6
		c0,0.1,0,0.3,0.1,0.4c0.1,0.1,0.2,0.2,0.4,0.2H8l3.1,3.1H5.6c-0.3,0-0.5,0.2-0.5,0.5V23c0,0.3,0.2,0.5,0.5,0.5h12.9
		c0.3,0,0.5-0.2,0.5-0.5V10.2C18.9,9.9,18.7,9.7,18.4,9.7z M9.4,6.6h2.1v2.1L9.4,6.6z M12,1.5c0.9,0,1.9,1.5,2.2,4.1H9.8
		C10.1,3,11.1,1.5,12,1.5z M14.6,6.6l-2.1,2.1V6.6H14.6z M17.6,5.6h-2.4C15,4,14.5,2.7,13.9,1.8C15.7,2.4,17,3.8,17.6,5.6z
		 M10.1,1.8C9.5,2.7,9,4,8.8,5.6H6.4C7,3.8,8.3,2.4,10.1,1.8z M12,20.7c-2.3,0-4.2-1.9-4.2-4.2c0-2.3,1.9-4.2,4.2-4.2
		s4.2,1.9,4.2,4.2C16.2,18.9,14.3,20.7,12,20.7z"/>
</g>
</svg>
