<?xml version="1.0" encoding="utf-8"?>
<!-- Generator: Adobe Illustrator 21.0.0, SVG Export Plug-In . SVG Version: 6.00 Build 0)  -->
<svg version="1.1" id="Layer_1" xmlns="http://www.w3.org/2000/svg" xmlns:xlink="http://www.w3.org/1999/xlink" x="0px" y="0px"
	 viewBox="0 0 24 24" style="enable-background:new 0 0 24 24;" xml:space="preserve">
<g>
	<path d="M5.7,4l9.4,6.3L13,12.4l-1.7-1.7l0,0L5.2,4.5L5.7,4z M18.3,20l-9.4-6.3l2.1-2.1l1.7,1.7c0,0,0,0,0,0l6.1,6.1L18.3,20z"/>
	<path d="M12,22.5C6.2,22.5,1.5,17.8,1.5,12c0-0.3-0.2-0.5-0.5-0.5c-0.3,0-0.5,0.2-0.5,0.5c0,6.3,5.2,11.5,11.5,11.5
		c0.3,0,0.5-0.2,0.5-0.5C12.5,22.8,12.3,22.5,12,22.5z"/>
	<path d="M12,0.5c-0.3,0-0.5,0.2-0.5,0.5c0,0.3,0.2,0.5,0.5,0.5c5.8,0,10.5,4.7,10.5,10.5c0,0.3,0.2,0.5,0.5,0.5
		c0.3,0,0.5-0.2,0.5-0.5C23.5,5.7,18.3,0.5,12,0.5z"/>
	<path d="M12,19c-3.8,0-7-3.1-7-7c0-0.3-0.2-0.5-0.5-0.5c-0.3,0-0.5,0.2-0.5,0.5c0,4.4,3.6,7.9,7.9,7.9c0.3,0,0.5-0.2,0.5-0.5
		C12.5,19.2,12.3,19,12,19z"/>
	<path d="M19,12c0,0.3,0.2,0.5,0.5,0.5s0.5-0.2,0.5-0.5c0-4.4-3.6-7.9-7.9-7.9c-0.3,0-0.5,0.2-0.5,0.5C11.5,4.8,11.7,5,12,5
		C15.8,5,19,8.2,19,12z"/>
</g>
</svg>
