<?xml version="1.0" encoding="utf-8"?>
<!-- Generator: Adobe Illustrator 21.0.0, SVG Export Plug-In . SVG Version: 6.00 Build 0)  -->
<svg version="1.1" id="Layer_1" xmlns="http://www.w3.org/2000/svg" xmlns:xlink="http://www.w3.org/1999/xlink" x="0px" y="0px"
	 viewBox="0 0 24 24" style="enable-background:new 0 0 24 24;" xml:space="preserve">
<g>
	<path d="M11.4,11.4C11.4,11.4,11.4,11.4,11.4,11.4c-0.2,0.2-0.3,0.4-0.3,0.6s0.1,0.4,0.2,0.6c0.2,0.2,0.4,0.2,0.6,0.2
		c0.2,0,0.4-0.1,0.6-0.2c0.2-0.2,0.2-0.4,0.2-0.6s-0.1-0.4-0.2-0.6C12.3,11.1,11.8,11.1,11.4,11.4z"/>
	<path d="M11.2,10.4c0.1,0,0.2-0.1,0.3-0.1c0.1,0,0.2,0,0.3,0c0.1,0,0.2,0,0.3,0c0.1,0,0.1,0,0.2,0c0.2,0,0.3,0.1,0.4,0.1
		c0,0,0.1,0,0.1,0.1c0.2,0.1,0.3,0.2,0.4,0.3c0.3,0.3,0.5,0.8,0.5,1.3c0,0.1,0,0.3-0.1,0.4c0,0,0,0.1,0,0.1c0,0.1-0.1,0.2-0.1,0.3
		c0,0,0,0.1,0,0.1l0.8,0.8c1.3-1.6,1.2-4-0.3-5.5C12.4,6.6,5.4,1.8,2.6,1.8c-0.1,0-0.1,0-0.1,0L11.2,10.4
		C11.1,10.4,11.2,10.4,11.2,10.4z"/>
	<path d="M12.8,13.6c-0.3,0.1-0.5,0.2-0.8,0.2c-0.3,0-0.5-0.1-0.8-0.2c0,0,0,0,0,0c-0.2-0.1-0.3-0.2-0.5-0.3
		c-0.3-0.3-0.5-0.8-0.5-1.3c0-0.1,0-0.3,0.1-0.4c0,0,0-0.1,0-0.1c0-0.1,0.1-0.2,0.1-0.3c0,0,0-0.1,0-0.1l-0.8-0.8
		c-0.6,0.7-0.9,1.6-0.9,2.6c0,1.1,0.4,2.1,1.2,2.9c1.6,1.6,8.7,6.4,11.4,6.4c0,0,0.1,0,0.1,0L12.8,13.6
		C12.9,13.6,12.9,13.6,12.8,13.6z"/>
	<path d="M12,22.5C6.2,22.5,1.5,17.8,1.5,12c0-0.3-0.2-0.5-0.5-0.5c-0.3,0-0.5,0.2-0.5,0.5c0,6.3,5.2,11.5,11.5,11.5
		c0.3,0,0.5-0.2,0.5-0.5C12.5,22.8,12.3,22.5,12,22.5z"/>
	<path d="M12,0.5c-0.3,0-0.5,0.2-0.5,0.5c0,0.3,0.2,0.5,0.5,0.5c5.8,0,10.5,4.7,10.5,10.5c0,0.3,0.2,0.5,0.5,0.5
		c0.3,0,0.5-0.2,0.5-0.5C23.5,5.7,18.3,0.5,12,0.5z"/>
	<path d="M12,19c-3.8,0-7-3.1-7-7c0-0.3-0.2-0.5-0.5-0.5c-0.3,0-0.5,0.2-0.5,0.5c0,4.4,3.6,7.9,7.9,7.9c0.3,0,0.5-0.2,0.5-0.5
		C12.5,19.2,12.3,19,12,19z"/>
	<path d="M19,12c0,0.3,0.2,0.5,0.5,0.5c0.3,0,0.5-0.2,0.5-0.5c0-4.4-3.6-7.9-7.9-7.9c-0.3,0-0.5,0.2-0.5,0.5C11.5,4.8,11.7,5,12,5
		C15.8,5,19,8.2,19,12z"/>
</g>
</svg>
