<?xml version="1.0" encoding="utf-8"?>
<!-- Generator: Adobe Illustrator 21.0.0, SVG Export Plug-In . SVG Version: 6.00 Build 0)  -->
<svg version="1.1" id="Layer_1" xmlns="http://www.w3.org/2000/svg" xmlns:xlink="http://www.w3.org/1999/xlink" x="0px" y="0px"
	 viewBox="0 0 24 24" style="enable-background:new 0 0 24 24;" xml:space="preserve">
<g>
	<path d="M4.8,20.6H1c-0.3,0-0.5,0.2-0.5,0.5c0,0.3,0.2,0.5,0.5,0.5h1.4V22c0,0.3,0.2,0.5,0.5,0.5c0.3,0,0.5-0.2,0.5-0.5v-0.4h1.4
		c0.3,0,0.5-0.2,0.5-0.5C5.3,20.9,5.1,20.6,4.8,20.6z"/>
	<path d="M23,20.6h-3.8c-0.3,0-0.5,0.2-0.5,0.5c0,0.3,0.2,0.5,0.5,0.5h1.4V22c0,0.3,0.2,0.5,0.5,0.5c0.3,0,0.5-0.2,0.5-0.5v-0.4H23
		c0.3,0,0.5-0.2,0.5-0.5C23.5,20.9,23.3,20.6,23,20.6z"/>
	<path d="M20.3,20.3h1.2c1,0,1.7-0.8,1.7-1.7v-1.3c0-0.9-0.7-1.7-1.7-1.7v-0.8H23c0.3,0,0.5-0.2,0.5-0.5c0-0.3-0.2-0.5-0.5-0.5h-3.8
		c-0.3,0-0.5,0.2-0.5,0.5c0,0.3,0.2,0.5,0.5,0.5h1.4v0.8h-0.4c-0.6,0-1.1,0.3-1.4,0.7c-1.8-0.8-4.8-1.3-5.8-1.3
		c-0.3,0-0.7,0.1-1,0.2c-0.3-0.1-0.7-0.2-1-0.2c-1,0-4,0.6-5.8,1.3c-0.3-0.5-0.8-0.7-1.4-0.7H3.4v-0.8h1.4c0.3,0,0.5-0.2,0.5-0.5
		c0-0.3-0.2-0.5-0.5-0.5H1c-0.3,0-0.5,0.2-0.5,0.5c0,0.3,0.2,0.5,0.5,0.5h1.4v0.8c-0.9,0-1.7,0.8-1.7,1.7v1.3c0,1,0.8,1.7,1.7,1.7
		h1.2c0.6,0,1.1-0.3,1.4-0.8c1.1,0.5,2.5,0.8,3.3,1c0.5,1,1.9,1.7,3.5,1.7c1.7,0,3.1-0.7,3.5-1.7c0.8-0.2,2.2-0.5,3.3-1
		C19.2,20,19.7,20.3,20.3,20.3z M13.6,18.6h-3.3c-0.3,0-0.5-0.2-0.5-0.5c0-0.3,0.2-0.5,0.5-0.5h3.3c0.3,0,0.5,0.2,0.5,0.5
		C14.1,18.4,13.9,18.6,13.6,18.6z"/>
	<path d="M15.1,12.9H8.9c-0.3,0-0.5,0.2-0.5,0.5c0,0.3,0.2,0.5,0.5,0.5h6.2c0.3,0,0.5-0.2,0.5-0.5C15.6,13.1,15.4,12.9,15.1,12.9z"
		/>
	<path d="M6.9,7.5h1.5v4.2c0,0.3,0.2,0.5,0.5,0.5h6.2c0.3,0,0.5-0.2,0.5-0.5V7.5h1.5c0,0,0,0,0,0c0.3,0,0.5-0.2,0.5-0.5
		c0-0.2-0.1-0.3-0.2-0.4l-5-5c-0.2-0.2-0.5-0.2-0.7,0L6.6,6.7C6.5,6.8,6.4,7,6.5,7.2C6.6,7.4,6.8,7.5,6.9,7.5z"/>
</g>
</svg>
