<?xml version="1.0" encoding="utf-8"?>
<!-- Generator: Adobe Illustrator 21.0.0, SVG Export Plug-In . SVG Version: 6.00 Build 0)  -->
<svg version="1.1" id="Layer_1" xmlns="http://www.w3.org/2000/svg" xmlns:xlink="http://www.w3.org/1999/xlink" x="0px" y="0px"
	 viewBox="0 0 24 24" style="enable-background:new 0 0 24 24;" xml:space="preserve">
<g>
	<path d="M13.1,11.8c0.6-0.4,1-1,1-1.8C14.1,8.9,13.2,8,12,8c-1.1,0-2.1,0.9-2.1,2.1c0,0.7,0.4,1.4,1,1.8c0,0,0,0,0,0.1L9.7,22.5
		H9.4c-0.3,0-0.5,0.2-0.5,0.5c0,0.3,0.2,0.5,0.5,0.5h0.7h2.3h1.5c0.1,0,0.3-0.1,0.4-0.2c0.1-0.1,0.1-0.2,0.1-0.4L13.1,11.8
		C13.1,11.9,13.1,11.9,13.1,11.8z M10.9,10.1C10.9,9.5,11.4,9,12,9c0.6,0,1.1,0.5,1.1,1.1c0,0.6-0.5,1.1-1.1,1.1
		C11.4,11.2,10.9,10.7,10.9,10.1z"/>
	<path d="M7.5,22.5H7.2c-0.3,0-0.5,0.2-0.5,0.5c0,0.3,0.2,0.5,0.5,0.5h0.4C7.8,23.5,8,23.3,8,23C8,22.7,7.8,22.5,7.5,22.5z"/>
	<path d="M5.6,22.5H5.4c-0.3,0-0.5,0.2-0.5,0.5c0,0.3,0.2,0.5,0.5,0.5h0.2c0.3,0,0.5-0.2,0.5-0.5C6.1,22.7,5.9,22.5,5.6,22.5z"/>
	<path d="M20.8,4.1c-4.8-4.8-12.7-4.8-17.5,0c-0.2,0.2-0.2,0.5,0,0.7C3.4,5,3.7,5,3.9,4.8c4.4-4.4,11.7-4.4,16.1,0
		C20.2,4.9,20.3,5,20.4,5c0.1,0,0.3,0,0.3-0.1C20.9,4.6,20.9,4.3,20.8,4.1z"/>
	<path d="M6,6.8C5.8,7,5.8,7.3,6,7.5c0.2,0.2,0.5,0.2,0.7,0c2.9-2.9,7.7-2.9,10.7,0c0.1,0.1,0.2,0.1,0.3,0.1c0.1,0,0.2,0,0.3-0.1
		c0.2-0.2,0.2-0.5,0-0.7C14.7,3.5,9.3,3.5,6,6.8z"/>
</g>
</svg>
