<?xml version="1.0" encoding="utf-8"?>
<!-- Generator: Adobe Illustrator 21.0.0, SVG Export Plug-In . SVG Version: 6.00 Build 0)  -->
<svg version="1.1" id="Layer_1" xmlns="http://www.w3.org/2000/svg" xmlns:xlink="http://www.w3.org/1999/xlink" x="0px" y="0px"
	 viewBox="0 0 24 24" style="enable-background:new 0 0 24 24;" xml:space="preserve">
<g>
	<path d="M12,10.3c-3.3,0-6.5,1.3-8.8,3.7c-0.2,0.2-0.2,0.5,0,0.7l2,2c0.2,0.2,0.5,0.2,0.7,0C7.5,14.9,9.7,14,12,14s4.5,0.9,6.2,2.6
		c0.1,0.1,0.2,0.1,0.3,0.1c0.1,0,0.3-0.1,0.3-0.1l2-2c0.1-0.1,0.1-0.2,0.1-0.3c0-0.1-0.1-0.3-0.1-0.3C18.5,11.6,15.3,10.3,12,10.3z"
		/>
	<path d="M12,15.2c-2.1,0-4,0.8-5.5,2.3c-0.1,0.1-0.1,0.2-0.1,0.3c0,0.1,0.1,0.3,0.1,0.3l2,2c0.2,0.2,0.5,0.2,0.7,0
		C9.9,19.4,10.9,19,12,19c1.1,0,2.1,0.4,2.8,1.2c0.1,0.1,0.2,0.1,0.3,0.1c0.1,0,0.3-0.1,0.3-0.1l2-2c0.1-0.1,0.1-0.2,0.1-0.3
		c0-0.1-0.1-0.3-0.1-0.3C16,16.1,14.1,15.2,12,15.2z"/>
	<path d="M9.9,20.7c-0.1,0.1-0.1,0.2-0.1,0.3c0,0.1,0.1,0.3,0.1,0.3l1.8,1.8c0.1,0.1,0.2,0.1,0.3,0.1c0.1,0,0.2,0,0.3-0.1l1.8-1.8
		c0.1-0.1,0.1-0.2,0.1-0.3c0-0.1-0.1-0.3-0.1-0.3C13,19.5,11,19.5,9.9,20.7z"/>
	<path d="M3.4,9.1V8.6h1.4c0.3,0,0.5-0.2,0.5-0.5c0-0.3-0.2-0.5-0.5-0.5H1c-0.3,0-0.5,0.2-0.5,0.5c0,0.3,0.2,0.5,0.5,0.5h1.4v0.4
		c0,0.3,0.2,0.5,0.5,0.5C3.2,9.6,3.4,9.3,3.4,9.1z"/>
	<path d="M1,1.7h1.4v0.8c-0.9,0-1.7,0.8-1.7,1.7v1.3c0,1,0.8,1.7,1.7,1.7h1.2c0.6,0,1.1-0.3,1.4-0.8c1.1,0.5,2.5,0.8,3.3,1
		c0.5,1,1.9,1.7,3.5,1.7c1.7,0,3.1-0.7,3.5-1.7c0.8-0.2,2.2-0.5,3.3-1c0.3,0.5,0.8,0.8,1.4,0.8h1.2c1,0,1.7-0.8,1.7-1.7V4.2
		c0-0.9-0.7-1.7-1.7-1.7V1.7H23c0.3,0,0.5-0.2,0.5-0.5c0-0.3-0.2-0.5-0.5-0.5h-3.8c-0.3,0-0.5,0.2-0.5,0.5c0,0.3,0.2,0.5,0.5,0.5
		h1.4v0.8h-0.4c-0.6,0-1.1,0.3-1.4,0.8C17,2.4,14.1,1.9,13,1.9c-0.3,0-0.7,0.1-1,0.2c-0.3-0.1-0.7-0.2-1-0.2c-1,0-4,0.6-5.8,1.3
		C4.8,2.8,4.3,2.5,3.7,2.5H3.4V1.7h1.4c0.3,0,0.5-0.2,0.5-0.5c0-0.3-0.2-0.5-0.5-0.5H1c-0.3,0-0.5,0.2-0.5,0.5
		C0.5,1.5,0.7,1.7,1,1.7z M10.4,4.6h3.3c0.3,0,0.5,0.2,0.5,0.5c0,0.3-0.2,0.5-0.5,0.5h-3.3c-0.3,0-0.5-0.2-0.5-0.5
		C9.9,4.9,10.1,4.6,10.4,4.6z"/>
	<path d="M23,7.7h-3.8c-0.3,0-0.5,0.2-0.5,0.5c0,0.3,0.2,0.5,0.5,0.5h1.4v0.4c0,0.3,0.2,0.5,0.5,0.5c0.3,0,0.5-0.2,0.5-0.5V8.6H23
		c0.3,0,0.5-0.2,0.5-0.5C23.5,7.9,23.3,7.7,23,7.7z"/>
</g>
</svg>
