<?xml version="1.0" encoding="utf-8"?>
<!-- Generator: Adobe Illustrator 21.0.0, SVG Export Plug-In . SVG Version: 6.00 Build 0)  -->
<svg version="1.1" id="Layer_1" xmlns="http://www.w3.org/2000/svg" xmlns:xlink="http://www.w3.org/1999/xlink" x="0px" y="0px"
	 viewBox="0 0 24 24" style="enable-background:new 0 0 24 24;" xml:space="preserve">
<style type="text/css">
	.st0{fill:none;stroke:#000000;stroke-linecap:round;stroke-linejoin:round;stroke-miterlimit:10;}
	
		.st1{fill-rule:evenodd;clip-rule:evenodd;fill:none;stroke:#000000;stroke-linecap:round;stroke-linejoin:round;stroke-miterlimit:10;}
	.st2{fill:none;stroke:#000000;stroke-linecap:square;stroke-linejoin:round;stroke-miterlimit:10;}
	.st3{fill:none;stroke:#000000;stroke-linecap:square;stroke-miterlimit:10;}
</style>
<g>
	<polygon class="st1" points="15.8,3 15.8,1 8.2,1 8.2,3 6.1,3 6.1,23 17.9,23 17.9,3 	"/>
	<g>
		<polyline class="st1" points="13,17.2 11,17.2 13,13.7 		"/>
		<polyline class="st1" points="11,17.2 13,17.2 11,20.6 		"/>
	</g>
	<g>
		<g>
			<g>
				<line class="st0" x1="10.3" y1="6.6" x2="13.7" y2="10"/>
				<line class="st0" x1="13.7" y1="6.6" x2="10.3" y2="10"/>
			</g>
			<g>
				<ellipse transform="matrix(0.7073 -0.7069 0.7069 0.7073 -1.4936 8.8153)" class="st0" cx="9.9" cy="6.2" rx="0.7" ry="0.7"/>
				
					<ellipse transform="matrix(0.7071 -0.7071 0.7071 0.7071 -3.2367 13.0228)" class="st0" cx="14.1" cy="10.4" rx="0.7" ry="0.7"/>
			</g>
			<g>
				<ellipse transform="matrix(0.7059 -0.7083 0.7083 0.7059 -0.2523 11.8148)" class="st0" cx="14.1" cy="6.2" rx="0.7" ry="0.7"/>
				<ellipse transform="matrix(0.7081 -0.7061 0.7061 0.7081 -4.4674 10.0297)" class="st0" cx="9.9" cy="10.4" rx="0.7" ry="0.7"/>
			</g>
		</g>
		<path class="st0" d="M12.7,8.6c0,0.2-0.2,0.4-0.4,0.4h-0.6c-0.2,0-0.4-0.2-0.4-0.4V8c0-0.2,0.2-0.4,0.4-0.4h0.6
			c0.2,0,0.4,0.2,0.4,0.4V8.6z"/>
	</g>
</g>
</svg>
