<?xml version="1.0" encoding="utf-8"?>
<!-- Generator: Adobe Illustrator 21.0.0, SVG Export Plug-In . SVG Version: 6.00 Build 0)  -->
<svg version="1.1" id="Layer_1" xmlns="http://www.w3.org/2000/svg" xmlns:xlink="http://www.w3.org/1999/xlink" x="0px" y="0px"
	 viewBox="0 0 24 24" style="enable-background:new 0 0 24 24;" xml:space="preserve">
<style type="text/css">
	.st0{fill:none;stroke:#000000;stroke-linecap:round;stroke-linejoin:round;stroke-miterlimit:10;}
	
		.st1{fill-rule:evenodd;clip-rule:evenodd;fill:none;stroke:#000000;stroke-linecap:round;stroke-linejoin:round;stroke-miterlimit:10;}
	.st2{fill:none;stroke:#000000;stroke-linecap:square;stroke-linejoin:round;stroke-miterlimit:10;}
	.st3{fill:none;stroke:#000000;stroke-linecap:square;stroke-miterlimit:10;}
</style>
<g>
	<rect x="5.6" y="10.2" class="st0" width="12.8" height="12.8"/>
	<g>
		<g>
			<path class="st0" d="M18.2,6.1C17.6,3.2,15.1,1,12,1C8.9,1,6.4,3.2,5.8,6.1H18.2z"/>
			<path class="st0" d="M14.8,6.1C14.5,3.2,13.4,1,12,1c-1.4,0-2.5,2.2-2.8,5.1H14.8z"/>
		</g>
		<g>
			<polyline class="st0" points="15.7,6.2 12,9.8 8.3,6.2 			"/>
			<line class="st0" x1="12" y1="6.1" x2="12" y2="9.4"/>
		</g>
	</g>
	<g>
		<path class="st0" d="M15.7,15.7c-0.1-0.2-0.2-0.3-0.4-0.4l-2-0.3l-0.9-1.8C12.4,13.1,12.2,13,12,13c-0.2,0-0.4,0.1-0.5,0.3
			L10.6,15l-2,0.3c-0.2,0-0.4,0.2-0.4,0.4c-0.1,0.2,0,0.4,0.1,0.5l1.4,1.4l-0.3,2c0,0.2,0,0.4,0.2,0.5c0.2,0.1,0.4,0.1,0.6,0
			l1.8-0.9l1.8,0.9c0.1,0,0.2,0.1,0.2,0.1c0.1,0,0.2,0,0.3-0.1c0.2-0.1,0.2-0.3,0.2-0.5l-0.3-2l1.4-1.4
			C15.8,16.1,15.8,15.9,15.7,15.7z"/>
	</g>
</g>
</svg>
