<?xml version="1.0" encoding="utf-8"?>
<!-- Generator: Adobe Illustrator 21.0.0, SVG Export Plug-In . SVG Version: 6.00 Build 0)  -->
<svg version="1.1" id="Layer_1" xmlns="http://www.w3.org/2000/svg" xmlns:xlink="http://www.w3.org/1999/xlink" x="0px" y="0px"
	 viewBox="0 0 24 24" style="enable-background:new 0 0 24 24;" xml:space="preserve">
<style type="text/css">
	.st0{fill:none;stroke:#000000;stroke-linecap:round;stroke-linejoin:round;stroke-miterlimit:10;}
	
		.st1{fill-rule:evenodd;clip-rule:evenodd;fill:none;stroke:#000000;stroke-linecap:round;stroke-linejoin:round;stroke-miterlimit:10;}
	.st2{fill:none;stroke:#000000;stroke-linecap:square;stroke-linejoin:round;stroke-miterlimit:10;}
	.st3{fill:none;stroke:#000000;stroke-linecap:square;stroke-miterlimit:10;}
</style>
<g>
	<rect x="4.4" y="2.7" class="st0" width="18.6" height="18.6"/>
	<rect x="10.4" y="2.7" class="st0" width="6.7" height="7"/>
	<g>
		<g>
			<g>
				<line class="st0" x1="11" y1="12.7" x2="16.4" y2="18.2"/>
				<line class="st0" x1="16.5" y1="12.7" x2="11" y2="18.2"/>
			</g>
			<g>
				
					<ellipse transform="matrix(0.7071 -0.7071 0.7071 0.7071 -5.9992 12.0175)" class="st0" cx="11.5" cy="13.3" rx="0.7" ry="0.7"/>
				
					<ellipse transform="matrix(0.7068 -0.7074 0.7074 0.7068 -7.8342 16.4546)" class="st0" cx="15.9" cy="17.7" rx="0.8" ry="0.8"/>
			</g>
			<g>
				
					<ellipse transform="matrix(0.7068 -0.7074 0.7074 0.7068 -4.7019 15.1553)" class="st0" cx="15.9" cy="13.3" rx="0.8" ry="0.8"/>
				<ellipse transform="matrix(0.7078 -0.7064 0.7064 0.7078 -9.126 13.2941)" class="st0" cx="11.5" cy="17.7" rx="0.8" ry="0.8"/>
			</g>
		</g>
		<path class="st0" d="M14.5,15.8c0,0.3-0.2,0.5-0.5,0.5h-0.7c-0.3,0-0.5-0.2-0.5-0.5v-0.7c0-0.3,0.2-0.5,0.5-0.5H14
			c0.3,0,0.5,0.2,0.5,0.5V15.8z"/>
	</g>
	<line class="st0" x1="1" y1="2.7" x2="3.2" y2="2.7"/>
	<line class="st0" x1="2.1" y1="4.9" x2="3.2" y2="4.9"/>
	<line class="st0" x1="3.2" y1="7.2" x2="3.2" y2="7.2"/>
</g>
</svg>
