<?xml version="1.0" encoding="utf-8"?>
<!-- Generator: Adobe Illustrator 21.0.0, SVG Export Plug-In . SVG Version: 6.00 Build 0)  -->
<svg version="1.1" id="Layer_1" xmlns="http://www.w3.org/2000/svg" xmlns:xlink="http://www.w3.org/1999/xlink" x="0px" y="0px"
	 viewBox="0 0 24 24" style="enable-background:new 0 0 24 24;" xml:space="preserve">
<style type="text/css">
	.st0{fill:none;stroke:#000000;stroke-linecap:round;stroke-linejoin:round;stroke-miterlimit:10;}
	
		.st1{fill-rule:evenodd;clip-rule:evenodd;fill:none;stroke:#000000;stroke-linecap:round;stroke-linejoin:round;stroke-miterlimit:10;}
	.st2{fill:none;stroke:#000000;stroke-linecap:square;stroke-linejoin:round;stroke-miterlimit:10;}
	.st3{fill:none;stroke:#000000;stroke-linecap:square;stroke-miterlimit:10;}
</style>
<g>
	<g>
		<g>
			<g>
				<g>
					<path class="st0" d="M13.4,23h-2.8c-0.4,0-0.8-0.3-0.9-0.7l-0.5-1.9c-1.2-0.4-2.2-1-3.1-1.8l-1.9,0.6c-0.4,0.1-0.8-0.1-1.1-0.4
						l-1.4-2.4c-0.2-0.4-0.1-0.8,0.2-1.1l1.5-1.4c-0.2-1.2-0.3-2.4,0-3.6L1.9,8.8C1.6,8.5,1.6,8.1,1.8,7.7l1.4-2.4
						c0.2-0.4,0.6-0.5,1.1-0.4l1.9,0.6C6.6,5,7.1,4.7,7.6,4.4c0.5-0.3,1.1-0.5,1.7-0.7l0.5-1.9C9.8,1.3,10.2,1,10.6,1h2.8
						c0,0,0,0,0,0c0.4,0,0.8,0.3,0.9,0.7l0.5,1.9c1.2,0.4,2.2,1,3.1,1.8l1.9-0.6c0.4-0.1,0.8,0.1,1.1,0.4l1.4,2.4
						c0.2,0.4,0.1,0.8-0.2,1.1l-1.5,1.4c0.3,1.2,0.3,2.4,0,3.6l1.5,1.4c0.3,0.3,0.4,0.8,0.2,1.1l-1.4,2.4c-0.2,0.4-0.6,0.5-1.1,0.4
						l-1.9-0.6c-0.5,0.4-1,0.8-1.5,1.1c-0.5,0.3-1.1,0.5-1.7,0.7l-0.5,2C14.2,22.7,13.8,23,13.4,23z"/>
				</g>
			</g>
		</g>
	</g>
	<g>
		<g>
			<g>
				<line class="st0" x1="8.6" y1="8.6" x2="15.4" y2="15.4"/>
				<line class="st0" x1="15.4" y1="8.6" x2="8.6" y2="15.4"/>
			</g>
			<g>
				<ellipse transform="matrix(0.7071 -0.7071 0.7071 0.7071 -3.8413 9.2751)" class="st0" cx="9.3" cy="9.3" rx="0.9" ry="0.9"/>
				<ellipse transform="matrix(0.7066 -0.7076 0.7076 0.7066 -6.0994 14.739)" class="st0" cx="14.7" cy="14.7" rx="0.9" ry="0.9"/>
			</g>
			<g>
				<ellipse transform="matrix(0.7071 -0.7071 0.7071 0.7071 -2.2456 13.1277)" class="st0" cx="14.7" cy="9.3" rx="0.9" ry="0.9"/>
				<ellipse transform="matrix(0.7076 -0.7066 0.7066 0.7076 -7.6924 10.859)" class="st0" cx="9.3" cy="14.7" rx="0.9" ry="0.9"/>
			</g>
		</g>
		<path class="st0" d="M13,12.4c0,0.3-0.2,0.6-0.6,0.6h-0.8c-0.3,0-0.6-0.2-0.6-0.6v-0.8c0-0.3,0.2-0.6,0.6-0.6h0.8
			c0.3,0,0.6,0.3,0.6,0.6V12.4z"/>
	</g>
</g>
</svg>
