<?xml version="1.0" encoding="utf-8"?>
<!-- Generator: Adobe Illustrator 21.0.0, SVG Export Plug-In . SVG Version: 6.00 Build 0)  -->
<svg version="1.1" id="Layer_1" xmlns="http://www.w3.org/2000/svg" xmlns:xlink="http://www.w3.org/1999/xlink" x="0px" y="0px"
	 viewBox="0 0 24 24" style="enable-background:new 0 0 24 24;" xml:space="preserve">
<style type="text/css">
	.st0{fill:none;stroke:#000000;stroke-linecap:round;stroke-linejoin:round;stroke-miterlimit:10;}
	
		.st1{fill-rule:evenodd;clip-rule:evenodd;fill:none;stroke:#000000;stroke-linecap:round;stroke-linejoin:round;stroke-miterlimit:10;}
	.st2{fill:none;stroke:#000000;stroke-linecap:square;stroke-linejoin:round;stroke-miterlimit:10;}
	.st3{fill:none;stroke:#000000;stroke-linecap:square;stroke-miterlimit:10;}
</style>
<g>
	<g>
		<path class="st3" d="M16.9,4.2h2.9c-4.3-4.3-11.3-4.3-15.6,0"/>
		<path class="st3" d="M7.1,19.8H6.3H4.2c4.3,4.3,11.3,4.3,15.6,0"/>
	</g>
	<g>
		<g>
			<g>
				<line class="st0" x1="2.9" y1="8.8" x2="2.9" y2="10.2"/>
				<line class="st0" x1="2.9" y1="15.7" x2="2.9" y2="16.4"/>
				<line class="st0" x1="4.8" y1="15.5" x2="1" y2="15.5"/>
				<line class="st0" x1="4.8" y1="8.5" x2="1" y2="8.5"/>
				<line class="st0" x1="23" y1="8.5" x2="19.2" y2="8.5"/>
				<line class="st0" x1="21.1" y1="8.8" x2="21.1" y2="10.2"/>
				<line class="st0" x1="21.1" y1="15.7" x2="21.1" y2="16.4"/>
				<line class="st0" x1="19.2" y1="15.5" x2="23" y2="15.5"/>
				<path class="st0" d="M21.5,10.3l-1.2,0c-0.6,0-1,0.4-1.2,0.9c-1.7-0.9-5-1.5-6-1.5c-0.4,0-0.7,0.1-1,0.2c-0.3-0.1-0.6-0.2-1-0.2
					c-1,0-4.3,0.6-6,1.5c-0.2-0.5-0.6-0.9-1.2-0.9H2.5c-0.7,0-1.3,0.6-1.3,1.3l0,1.3c0,0.7,0.6,1.3,1.3,1.3l1.2,0
					c0.6,0,1-0.4,1.2-0.9c1,0.5,2.5,0.9,3.9,1.2C9.1,15.3,10.4,16,12,16s2.9-0.7,3.2-1.6c1.3-0.3,2.9-0.7,3.9-1.2
					c0.2,0.5,0.6,0.9,1.2,0.9l1.2,0c0.7,0,1.3-0.6,1.3-1.3l0-1.3C22.7,10.8,22.1,10.3,21.5,10.3z"/>
			</g>
			<line class="st0" x1="10.4" y1="12.4" x2="13.6" y2="12.4"/>
		</g>
	</g>
</g>
</svg>
