<?xml version="1.0" encoding="utf-8"?>
<!-- Generator: Adobe Illustrator 21.0.0, SVG Export Plug-In . SVG Version: 6.00 Build 0)  -->
<svg version="1.1" id="Layer_1" xmlns="http://www.w3.org/2000/svg" xmlns:xlink="http://www.w3.org/1999/xlink" x="0px" y="0px"
	 viewBox="0 0 24 24" style="enable-background:new 0 0 24 24;" xml:space="preserve">
<style type="text/css">
	.st0{fill:none;stroke:#000000;stroke-linecap:round;stroke-linejoin:round;stroke-miterlimit:10;}
	
		.st1{fill-rule:evenodd;clip-rule:evenodd;fill:none;stroke:#000000;stroke-linecap:round;stroke-linejoin:round;stroke-miterlimit:10;}
	.st2{fill:none;stroke:#000000;stroke-linecap:square;stroke-linejoin:round;stroke-miterlimit:10;}
	.st3{fill:none;stroke:#000000;stroke-linecap:square;stroke-miterlimit:10;}
</style>
<g>
	<g>
		<ellipse transform="matrix(0.7074 -0.7068 0.7068 0.7074 -4.9706 11.9918)" class="st0" cx="12" cy="12" rx="1.3" ry="1.3"/>
		<path class="st0" d="M16.2,14.4c1.8-1.8,8-10.9,6.2-12.7l-7.3,7.3c-0.2-0.4-0.4-0.7-0.8-1C12.6,6,3.4-0.2,1.6,1.6l7.3,7.3
			c-0.4,0.2-0.7,0.4-1,0.8c-1.8,1.8-8,10.9-6.2,12.7l7.3-7.3c0.2,0.4,0.4,0.7,0.8,1c1.8,1.8,10.9,8,12.7,6.2l-7.3-7.3
			C15.5,14.9,15.8,14.7,16.2,14.4z M11.1,12.9c-0.4-0.4-0.5-1-0.3-1.5c0.1-0.1,0.1-0.3,0.3-0.4c0.5-0.5,1.3-0.5,1.9,0l0,0h0
			c0.5,0.5,0.5,1.3,0,1.9l0,0l0,0c-0.1,0.1-0.3,0.2-0.4,0.3C12,13.4,11.5,13.3,11.1,12.9z"/>
	</g>
	<g>
		<path class="st0" d="M23,12c0-2-0.6-4-1.5-5.6C21,7.3,20.5,8.1,20,9"/>
		<path class="st0" d="M17.5,6.5l2.3-2.3C17.8,2.2,15,1,12,1"/>
	</g>
	<g>
		<path class="st0" d="M19.4,12c0-0.6-0.1-1.2-0.2-1.7c-0.2,0.3-0.4,0.6-0.6,0.9"/>
		<path class="st0" d="M15.7,8.3l1.5-1.5c-1.3-1.3-3.2-2.2-5.3-2.2"/>
	</g>
	<g>
		<path class="st0" d="M4.6,12c0,0.6,0.1,1.2,0.2,1.7c0.2-0.3,0.4-0.6,0.6-0.9"/>
		<path class="st0" d="M8.3,15.7l-1.5,1.5c1.3,1.3,3.2,2.2,5.3,2.2"/>
	</g>
	<g>
		<path class="st0" d="M1,12c0,2,0.6,4,1.5,5.6C3,16.7,3.5,15.9,4,15"/>
		<path class="st0" d="M6.5,17.5l-2.3,2.3c2,2,4.7,3.2,7.8,3.2"/>
	</g>
</g>
</svg>
