<?xml version="1.0" encoding="utf-8"?>
<!-- Generator: Adobe Illustrator 21.0.0, SVG Export Plug-In . SVG Version: 6.00 Build 0)  -->
<svg version="1.1" id="Layer_1" xmlns="http://www.w3.org/2000/svg" xmlns:xlink="http://www.w3.org/1999/xlink" x="0px" y="0px"
	 viewBox="0 0 24 24" style="enable-background:new 0 0 24 24;" xml:space="preserve">
<style type="text/css">
	.st0{fill:none;stroke:#000000;stroke-linecap:round;stroke-linejoin:round;stroke-miterlimit:10;}
	
		.st1{fill-rule:evenodd;clip-rule:evenodd;fill:none;stroke:#000000;stroke-linecap:round;stroke-linejoin:round;stroke-miterlimit:10;}
	.st2{fill:none;stroke:#000000;stroke-linecap:square;stroke-linejoin:round;stroke-miterlimit:10;}
	.st3{fill:none;stroke:#000000;stroke-linecap:square;stroke-miterlimit:10;}
</style>
<g>
	<g>
		<g>
			<path class="st0" d="M12,23C5.9,23,1,18.1,1,12"/>
			<path class="st0" d="M12,1c6.1,0,11,4.9,11,11"/>
		</g>
		<g>
			<g>
				<path class="st0" d="M4.6,12c0,1.2,0.3,2.4,0.8,3.4"/>
				<path class="st0" d="M8.3,15.7l-1.5,1.5c1.3,1.3,3.2,2.2,5.3,2.2"/>
			</g>
			<g>
				<path class="st0" d="M15.7,8.3l1.5-1.5c-1.3-1.3-3.2-2.2-5.3-2.2"/>
				<path class="st0" d="M19.4,12c0-1.2-0.3-2.4-0.8-3.4"/>
			</g>
		</g>
		<polyline class="st0" points="10.2,8.1 3.4,18.4 4.5,19.5 9.4,14.6 18.4,20.6 19.5,19.5 14.6,14.6 13.8,15.9 		"/>
		<polyline class="st0" points="13.8,15.9 20.6,5.6 19.5,4.5 14.6,9.4 5.6,3.4 4.5,4.5 9.4,9.4 10.2,8.1 		"/>
	</g>
	<circle class="st0" cx="12" cy="12" r="1"/>
</g>
</svg>
