<?xml version="1.0" encoding="utf-8"?>
<!-- Generator: Adobe Illustrator 21.0.0, SVG Export Plug-In . SVG Version: 6.00 Build 0)  -->
<svg version="1.1" id="Layer_1" xmlns="http://www.w3.org/2000/svg" xmlns:xlink="http://www.w3.org/1999/xlink" x="0px" y="0px"
	 viewBox="0 0 24 24" style="enable-background:new 0 0 24 24;" xml:space="preserve">
<style type="text/css">
	.st0{fill:none;stroke:#000000;stroke-linecap:round;stroke-linejoin:round;stroke-miterlimit:10;}
	
		.st1{fill-rule:evenodd;clip-rule:evenodd;fill:none;stroke:#000000;stroke-linecap:round;stroke-linejoin:round;stroke-miterlimit:10;}
	.st2{fill:none;stroke:#000000;stroke-linecap:square;stroke-linejoin:round;stroke-miterlimit:10;}
	.st3{fill:none;stroke:#000000;stroke-linecap:square;stroke-miterlimit:10;}
</style>
<g>
	<g>
		<g>
			<g>
				<path class="st0" d="M19.7,13.6c-1.5-1.5-3.9-1.7-5.5-0.4H9.9c-1.7-1.2-4-1.1-5.6,0.4c-1.7,1.7-4.5,7.2-2.8,8.9
					c1.3,1.3,4.7,0,7.1-1.5h6.8c2.3,1.4,5.8,2.7,7.1,1.5C24.2,20.8,21.3,15.3,19.7,13.6z"/>
				<g>
					<path class="st0" d="M8,21.3c0,0,1.3-0.7,1.3-1.6"/>
					<path class="st0" d="M16,21.3c0,0-1.3-0.7-1.3-1.6"/>
				</g>
			</g>
			<g>
				<g>
					<g>
						<circle class="st0" cx="6.4" cy="14.7" r="0"/>
						<circle class="st0" cx="6.4" cy="17.7" r="0"/>
					</g>
					<g>
						<circle class="st0" cx="7.9" cy="16.2" r="0"/>
						<circle class="st0" cx="4.9" cy="16.2" r="0"/>
					</g>
				</g>
				<g>
					<g>
						<circle class="st0" cx="17.6" cy="14.7" r="0"/>
						<circle class="st0" cx="17.6" cy="17.7" r="0"/>
					</g>
					<g>
						<circle class="st0" cx="19.1" cy="16.2" r="0"/>
						<circle class="st0" cx="16.1" cy="16.2" r="0"/>
					</g>
				</g>
			</g>
		</g>
		<g>
			<g>
				<g>
					<line class="st0" x1="10.8" y1="15.4" x2="13.2" y2="17.7"/>
					<line class="st0" x1="13.2" y1="15.4" x2="10.8" y2="17.7"/>
				</g>
				<g>
					
						<ellipse transform="matrix(0.7078 -0.7064 0.7064 0.7078 -7.5527 11.8495)" class="st0" cx="10.5" cy="15.1" rx="0.5" ry="0.5"/>
					<ellipse transform="matrix(0.7074 -0.7069 0.7069 0.7074 -8.7584 14.7649)" class="st0" cx="13.5" cy="18" rx="0.5" ry="0.5"/>
				</g>
				<g>
					
						<ellipse transform="matrix(0.7061 -0.7081 0.7081 0.7061 -6.7066 13.9494)" class="st0" cx="13.5" cy="15.1" rx="0.5" ry="0.5"/>
					<ellipse transform="matrix(0.7071 -0.7071 0.7071 0.7071 -9.6105 12.7187)" class="st0" cx="10.5" cy="18" rx="0.5" ry="0.5"/>
				</g>
			</g>
			<path class="st0" d="M12.5,16.7c0,0.2-0.1,0.3-0.3,0.3h-0.4c-0.2,0-0.3-0.1-0.3-0.3v-0.4c0-0.2,0.1-0.3,0.3-0.3h0.4
				c0.2,0,0.3,0.1,0.3,0.3V16.7z"/>
		</g>
	</g>
	<g>
		<g>
			<path class="st0" d="M17.9,6c-1.6-1.6-3.7-2.4-5.9-2.4C9.8,3.5,7.7,4.4,6.1,6L4.3,4.2C6.4,2.1,9.1,1,12,1c2.9,0,5.6,1.1,7.7,3.2
				L17.9,6z"/>
		</g>
		<g>
			<path class="st0" d="M14.8,9.2c-1.6-1.6-4.1-1.6-5.7,0L7.4,7.4c2.5-2.5,6.7-2.5,9.2,0L14.8,9.2z"/>
		</g>
		<g>
			<path class="st0" d="M12,11.9l-1.6-1.6c0.9-0.9,2.3-0.9,3.2,0L12,11.9z"/>
		</g>
	</g>
</g>
</svg>
