<?xml version="1.0" encoding="utf-8"?>
<!-- Generator: Adobe Illustrator 21.0.0, SVG Export Plug-In . SVG Version: 6.00 Build 0)  -->
<svg version="1.1" id="Layer_1" xmlns="http://www.w3.org/2000/svg" xmlns:xlink="http://www.w3.org/1999/xlink" x="0px" y="0px"
	 viewBox="0 0 24 24" style="enable-background:new 0 0 24 24;" xml:space="preserve">
<style type="text/css">
	.st0{fill:none;stroke:#000000;stroke-linecap:round;stroke-linejoin:round;stroke-miterlimit:10;}
	
		.st1{fill-rule:evenodd;clip-rule:evenodd;fill:none;stroke:#000000;stroke-linecap:round;stroke-linejoin:round;stroke-miterlimit:10;}
	.st2{fill:none;stroke:#000000;stroke-linecap:square;stroke-linejoin:round;stroke-miterlimit:10;}
	.st3{fill:none;stroke:#000000;stroke-linecap:square;stroke-miterlimit:10;}
</style>
<g>
	<g>
		<path class="st0" d="M17.3,19.4h3.7c0-5-4.1-9.1-9.1-9.1c-5,0-9.1,4.1-9.1,9.1h3.7"/>
		<g>
			<g>
				<line class="st0" x1="2.9" y1="1.3" x2="2.9" y2="2.6"/>
				<line class="st0" x1="2.9" y1="8.2" x2="2.9" y2="8.9"/>
				<line class="st0" x1="4.8" y1="8" x2="1" y2="8"/>
				<line class="st0" x1="4.8" y1="1" x2="1" y2="1"/>
				<line class="st0" x1="23" y1="1" x2="19.2" y2="1"/>
				<line class="st0" x1="21.1" y1="1.3" x2="21.1" y2="2.6"/>
				<line class="st0" x1="21.1" y1="8.2" x2="21.1" y2="8.9"/>
				<line class="st0" x1="19.2" y1="8" x2="23" y2="8"/>
				<path class="st0" d="M21.5,2.8h-1.2c-0.6,0-1,0.4-1.2,0.9c-1.7-0.9-5-1.5-6-1.5c-0.4,0-0.7,0.1-1,0.2c-0.3-0.1-0.7-0.2-1-0.2
					c-1,0-4.3,0.6-6,1.5C4.8,3.1,4.3,2.8,3.8,2.8H2.5C1.8,2.8,1.3,3.3,1.3,4v1.3c0,0.7,0.6,1.3,1.3,1.3h1.2c0.6,0,1-0.4,1.2-0.9
					c1,0.5,2.5,0.9,3.9,1.2c0.2,0.9,1.6,1.6,3.2,1.6c1.6,0,2.9-0.7,3.2-1.6C16.5,6.6,18,6.2,19,5.7c0.2,0.5,0.6,0.9,1.2,0.9h1.2
					c0.7,0,1.3-0.6,1.3-1.3V4C22.7,3.3,22.2,2.8,21.5,2.8z"/>
			</g>
			<line class="st0" x1="10.4" y1="4.9" x2="13.6" y2="4.9"/>
		</g>
		<line class="st0" x1="12" y1="8.5" x2="12" y2="10.3"/>
	</g>
	<g>
		<rect x="7" y="13.9" class="st0" width="10" height="9.1"/>
	</g>
	<g>
		<circle class="st0" cx="12" cy="18.4" r="3"/>
		<ellipse class="st0" cx="12" cy="18.4" rx="1.4" ry="3"/>
		<line class="st0" x1="9" y1="18.4" x2="15" y2="18.4"/>
	</g>
</g>
</svg>
