<?xml version="1.0" encoding="utf-8"?>
<!-- Generator: Adobe Illustrator 21.0.0, SVG Export Plug-In . SVG Version: 6.00 Build 0)  -->
<svg version="1.1" id="Layer_1" xmlns="http://www.w3.org/2000/svg" xmlns:xlink="http://www.w3.org/1999/xlink" x="0px" y="0px"
	 viewBox="0 0 24 24" style="enable-background:new 0 0 24 24;" xml:space="preserve">
<style type="text/css">
	.st0{fill:none;stroke:#000000;stroke-linecap:round;stroke-linejoin:round;stroke-miterlimit:10;}
	
		.st1{fill-rule:evenodd;clip-rule:evenodd;fill:none;stroke:#000000;stroke-linecap:round;stroke-linejoin:round;stroke-miterlimit:10;}
	.st2{fill:none;stroke:#000000;stroke-linecap:square;stroke-linejoin:round;stroke-miterlimit:10;}
	.st3{fill:none;stroke:#000000;stroke-linecap:square;stroke-miterlimit:10;}
</style>
<g>
	<g>
		<path class="st0" d="M17.9,21c0,1.1-0.9,2-2,2H8.1c-1.1,0-2-0.9-2-2V3c0-1.1,0.9-2,2-2h7.8c1.1,0,2,0.9,2,2V21z"/>
		<rect x="6.2" y="4.6" class="st0" width="11.7" height="14.9"/>
		<line class="st0" x1="10.8" y1="21.2" x2="13.2" y2="21.2"/>
	</g>
	<g>
		<g>
			<g>
				<line class="st0" x1="10.9" y1="7.7" x2="13.1" y2="10"/>
				<line class="st0" x1="13.1" y1="7.7" x2="10.9" y2="10"/>
			</g>
			<g>
				<ellipse transform="matrix(0.7069 -0.7074 0.7074 0.7069 -2.1619 9.6462)" class="st0" cx="10.6" cy="7.4" rx="0.5" ry="0.5"/>
				
					<ellipse transform="matrix(0.7069 -0.7074 0.7074 0.7069 -3.3584 12.5344)" class="st0" cx="13.4" cy="10.3" rx="0.5" ry="0.5"/>
			</g>
			<g>
				<ellipse transform="matrix(0.7064 -0.7078 0.7078 0.7064 -1.313 11.6975)" class="st0" cx="13.4" cy="7.4" rx="0.5" ry="0.5"/>
				
					<ellipse transform="matrix(0.7083 -0.7059 0.7059 0.7083 -4.2048 10.4618)" class="st0" cx="10.6" cy="10.3" rx="0.5" ry="0.5"/>
			</g>
		</g>
		<path class="st0" d="M12.5,9.1c0,0.2-0.1,0.3-0.3,0.3h-0.4c-0.2,0-0.3-0.1-0.3-0.3V8.7c0-0.2,0.1-0.3,0.3-0.3h0.4
			c0.2,0,0.3,0.1,0.3,0.3V9.1z"/>
	</g>
	<g>
		<path class="st0" d="M10.4,13.7c0.9-0.9,2.3-0.9,3.1,0"/>
		<path class="st0" d="M13.5,16.8c-0.9,0.9-2.3,0.9-3.1,0"/>
		<polyline class="st0" points="13.8,13.3 13.8,13.9 13.2,13.9 		"/>
		<polyline class="st0" points="10.2,17.1 10.2,16.5 10.8,16.5 		"/>
	</g>
</g>
</svg>
