<?xml version="1.0" encoding="utf-8"?>
<!-- Generator: Adobe Illustrator 21.0.0, SVG Export Plug-In . SVG Version: 6.00 Build 0)  -->
<svg version="1.1" id="Layer_1" xmlns="http://www.w3.org/2000/svg" xmlns:xlink="http://www.w3.org/1999/xlink" x="0px" y="0px"
	 viewBox="0 0 24 24" style="enable-background:new 0 0 24 24;" xml:space="preserve">
<style type="text/css">
	.st0{fill:none;stroke:#000000;stroke-linecap:round;stroke-linejoin:round;stroke-miterlimit:10;}
	
		.st1{fill-rule:evenodd;clip-rule:evenodd;fill:none;stroke:#000000;stroke-linecap:round;stroke-linejoin:round;stroke-miterlimit:10;}
	.st2{fill:none;stroke:#000000;stroke-linecap:square;stroke-linejoin:round;stroke-miterlimit:10;}
	.st3{fill:none;stroke:#000000;stroke-linecap:square;stroke-miterlimit:10;}
</style>
<g>
	<g>
		<g>
			<g>
				<path class="st0" d="M12.3,12.1c-4,0-7.2-3.2-7.2-7.2"/>
				<path class="st0" d="M12.3,12.1c4,0,7.2,3.2,7.2,7.2"/>
			</g>
			<g>
				<line class="st0" x1="3.5" y1="4" x2="6.6" y2="1"/>
				<line class="st0" x1="6.6" y1="4" x2="3.5" y2="1"/>
			</g>
			<circle class="st0" cx="19.5" cy="22" r="1"/>
		</g>
		<g>
			<g>
				<g>
					<line class="st0" x1="14.4" y1="2.6" x2="18.9" y2="7.1"/>
					<line class="st0" x1="18.9" y1="2.6" x2="14.4" y2="7.1"/>
				</g>
				<g>
					<ellipse transform="matrix(0.7078 -0.7065 0.7065 0.7078 2.6425 10.3161)" class="st0" cx="13.8" cy="2" rx="1" ry="1"/>
					<ellipse transform="matrix(0.7072 -0.707 0.707 0.7072 0.2859 16.0229)" class="st0" cx="19.5" cy="7.7" rx="1" ry="1"/>
				</g>
				<g>
					<ellipse transform="matrix(0.706 -0.7082 0.7082 0.706 4.3394 14.3807)" class="st0" cx="19.5" cy="2" rx="1" ry="1"/>
					<ellipse transform="matrix(0.7075 -0.7067 0.7067 0.7075 -1.3841 11.9886)" class="st0" cx="13.8" cy="7.7" rx="1" ry="1"/>
				</g>
			</g>
			<path class="st0" d="M17.6,5.2c0,0.3-0.3,0.6-0.6,0.6h-0.8c-0.3,0-0.6-0.3-0.6-0.6V4.4c0-0.3,0.3-0.6,0.6-0.6h0.8
				c0.3,0,0.6,0.3,0.6,0.6V5.2z"/>
		</g>
	</g>
	<polygon class="st0" points="10.6,20 10.6,18.5 8.8,18.5 8.8,13.9 5.3,13.9 5.3,17.1 3.5,17.1 3.5,23 5.3,23 7.1,23 8.8,23 
		10.2,23 10.6,23 13.8,23 13.8,20 	"/>
</g>
</svg>
