<?xml version="1.0" encoding="utf-8"?>
<!-- Generator: Adobe Illustrator 21.0.0, SVG Export Plug-In . SVG Version: 6.00 Build 0)  -->
<svg version="1.1" id="Layer_1" xmlns="http://www.w3.org/2000/svg" xmlns:xlink="http://www.w3.org/1999/xlink" x="0px" y="0px"
	 viewBox="0 0 24 24" style="enable-background:new 0 0 24 24;" xml:space="preserve">
<style type="text/css">
	.st0{fill:none;stroke:#000000;stroke-linecap:round;stroke-linejoin:round;stroke-miterlimit:10;}
	
		.st1{fill-rule:evenodd;clip-rule:evenodd;fill:none;stroke:#000000;stroke-linecap:round;stroke-linejoin:round;stroke-miterlimit:10;}
	.st2{fill:none;stroke:#000000;stroke-linecap:square;stroke-linejoin:round;stroke-miterlimit:10;}
	.st3{fill:none;stroke:#000000;stroke-linecap:square;stroke-miterlimit:10;}
</style>
<g>
	<rect x="5.6" y="10.2" class="st0" width="12.8" height="12.8"/>
	<g>
		<g>
			<path class="st0" d="M18.2,6.1C17.6,3.2,15.1,1,12,1C8.9,1,6.4,3.2,5.8,6.1H18.2z"/>
			<path class="st0" d="M14.8,6.1C14.5,3.2,13.4,1,12,1c-1.4,0-2.5,2.2-2.8,5.1H14.8z"/>
		</g>
		<g>
			<polyline class="st0" points="15.7,6.2 12,9.8 8.3,6.2 			"/>
			<line class="st0" x1="12" y1="6.1" x2="12" y2="9.4"/>
		</g>
	</g>
	<g>
		<g>
			<path class="st0" d="M14.4,13H13c-0.5,0-0.9-0.3-1-0.8C11.9,12.7,11.4,13,11,13H9.6c-0.5,0-0.9-0.3-1-0.8v3.9
				c0,2.2,1.5,4.1,3.5,4.7c2-0.6,3.5-2.5,3.5-4.7v-3.9C15.3,12.7,14.9,13,14.4,13z"/>
		</g>
		<line class="st0" x1="12" y1="15.5" x2="12" y2="18"/>
		<line class="st0" x1="13.3" y1="16.8" x2="10.7" y2="16.8"/>
	</g>
</g>
</svg>
