<?xml version="1.0" encoding="utf-8"?>
<!-- Generator: Adobe Illustrator 21.0.0, SVG Export Plug-In . SVG Version: 6.00 Build 0)  -->
<svg version="1.1" id="Layer_1" xmlns="http://www.w3.org/2000/svg" xmlns:xlink="http://www.w3.org/1999/xlink" x="0px" y="0px"
	 viewBox="0 0 24 24" style="enable-background:new 0 0 24 24;" xml:space="preserve">
<style type="text/css">
	.st0{fill:none;stroke:#000000;stroke-linecap:round;stroke-linejoin:round;stroke-miterlimit:10;}
	
		.st1{fill-rule:evenodd;clip-rule:evenodd;fill:none;stroke:#000000;stroke-linecap:round;stroke-linejoin:round;stroke-miterlimit:10;}
	.st2{fill:none;stroke:#000000;stroke-linecap:square;stroke-linejoin:round;stroke-miterlimit:10;}
	.st3{fill:none;stroke:#000000;stroke-linecap:square;stroke-miterlimit:10;}
</style>
<g>
	<g>
		<ellipse transform="matrix(0.7073 -0.7069 0.7069 0.7073 -4.9706 11.9954)" class="st0" cx="12" cy="12" rx="1.3" ry="1.3"/>
		<path class="st0" d="M14.4,7.8C12.6,6,3.4-0.2,1.6,1.6l9.4,9.4c0.5-0.5,1.3-0.5,1.9,0c0.5,0.5,0.5,1.3,0,1.9l1.4,1.4
			C16.2,12.6,16.2,9.6,14.4,7.8z"/>
		<path class="st0" d="M12.9,12.9c-0.5,0.5-1.3,0.5-1.9,0c-0.5-0.5-0.5-1.3,0-1.9l0,0L9.6,9.6c-1.8,1.8-1.8,4.7,0,6.5
			c1.8,1.8,10.9,8,12.7,6.2L12.9,12.9z"/>
	</g>
	<g>
		<g>
			<path class="st0" d="M12,23C5.9,23,1,18.1,1,12"/>
			<path class="st0" d="M12,1c6.1,0,11,4.9,11,11"/>
		</g>
		<g>
			<path class="st0" d="M12,19.4c-4.1,0-7.4-3.3-7.4-7.4"/>
			<path class="st0" d="M12,4.6c4.1,0,7.4,3.3,7.4,7.4"/>
		</g>
	</g>
</g>
</svg>
