<?xml version="1.0" encoding="utf-8"?>
<!-- Generator: Adobe Illustrator 21.0.0, SVG Export Plug-In . SVG Version: 6.00 Build 0)  -->
<svg version="1.1" id="Layer_1" xmlns="http://www.w3.org/2000/svg" xmlns:xlink="http://www.w3.org/1999/xlink" x="0px" y="0px"
	 viewBox="0 0 24 24" style="enable-background:new 0 0 24 24;" xml:space="preserve">
<style type="text/css">
	.st0{fill:none;stroke:#000000;stroke-linecap:round;stroke-linejoin:round;stroke-miterlimit:10;}
	
		.st1{fill-rule:evenodd;clip-rule:evenodd;fill:none;stroke:#000000;stroke-linecap:round;stroke-linejoin:round;stroke-miterlimit:10;}
	.st2{fill:none;stroke:#000000;stroke-linecap:square;stroke-linejoin:round;stroke-miterlimit:10;}
	.st3{fill:none;stroke:#000000;stroke-linecap:square;stroke-miterlimit:10;}
</style>
<g>
	<g>
		<g>
			<path class="st0" d="M15.8,5.2L18,4c0.6-0.3,1.3-0.2,1.8,0.3C20.2,4.7,20.3,5.5,20,6l-1.2,2.2c1.1,0.2,2.3-0.2,3.1-1
				c1.4-1.4,1.4-3.7,0-5.2c-1.4-1.4-3.7-1.4-5.2,0C15.9,2.9,15.6,4.1,15.8,5.2z"/>
			<path class="st0" d="M8.2,18.8L6,20c-0.6,0.3-1.3,0.2-1.8-0.3c-0.5-0.5-0.6-1.2-0.3-1.8l1.2-2.2c-1.1-0.2-2.3,0.2-3.1,1
				c-1.4,1.4-1.4,3.7,0,5.2c1.4,1.4,3.7,1.4,5.2,0C8.1,21.1,8.4,19.9,8.2,18.8z"/>
			<path class="st0" d="M18.8,15.8l1.2,2.2c0.3,0.6,0.2,1.3-0.3,1.8c-0.5,0.5-1.2,0.6-1.8,0.3l-2.2-1.2c-0.2,1.1,0.2,2.3,1,3.1
				c1.4,1.4,3.7,1.4,5.2,0c1.4-1.4,1.4-3.7,0-5.2C21.1,15.9,19.9,15.6,18.8,15.8z"/>
			<g>
				<path class="st0" d="M7,11.7c0-0.2,0-0.5,0.1-0.7l-0.8-0.8C6.1,10,6.1,9.8,6.2,9.6L7,8.2C7.1,8,7.3,7.9,7.6,8l1.1,0.3
					C8.9,8,9.2,7.8,9.5,7.7c0.3-0.2,0.6-0.3,0.9-0.4l0.2-0.8L6,4C5.5,3.7,4.7,3.8,4.3,4.3C3.8,4.7,3.7,5.5,4,6L7,11.7z"/>
				<path class="st0" d="M13.6,7.3c0.7,0.2,1.3,0.6,1.8,1L16.4,8c0.2-0.1,0.5,0,0.6,0.2l0.8,1.4c0.1,0.2,0.1,0.5-0.1,0.6L16.9,11
					c0,0.2,0.1,0.5,0.1,0.7L20,6c0.3-0.6,0.2-1.3-0.3-1.8C19.3,3.8,18.5,3.7,18,4l-4.6,2.5L13.6,7.3z"/>
				<path class="st0" d="M10.4,16.7c-0.7-0.2-1.3-0.6-1.8-1L7.6,16c-0.2,0.1-0.5,0-0.6-0.2l-0.8-1.4c-0.1-0.2-0.1-0.5,0.1-0.6
					L7.1,13c0-0.2-0.1-0.5-0.1-0.7l-3,5.6c-0.3,0.6-0.2,1.3,0.3,1.8C4.7,20.2,5.5,20.3,6,20l4.6-2.5L10.4,16.7z"/>
				<path class="st0" d="M17,12.3c0,0.2,0,0.5-0.1,0.7l0.8,0.8c0.2,0.2,0.2,0.4,0.1,0.6L17,15.8c-0.1,0.2-0.4,0.3-0.6,0.2l-1.1-0.3
					c-0.3,0.2-0.5,0.4-0.8,0.6c-0.3,0.2-0.6,0.3-0.9,0.4l-0.2,0.8L18,20c0.6,0.3,1.3,0.2,1.8-0.3c0.5-0.5,0.6-1.2,0.3-1.8L17,12.3z"
					/>
			</g>
			<path class="st0" d="M5.2,8.2L4,6C3.7,5.5,3.8,4.7,4.3,4.3C4.7,3.8,5.5,3.7,6,4l2.2,1.2c0.2-1.1-0.2-2.3-1-3.1
				c-1.4-1.4-3.7-1.4-5.2,0c-1.4,1.4-1.4,3.7,0,5.2C2.9,8.1,4.1,8.4,5.2,8.2z"/>
		</g>
	</g>
	<g>
		<g>
			<g>
				<g>
					<path class="st0" d="M12.8,18.2h-1.6c-0.2,0-0.4-0.2-0.5-0.4l-0.3-1.1c-0.7-0.2-1.3-0.6-1.8-1L7.6,16c-0.2,0.1-0.5,0-0.6-0.2
						l-0.8-1.4c-0.1-0.2-0.1-0.5,0.1-0.6L7.1,13C7,12.3,7,11.6,7.1,11l-0.8-0.8C6.1,10,6.1,9.8,6.2,9.6L7,8.2C7.1,8,7.3,7.9,7.6,8
						l1.1,0.3C8.9,8,9.2,7.8,9.5,7.7c0.3-0.2,0.6-0.3,0.9-0.4l0.3-1.1c0.1-0.2,0.3-0.4,0.5-0.4h1.6c0,0,0,0,0,0
						c0.2,0,0.4,0.2,0.5,0.4l0.3,1.1c0.7,0.2,1.3,0.6,1.8,1L16.4,8c0.2-0.1,0.5,0,0.6,0.2l0.8,1.4c0.1,0.2,0.1,0.5-0.1,0.6L16.9,11
						c0.1,0.7,0.1,1.4,0,2l0.8,0.8c0.2,0.2,0.2,0.4,0.1,0.6L17,15.8c-0.1,0.2-0.4,0.3-0.6,0.2l-1.1-0.3c-0.3,0.2-0.5,0.4-0.8,0.6
						c-0.3,0.2-0.6,0.3-0.9,0.4l-0.3,1.1C13.2,18.1,13,18.2,12.8,18.2z"/>
				</g>
			</g>
			<g>
				<path class="st0" d="M13.4,10.1l1,1.7c0.1,0.1,0.1,0.3,0,0.4l-1,1.7c-0.1,0.1-0.2,0.2-0.4,0.2l-2,0c-0.2,0-0.3-0.1-0.4-0.2
					l-1-1.7c-0.1-0.1-0.1-0.3,0-0.4l1-1.7c0.1-0.1,0.2-0.2,0.4-0.2h2C13.1,9.9,13.3,9.9,13.4,10.1z"/>
			</g>
		</g>
	</g>
</g>
</svg>
