<?xml version="1.0" encoding="utf-8"?>
<!-- Generator: Adobe Illustrator 21.0.0, SVG Export Plug-In . SVG Version: 6.00 Build 0)  -->
<svg version="1.1" id="Layer_1" xmlns="http://www.w3.org/2000/svg" xmlns:xlink="http://www.w3.org/1999/xlink" x="0px" y="0px"
	 viewBox="0 0 24 24" style="enable-background:new 0 0 24 24;" xml:space="preserve">
<style type="text/css">
	.st0{fill:none;stroke:#000000;stroke-linecap:round;stroke-linejoin:round;stroke-miterlimit:10;}
	
		.st1{fill-rule:evenodd;clip-rule:evenodd;fill:none;stroke:#000000;stroke-linecap:round;stroke-linejoin:round;stroke-miterlimit:10;}
	.st2{fill:none;stroke:#000000;stroke-linecap:square;stroke-linejoin:round;stroke-miterlimit:10;}
	.st3{fill:none;stroke:#000000;stroke-linecap:square;stroke-miterlimit:10;}
</style>
<g>
	<g>
		<g>
			<g>
				<g>
					<path class="st0" d="M9.4,14.9L8.5,17l-3.4-2.1l-0.8-3.2l-1.4-1.3l0,5.8h0l4.1,4.2L6.3,23h4.1l-0.1-3.2v-0.9v-4.3L9.4,14.9z"/>
				</g>
				<g>
					<path class="st0" d="M13.7,14.6v4.3v0.9L13.6,23h4.1l-0.6-2.6l4.1-4.2l0,0v-5.8l-1.4,1.3l-0.8,3.2L15.5,17l-0.9-2.1L13.7,14.6z
						"/>
				</g>
			</g>
		</g>
	</g>
	<g>
		<g>
			<line class="st0" x1="2.9" y1="1.3" x2="2.9" y2="2.6"/>
			<line class="st0" x1="2.9" y1="8.2" x2="2.9" y2="8.8"/>
			<line class="st0" x1="4.8" y1="7.9" x2="1" y2="7.9"/>
			<line class="st0" x1="4.8" y1="1" x2="1" y2="1"/>
			<line class="st0" x1="23" y1="1" x2="19.2" y2="1"/>
			<line class="st0" x1="21.1" y1="1.3" x2="21.1" y2="2.6"/>
			<line class="st0" x1="21.1" y1="8.2" x2="21.1" y2="8.8"/>
			<line class="st0" x1="19.2" y1="7.9" x2="23" y2="7.9"/>
			<path class="st0" d="M21.4,2.7h-1.2c-0.6,0-1,0.4-1.2,0.9c-1.7-0.9-5-1.5-6-1.5c-0.4,0-0.7,0.1-1,0.2c-0.3-0.1-0.6-0.2-1-0.2
				c-1,0-4.3,0.6-6,1.5C4.8,3.1,4.4,2.7,3.8,2.7H2.6C1.9,2.7,1.3,3.3,1.3,4v1.3c0,0.7,0.6,1.3,1.3,1.3h1.2c0.6,0,1-0.4,1.2-0.9
				c1,0.5,2.5,0.9,3.9,1.2c0.2,0.9,1.5,1.6,3.2,1.6c1.6,0,2.9-0.7,3.2-1.6C16.5,6.6,18,6.2,19,5.7c0.2,0.5,0.6,0.9,1.2,0.9h1.2
				c0.7,0,1.3-0.6,1.3-1.3V4C22.7,3.3,22.1,2.7,21.4,2.7z"/>
		</g>
		<line class="st0" x1="10.4" y1="4.9" x2="13.6" y2="4.9"/>
	</g>
</g>
</svg>
