<?xml version="1.0" encoding="utf-8"?>
<!-- Generator: Adobe Illustrator 21.0.0, SVG Export Plug-In . SVG Version: 6.00 Build 0)  -->
<svg version="1.1" id="Layer_1" xmlns="http://www.w3.org/2000/svg" xmlns:xlink="http://www.w3.org/1999/xlink" x="0px" y="0px"
	 viewBox="0 0 24 24" style="enable-background:new 0 0 24 24;" xml:space="preserve">
<style type="text/css">
	.st0{fill:none;stroke:#000000;stroke-linecap:round;stroke-linejoin:round;stroke-miterlimit:10;}
	
		.st1{fill-rule:evenodd;clip-rule:evenodd;fill:none;stroke:#000000;stroke-linecap:round;stroke-linejoin:round;stroke-miterlimit:10;}
	.st2{fill:none;stroke:#000000;stroke-linecap:square;stroke-linejoin:round;stroke-miterlimit:10;}
	.st3{fill:none;stroke:#000000;stroke-linecap:square;stroke-miterlimit:10;}
</style>
<g>
	<g>
		<g>
			<line class="st0" x1="2.9" y1="15.5" x2="2.9" y2="16.8"/>
			<line class="st0" x1="2.9" y1="22.3" x2="2.9" y2="23"/>
			<line class="st0" x1="4.8" y1="22.1" x2="1" y2="22.1"/>
			<line class="st0" x1="4.8" y1="15.1" x2="1" y2="15.1"/>
			<line class="st0" x1="23" y1="15.1" x2="19.2" y2="15.1"/>
			<line class="st0" x1="21.1" y1="15.5" x2="21.1" y2="16.8"/>
			<line class="st0" x1="21.1" y1="22.3" x2="21.1" y2="23"/>
			<line class="st0" x1="19.2" y1="22.1" x2="23" y2="22.1"/>
			<path class="st0" d="M21.5,16.9h-1.2c-0.6,0-1,0.4-1.2,0.9c-1.7-0.9-5-1.5-6-1.5c-0.4,0-0.7,0.1-1,0.2c-0.3-0.1-0.7-0.2-1-0.2
				c-1,0-4.3,0.6-6,1.5c-0.2-0.5-0.6-0.9-1.2-0.9H2.5c-0.7,0-1.3,0.6-1.3,1.3v1.3c0,0.7,0.6,1.3,1.3,1.3h1.2c0.6,0,1-0.4,1.2-0.9
				c1,0.5,2.5,0.9,3.9,1.2c0.2,0.9,1.6,1.6,3.2,1.6c1.6,0,2.9-0.7,3.2-1.6c1.3-0.3,2.9-0.7,3.9-1.2c0.2,0.5,0.6,0.9,1.2,0.9h1.2
				c0.7,0,1.3-0.6,1.3-1.3v-1.3C22.7,17.5,22.2,16.9,21.5,16.9z"/>
		</g>
		<line class="st0" x1="10.4" y1="19.1" x2="13.6" y2="19.1"/>
	</g>
	<g>
		<g>
			<line class="st0" x1="12" y1="1" x2="12" y2="2"/>
			<line class="st0" x1="12" y1="7.5" x2="12" y2="10.7"/>
			<line class="st0" x1="12" y1="3.8" x2="12" y2="3.8"/>
			<line class="st0" x1="12" y1="5.6" x2="12" y2="5.9"/>
		</g>
		<g>
			<g>
				<path class="st0" d="M12,13.6L8.4,10C8,9.7,8,9,8.4,8.6c0.4-0.4,1-0.4,1.4,0l2.2,2.2l2.2-2.2c0.4-0.4,1-0.4,1.4,0
					c0.4,0.4,0.4,1,0,1.4L12,13.6z"/>
			</g>
		</g>
		<g>
			<g>
				<line class="st0" x1="7.2" y1="2.8" x2="7.2" y2="3.4"/>
				<line class="st0" x1="7.2" y1="5.4" x2="7.2" y2="6.9"/>
			</g>
			<polyline class="st0" points="8.2,6.4 7.2,7.4 6.2,6.4 			"/>
		</g>
		<g>
			<g>
				<line class="st0" x1="16.8" y1="2.8" x2="16.8" y2="3.4"/>
				<line class="st0" x1="16.8" y1="5.4" x2="16.8" y2="7.4"/>
			</g>
			<polyline class="st0" points="17.8,6.4 16.8,7.4 15.8,6.4 			"/>
		</g>
	</g>
</g>
</svg>
