<?xml version="1.0" encoding="utf-8"?>
<!-- Generator: Adobe Illustrator 21.0.0, SVG Export Plug-In . SVG Version: 6.00 Build 0)  -->
<svg version="1.1" id="Layer_1" xmlns="http://www.w3.org/2000/svg" xmlns:xlink="http://www.w3.org/1999/xlink" x="0px" y="0px"
	 viewBox="0 0 24 24" style="enable-background:new 0 0 24 24;" xml:space="preserve">
<style type="text/css">
	.st0{fill:none;stroke:#000000;stroke-linecap:round;stroke-linejoin:round;stroke-miterlimit:10;}
	
		.st1{fill-rule:evenodd;clip-rule:evenodd;fill:none;stroke:#000000;stroke-linecap:round;stroke-linejoin:round;stroke-miterlimit:10;}
	.st2{fill:none;stroke:#000000;stroke-linecap:square;stroke-linejoin:round;stroke-miterlimit:10;}
	.st3{fill:none;stroke:#000000;stroke-linecap:square;stroke-miterlimit:10;}
</style>
<g>
	<g>
		<path class="st0" d="M18.3,10.4L18.3,10.4c0.3-0.8,0.5-1.7,0.5-2.6C18.8,4,15.8,1,12,1C8.2,1,5.2,4,5.2,7.8c0,0.9,0.2,1.8,0.5,2.6
			l0,0l0,0c0.1,0.3,0.2,0.5,0.4,0.8L12,23l5.9-11.8C18,10.9,18.2,10.7,18.3,10.4L18.3,10.4z"/>
	</g>
	<g>
		<g>
			<g>
				<line class="st0" x1="10.4" y1="6.3" x2="13.6" y2="9.5"/>
				<line class="st0" x1="13.6" y1="6.3" x2="10.4" y2="9.5"/>
			</g>
			<g>
				<ellipse transform="matrix(0.7069 -0.7073 0.7073 0.7069 -1.2062 8.7664)" class="st0" cx="10" cy="5.8" rx="0.7" ry="0.7"/>
				<ellipse transform="matrix(0.7075 -0.7067 0.7067 0.7075 -2.8868 12.803)" class="st0" cx="14" cy="9.9" rx="0.7" ry="0.7"/>
			</g>
			<g>
				
					<ellipse transform="matrix(0.7059 -0.7083 0.7083 0.7059 -1.129636e-02 11.6501)" class="st0" cx="14" cy="5.8" rx="0.7" ry="0.7"/>
				<ellipse transform="matrix(0.7082 -0.706 0.706 0.7082 -4.0708 9.9287)" class="st0" cx="10" cy="9.9" rx="0.7" ry="0.7"/>
			</g>
		</g>
		<path class="st0" d="M12.7,8.2c0,0.2-0.2,0.4-0.4,0.4h-0.6c-0.2,0-0.4-0.2-0.4-0.4V7.6c0-0.2,0.2-0.4,0.4-0.4h0.6
			c0.2,0,0.4,0.2,0.4,0.4V8.2z"/>
	</g>
</g>
</svg>
