<?xml version="1.0" encoding="utf-8"?>
<!-- Generator: Adobe Illustrator 21.0.0, SVG Export Plug-In . SVG Version: 6.00 Build 0)  -->
<svg version="1.1" id="Layer_1" xmlns="http://www.w3.org/2000/svg" xmlns:xlink="http://www.w3.org/1999/xlink" x="0px" y="0px"
	 viewBox="0 0 24 24" style="enable-background:new 0 0 24 24;" xml:space="preserve">
<style type="text/css">
	.st0{fill:none;stroke:#000000;stroke-linecap:round;stroke-linejoin:round;stroke-miterlimit:10;}
	
		.st1{fill-rule:evenodd;clip-rule:evenodd;fill:none;stroke:#000000;stroke-linecap:round;stroke-linejoin:round;stroke-miterlimit:10;}
	.st2{fill:none;stroke:#000000;stroke-linecap:square;stroke-linejoin:round;stroke-miterlimit:10;}
	.st3{fill:none;stroke:#000000;stroke-linecap:square;stroke-miterlimit:10;}
</style>
<g>
	<g>
		<g>
			<g>
				<path class="st0" d="M19.7,13.6c-1.5-1.5-3.9-1.7-5.5-0.4H9.9c-1.7-1.2-4-1.1-5.6,0.4c-1.7,1.7-4.5,7.2-2.8,8.9
					c1.3,1.3,4.7,0,7.1-1.5h6.8c2.3,1.4,5.8,2.7,7.1,1.5C24.2,20.8,21.3,15.3,19.7,13.6z"/>
				<g>
					<path class="st0" d="M8,21.3c0,0,1.3-0.7,1.3-1.6"/>
					<path class="st0" d="M16,21.3c0,0-1.3-0.7-1.3-1.6"/>
				</g>
			</g>
			<g>
				<g>
					<g>
						<circle class="st0" cx="6.4" cy="14.7" r="0"/>
						<circle class="st0" cx="6.4" cy="17.7" r="0"/>
					</g>
					<g>
						<circle class="st0" cx="7.9" cy="16.2" r="0"/>
						<circle class="st0" cx="4.9" cy="16.2" r="0"/>
					</g>
				</g>
				<g>
					<g>
						<circle class="st0" cx="17.6" cy="14.7" r="0"/>
						<circle class="st0" cx="17.6" cy="17.7" r="0"/>
					</g>
					<g>
						<circle class="st0" cx="19.1" cy="16.2" r="0"/>
						<circle class="st0" cx="16.1" cy="16.2" r="0"/>
					</g>
				</g>
			</g>
		</g>
		<g>
			<g>
				<g>
					<line class="st0" x1="10.8" y1="4.7" x2="13.2" y2="7"/>
					<line class="st0" x1="13.2" y1="4.7" x2="10.8" y2="7"/>
				</g>
				<g>
					
						<ellipse transform="matrix(0.7079 -0.7063 0.7063 0.7079 -1.275529e-02 8.7299)" class="st0" cx="10.5" cy="4.4" rx="0.5" ry="0.5"/>
					
						<ellipse transform="matrix(0.7071 -0.7071 0.7071 0.7071 -1.2119 11.6465)" class="st0" cx="13.5" cy="7.3" rx="0.5" ry="0.5"/>
				</g>
				<g>
					<ellipse transform="matrix(0.7061 -0.7081 0.7081 0.7061 0.8521 10.8136)" class="st0" cx="13.5" cy="4.4" rx="0.5" ry="0.5"/>
					<ellipse transform="matrix(0.7074 -0.7069 0.7069 0.7074 -2.0636 9.5878)" class="st0" cx="10.5" cy="7.3" rx="0.5" ry="0.5"/>
				</g>
			</g>
			<path class="st0" d="M12.5,6.1c0,0.2-0.1,0.3-0.3,0.3h-0.4c-0.2,0-0.3-0.1-0.3-0.3V5.6c0-0.2,0.1-0.3,0.3-0.3h0.4
				c0.2,0,0.3,0.1,0.3,0.3V6.1z"/>
		</g>
	</g>
	<g>
		<path class="st0" d="M4.6,10.7C3.7,10.7,3,9.9,3,9V2.6C3,1.7,3.7,1,4.6,1h14.8C20.3,1,21,1.7,21,2.6V9c0,0.9-0.7,1.6-1.6,1.6H4.6z
			"/>
		<rect x="5.9" y="1" class="st0" width="12.2" height="9.6"/>
	</g>
	<rect x="10" y="10.7" class="st0" width="4.1" height="2.5"/>
</g>
</svg>
