<?xml version="1.0" encoding="utf-8"?>
<!-- Generator: Adobe Illustrator 21.0.0, SVG Export Plug-In . SVG Version: 6.00 Build 0)  -->
<svg version="1.1" id="Layer_1" xmlns="http://www.w3.org/2000/svg" xmlns:xlink="http://www.w3.org/1999/xlink" x="0px" y="0px"
	 viewBox="0 0 24 24" style="enable-background:new 0 0 24 24;" xml:space="preserve">
<style type="text/css">
	.st0{fill:none;stroke:#000000;stroke-linecap:round;stroke-linejoin:round;stroke-miterlimit:10;}
	
		.st1{fill-rule:evenodd;clip-rule:evenodd;fill:none;stroke:#000000;stroke-linecap:round;stroke-linejoin:round;stroke-miterlimit:10;}
	.st2{fill:none;stroke:#000000;stroke-linecap:square;stroke-linejoin:round;stroke-miterlimit:10;}
	.st3{fill:none;stroke:#000000;stroke-linecap:square;stroke-miterlimit:10;}
</style>
<g>
	<g>
		<path class="st3" d="M10,3l2-2C5.9,1,1,5.9,1,12"/>
		<path class="st3" d="M14,21l-0.6,0.6L12,23c6.1,0,11-4.9,11-11"/>
	</g>
	<g>
		<g>
			<g>
				<line class="st0" x1="8.6" y1="8.6" x2="15.4" y2="15.4"/>
				<line class="st0" x1="15.4" y1="8.6" x2="8.6" y2="15.4"/>
			</g>
			<g>
				<ellipse transform="matrix(0.7071 -0.7071 0.7071 0.7071 -3.8432 9.2817)" class="st0" cx="9.3" cy="9.3" rx="0.9" ry="0.9"/>
				
					<ellipse transform="matrix(0.7069 -0.7074 0.7074 0.7069 -6.0962 14.7241)" class="st0" cx="14.7" cy="14.7" rx="0.9" ry="0.9"/>
			</g>
			<g>
				<ellipse transform="matrix(0.7068 -0.7074 0.7074 0.7068 -2.2499 13.1309)" class="st0" cx="14.7" cy="9.3" rx="0.9" ry="0.9"/>
				<ellipse transform="matrix(0.7076 -0.7066 0.7066 0.7076 -7.6852 10.8607)" class="st0" cx="9.3" cy="14.7" rx="0.9" ry="0.9"/>
			</g>
		</g>
		<path class="st0" d="M13,12.4c0,0.3-0.2,0.6-0.6,0.6h-0.8c-0.3,0-0.6-0.2-0.6-0.6v-0.8c0-0.3,0.2-0.6,0.6-0.6h0.8
			c0.3,0,0.6,0.3,0.6,0.6V12.4z"/>
	</g>
</g>
</svg>
