<?xml version="1.0" encoding="utf-8"?>
<!-- Generator: Adobe Illustrator 21.0.0, SVG Export Plug-In . SVG Version: 6.00 Build 0)  -->
<svg version="1.1" id="Layer_1" xmlns="http://www.w3.org/2000/svg" xmlns:xlink="http://www.w3.org/1999/xlink" x="0px" y="0px"
	 viewBox="0 0 24 24" style="enable-background:new 0 0 24 24;" xml:space="preserve">
<style type="text/css">
	.st0{fill:none;stroke:#000000;stroke-linecap:round;stroke-linejoin:round;stroke-miterlimit:10;}
	
		.st1{fill-rule:evenodd;clip-rule:evenodd;fill:none;stroke:#000000;stroke-linecap:round;stroke-linejoin:round;stroke-miterlimit:10;}
	.st2{fill:none;stroke:#000000;stroke-linecap:square;stroke-linejoin:round;stroke-miterlimit:10;}
	.st3{fill:none;stroke:#000000;stroke-linecap:square;stroke-miterlimit:10;}
</style>
<g>
	<g>
		<g>
			<g>
				<line class="st0" x1="10.7" y1="10.7" x2="13.3" y2="13.3"/>
				<line class="st0" x1="13.3" y1="10.7" x2="10.7" y2="13.3"/>
			</g>
			<g>
				<ellipse transform="matrix(0.7076 -0.7066 0.7066 0.7076 -4.305 10.3849)" class="st0" cx="10.4" cy="10.4" rx="0.5" ry="0.5"/>
				
					<ellipse transform="matrix(0.7064 -0.7078 0.7078 0.7064 -5.6351 13.6228)" class="st0" cx="13.6" cy="13.6" rx="0.5" ry="0.5"/>
			</g>
			<g>
				
					<ellipse transform="matrix(0.7068 -0.7074 0.7074 0.7068 -3.3641 12.6704)" class="st0" cx="13.6" cy="10.4" rx="0.5" ry="0.5"/>
				
					<ellipse transform="matrix(0.7076 -0.7066 0.7066 0.7076 -6.5735 11.3227)" class="st0" cx="10.4" cy="13.6" rx="0.5" ry="0.5"/>
			</g>
		</g>
		<path class="st0" d="M12.6,12.2c0,0.2-0.1,0.3-0.3,0.3h-0.5c-0.2,0-0.3-0.1-0.3-0.3v-0.5c0-0.2,0.1-0.3,0.3-0.3h0.5
			c0.2,0,0.3,0.1,0.3,0.3V12.2z"/>
	</g>
	<circle class="st0" cx="12" cy="12" r="11"/>
	<circle class="st0" cx="12" cy="12" r="8.9"/>
	<g>
		<line class="st0" x1="12" y1="3.1" x2="12" y2="8.8"/>
		<line class="st0" x1="12" y1="15.2" x2="12" y2="20.9"/>
	</g>
	<g>
		<line class="st0" x1="20.9" y1="12" x2="15.2" y2="12"/>
		<line class="st0" x1="8.8" y1="12" x2="3.1" y2="12"/>
	</g>
</g>
</svg>
