<?xml version="1.0" encoding="utf-8"?>
<!-- Generator: Adobe Illustrator 21.0.0, SVG Export Plug-In . SVG Version: 6.00 Build 0)  -->
<svg version="1.1" id="Layer_1" xmlns="http://www.w3.org/2000/svg" xmlns:xlink="http://www.w3.org/1999/xlink" x="0px" y="0px"
	 viewBox="0 0 24 24" style="enable-background:new 0 0 24 24;" xml:space="preserve">
<style type="text/css">
	.st0{fill:none;stroke:#000000;stroke-linecap:round;stroke-linejoin:round;stroke-miterlimit:10;}
	
		.st1{fill-rule:evenodd;clip-rule:evenodd;fill:none;stroke:#000000;stroke-linecap:round;stroke-linejoin:round;stroke-miterlimit:10;}
	.st2{fill:none;stroke:#000000;stroke-linecap:square;stroke-linejoin:round;stroke-miterlimit:10;}
	.st3{fill:none;stroke:#000000;stroke-linecap:square;stroke-miterlimit:10;}
</style>
<g>
	<g>
		<g>
			<g>
				<g>
					<line class="st0" x1="2.9" y1="1.4" x2="2.9" y2="2.7"/>
					<line class="st0" x1="2.9" y1="8.3" x2="2.9" y2="9"/>
					<line class="st0" x1="4.8" y1="8.1" x2="1" y2="8.1"/>
					<line class="st0" x1="4.8" y1="1.1" x2="1" y2="1.1"/>
					<line class="st0" x1="23" y1="1.1" x2="19.2" y2="1.1"/>
					<line class="st0" x1="21.1" y1="1.4" x2="21.1" y2="2.7"/>
					<line class="st0" x1="21.1" y1="8.3" x2="21.1" y2="9"/>
					<line class="st0" x1="19.2" y1="8.1" x2="23" y2="8.1"/>
					<path class="st0" d="M21.5,2.9h-1.2c-0.6,0-1.1,0.4-1.2,0.9c-1.7-0.9-5-1.5-6-1.5c-0.4,0-0.7,0.1-1,0.2c-0.3-0.1-0.7-0.2-1-0.2
						c-1,0-4.3,0.6-6,1.5C4.8,3.2,4.3,2.9,3.8,2.9H2.5c-0.7,0-1.3,0.6-1.3,1.3v1.3c0,0.7,0.6,1.3,1.3,1.3h1.2c0.6,0,1-0.4,1.2-0.9
						c1,0.5,2.5,0.9,3.9,1.2c0.2,0.9,1.6,1.6,3.2,1.6c1.6,0,2.9-0.7,3.2-1.6C16.5,6.7,18,6.3,19,5.8c0.2,0.5,0.6,0.9,1.2,0.9h1.2
						c0.7,0,1.3-0.6,1.3-1.3V4.1C22.7,3.4,22.2,2.9,21.5,2.9z"/>
				</g>
				<line class="st0" x1="10.4" y1="5" x2="13.6" y2="5"/>
			</g>
		</g>
	</g>
	<g>
		<g>
			<g>
				<g>
					<path class="st0" d="M12.8,22.9h-1.6c-0.2,0-0.4-0.2-0.5-0.4l-0.3-1.1c-0.7-0.2-1.3-0.6-1.8-1l-1.1,0.3c-0.2,0.1-0.5,0-0.6-0.2
						l-0.8-1.3c-0.1-0.2-0.1-0.5,0.1-0.6l0.8-0.8c-0.1-0.7-0.1-1.4,0-2l-0.8-0.8c-0.2-0.2-0.2-0.4-0.1-0.6L7,12.9
						c0.1-0.2,0.4-0.3,0.6-0.2l1.1,0.3c0.3-0.2,0.5-0.4,0.8-0.6c0.3-0.2,0.6-0.3,0.9-0.4l0.3-1.1c0.1-0.2,0.3-0.4,0.5-0.4h1.6
						c0,0,0,0,0,0c0.2,0,0.4,0.2,0.5,0.4l0.3,1.1c0.7,0.2,1.3,0.6,1.8,1l1.1-0.3c0.2-0.1,0.5,0,0.6,0.2l0.8,1.4
						c0.1,0.2,0.1,0.5-0.1,0.6l-0.8,0.8c0.1,0.7,0.1,1.4,0,2l0.8,0.8c0.2,0.2,0.2,0.4,0.1,0.6L17,20.4c-0.1,0.2-0.4,0.3-0.6,0.2
						l-1.1-0.3c-0.3,0.2-0.5,0.4-0.8,0.6c-0.3,0.2-0.6,0.3-0.9,0.4l-0.3,1.1C13.2,22.7,13,22.9,12.8,22.9z"/>
				</g>
			</g>
			<g>
				<path class="st0" d="M13.3,14.7l1,1.7c0.1,0.1,0.1,0.3,0,0.4l-1,1.7c-0.1,0.1-0.2,0.2-0.4,0.2l-2,0c-0.2,0-0.3-0.1-0.4-0.2
					l-1-1.7c-0.1-0.1-0.1-0.3,0-0.4l1-1.7c0.1-0.1,0.2-0.2,0.4-0.2h2C13.1,14.5,13.3,14.6,13.3,14.7z"/>
			</g>
		</g>
	</g>
</g>
</svg>
