<?xml version="1.0" encoding="utf-8"?>
<!-- Generator: Adobe Illustrator 21.0.0, SVG Export Plug-In . SVG Version: 6.00 Build 0)  -->
<svg version="1.1" id="Layer_1" xmlns="http://www.w3.org/2000/svg" xmlns:xlink="http://www.w3.org/1999/xlink" x="0px" y="0px"
	 viewBox="0 0 24 24" style="enable-background:new 0 0 24 24;" xml:space="preserve">
<style type="text/css">
	.st0{fill:none;stroke:#000000;stroke-linecap:round;stroke-linejoin:round;stroke-miterlimit:10;}
	
		.st1{fill-rule:evenodd;clip-rule:evenodd;fill:none;stroke:#000000;stroke-linecap:round;stroke-linejoin:round;stroke-miterlimit:10;}
	.st2{fill:none;stroke:#000000;stroke-linecap:square;stroke-linejoin:round;stroke-miterlimit:10;}
	.st3{fill:none;stroke:#000000;stroke-linecap:square;stroke-miterlimit:10;}
</style>
<g>
	<g>
		<g>
			<path class="st0" d="M18.5,16.2c-1.7-1.7-4.1-2.7-6.5-2.7c-2.5,0-4.8,1-6.5,2.7l-2-2c2.3-2.3,5.3-3.5,8.5-3.5
				c3.2,0,6.2,1.2,8.5,3.5L18.5,16.2z"/>
		</g>
		<g>
			<path class="st0" d="M15.2,19.8c-1.7-1.7-4.6-1.7-6.3,0l-2-2c2.8-2.8,7.4-2.8,10.2,0L15.2,19.8z"/>
		</g>
		<g>
			<path class="st0" d="M12,22.8L10.2,21c1-1,2.6-1,3.6,0L12,22.8z"/>
		</g>
	</g>
	<g>
		<g>
			<line class="st0" x1="2.9" y1="1.5" x2="2.9" y2="2.8"/>
			<line class="st0" x1="2.9" y1="8.4" x2="2.9" y2="9.1"/>
			<line class="st0" x1="4.8" y1="8.2" x2="1" y2="8.2"/>
			<line class="st0" x1="4.8" y1="1.2" x2="1" y2="1.2"/>
			<line class="st0" x1="23" y1="1.2" x2="19.2" y2="1.2"/>
			<line class="st0" x1="21.1" y1="1.5" x2="21.1" y2="2.8"/>
			<line class="st0" x1="21.1" y1="8.4" x2="21.1" y2="9.1"/>
			<line class="st0" x1="19.2" y1="8.2" x2="23" y2="8.2"/>
			<path class="st0" d="M21.5,3h-1.2c-0.6,0-1,0.4-1.2,0.9c-1.7-0.9-5-1.5-6-1.5c-0.4,0-0.7,0.1-1,0.2c-0.3-0.1-0.7-0.2-1-0.2
				c-1,0-4.3,0.6-6,1.5C4.8,3.4,4.3,3,3.8,3H2.5C1.8,3,1.3,3.5,1.3,4.2v1.3c0,0.7,0.6,1.3,1.3,1.3h1.2c0.6,0,1-0.4,1.2-0.9
				c1,0.5,2.5,0.9,3.9,1.2C9.1,8,10.4,8.8,12,8.8c1.6,0,2.9-0.7,3.2-1.6C16.5,6.9,18,6.4,19,5.9c0.2,0.5,0.6,0.9,1.2,0.9h1.2
				c0.7,0,1.3-0.6,1.3-1.3V4.2C22.7,3.5,22.2,3,21.5,3z"/>
		</g>
		<line class="st0" x1="10.4" y1="5.1" x2="13.6" y2="5.1"/>
	</g>
</g>
</svg>
