<?xml version="1.0"?>
<svg xmlns="http://www.w3.org/2000/svg" viewBox="0 0 24 24">
    <path style="text-indent:0;text-align:start;line-height:normal;text-transform:none;block-progression:tb;-inkscape-font-specification:Sans" d="M 2 2 L 2 3 L 2 6 L 4 6 L 4 4 L 6 4 L 6 2 L 3 2 L 2 2 z M 18 2 L 18 4 L 20 4 L 20 6 L 22 6 L 22 3 L 22 2 L 21 2 L 18 2 z M 12.03125 4 C 9.194375 4 6.5106223 5.2218075 5.46875 7.96875 C 5.0822531 8.7981464 4.875 9.7716667 4.875 10.875 C 4.875 10.998 4.869 11.125 4.875 11.25 C 4.3428976 11.663642 4.018828 12.296171 4 13 L 2 13 L 2 15 L 22 15 L 22 13 L 20 13 C 19.981172 12.297085 19.657102 11.664613 19.125 11.25 C 19.131 11.125 19.125 10.998 19.125 10.875 C 19.125 9.6778833 18.891065 8.6233788 18.4375 7.75 C 17.344359 5.1472297 14.797062 4 12.03125 4 z M 10 8 C 11.013 9.548 13.047 10.041 15 10 C 15.752344 9.9840625 16.458836 10.017872 17.0625 10.21875 C 17.085694 10.431376 17.125 10.64364 17.125 10.875 C 17.125 11.147 17.0925 11.43675 17.0625 11.71875 L 17 12.53125 L 17.78125 12.78125 C 17.87365 12.808475 17.93924 12.886795 17.96875 13 L 15.40625 13 C 15.53638 12.796237 15.625 12.572324 15.625 12.3125 C 15.625 11.58735 15.03765 11 14.3125 11 C 13.58735 11 13 11.58735 13 12.3125 C 13 12.572324 13.08862 12.796237 13.21875 13 L 10.78125 13 C 10.91138 12.796237 11 12.572324 11 12.3125 C 11 11.58735 10.41265 11 9.6875 11 C 8.9623501 11 8.375 11.58735 8.375 12.3125 C 8.375 12.572324 8.4636196 12.796237 8.59375 13 L 6.03125 13 C 6.0607602 12.887331 6.12635 12.8093 6.21875 12.78125 L 7 12.53125 L 6.9375 11.71875 C 6.9085 11.43675 6.875 11.147 6.875 10.875 C 6.875 10.786619 6.9028628 10.710649 6.90625 10.625 C 7.9439338 9.6542707 8.7942332 9.9551972 10 8 z M 6.125 16 C 7.283 18.41 9.323 21 12 21 C 14.677 21 16.717 18.41 17.875 16 L 15.625 16 C 14.708 17.623 13.427 19 12 19 C 10.573 19 9.293 17.623 8.375 16 L 6.125 16 z M 2 18 L 2 21 L 2 22 L 3 22 L 6 22 L 6 20 L 4 20 L 4 18 L 2 18 z M 20 18 L 20 20 L 18 20 L 18 22 L 21 22 L 22 22 L 22 21 L 22 18 L 20 18 z"/>
</svg>
